<?xml version="1.0" encoding="utf-8"?>
<!-- Generator: Adobe Illustrator 22.0.1, SVG Export Plug-In . SVG Version: 6.00 Build 0)  -->
<!DOCTYPE svg PUBLIC "-//W3C//DTD SVG 1.0//EN" "http://www.w3.org/TR/2001/REC-SVG-20010904/DTD/svg10.dtd">
<svg version="1.0" id="Layer_1" xmlns="http://www.w3.org/2000/svg" xmlns:xlink="http://www.w3.org/1999/xlink" x="0px" y="0px"
	 width="375px" height="563px" viewBox="0 0 375 563" enable-background="new 0 0 375 563" xml:space="preserve">
<g>
	<polygon fill="#AF00E6" points="187.5,281.5 187.5,281.5 187.5,281.5 	"/>
	<polygon fill="#FFEC00" points="187.5,281.5 375,0 375,0 187.5,0 187.5,281.5 	"/>
	<polygon fill="#00FFCB" points="375,281.5 375,0 187.5,281.5 	"/>
	<polygon fill="#AF00E6" points="187.5,281.5 187.5,281.5 187.5,281.5 	"/>
	<polygon fill="#FF0090" points="187.5,0 0,0 187.5,281.5 	"/>
	<polygon fill="#7000C6" points="0,563 187.5,563 187.5,281.5 	"/>
	<polygon fill="#AF00E6" points="187.5,281.5 375,563 375,281.5 	"/>
	<polygon fill="#9E00DE" points="187.5,281.5 0,0 0,0 0,281.5 187.5,281.5 	"/>
	<polygon fill="#00FFCB" points="187.5,281.5 187.5,563 375,563 375,563 187.5,281.5 	"/>
	<polygon fill="#FFEC00" points="187.5,281.5 0,281.5 0,563 0,563 187.5,281.5 	"/>
</g>
</svg>
