<?xml version="1.0" encoding="utf-8"?>
<!-- Generator: Adobe Illustrator 22.0.1, SVG Export Plug-In . SVG Version: 6.00 Build 0)  -->
<!DOCTYPE svg PUBLIC "-//W3C//DTD SVG 1.0//EN" "http://www.w3.org/TR/2001/REC-SVG-20010904/DTD/svg10.dtd">
<svg version="1.0" id="Layer_1" xmlns="http://www.w3.org/2000/svg" xmlns:xlink="http://www.w3.org/1999/xlink" x="0px" y="0px"
	 width="375px" height="563px" viewBox="0 0 375 563" enable-background="new 0 0 375 563" xml:space="preserve">
<g>
	<g>
		<path fill="#AF00E6" d="M187.5,187.7L187.5,187.7L187.5,187.7z"/>
		<polygon fill="#FFEC00" points="187.5,187.7 375,0 375,0 187.5,0 		"/>
		<polygon fill="#00FFCB" points="375,187.7 375,0 187.5,187.7 		"/>
		<path fill="#AF00E6" d="M187.5,187.7L187.5,187.7L187.5,187.7z"/>
		<polygon fill="#FF0090" points="187.5,0 0,0 187.5,187.7 		"/>
		<polygon fill="#7000C6" points="0,375.3 187.5,375.3 187.5,187.7 		"/>
		<polygon fill="#AF00E6" points="187.5,187.7 375,375.3 375,187.7 		"/>
		<polygon fill="#9E00DE" points="187.5,187.7 0,0 0,0 0,187.7 		"/>
		<polygon fill="#00FFCB" points="187.5,187.7 187.5,375.3 375,375.3 375,375.3 		"/>
		<polygon fill="#FFEC00" points="187.5,187.7 0,187.7 0,375.3 0,375.3 		"/>
	</g>
	<g>
		<path fill="#AF00E6" d="M187.5,563L187.5,563L187.5,563z"/>
		<polygon fill="#FFEC00" points="187.5,563 375,375.3 375,375.3 187.5,375.3 		"/>
		<polygon fill="#7000C6" points="375,563 375,375.3 187.5,563 		"/>
		<path fill="#AF00E6" d="M187.5,563L187.5,563L187.5,563z"/>
		<polygon fill="#FF0090" points="187.5,375.3 0,375.3 187.5,563 		"/>
		<polygon fill="#00FFCB" points="187.5,563 0,375.3 0,375.3 0,563 		"/>
	</g>
</g>
</svg>
