<?xml version="1.0" encoding="UTF-8" standalone="no"?>
<!-- Created with Inkscape (http://www.inkscape.org/) -->

<svg
   xmlns:dc="http://purl.org/dc/elements/1.1/"
   xmlns:cc="http://creativecommons.org/ns#"
   xmlns:rdf="http://www.w3.org/1999/02/22-rdf-syntax-ns#"
   xmlns:svg="http://www.w3.org/2000/svg"
   xmlns="http://www.w3.org/2000/svg"
   xmlns:sodipodi="http://sodipodi.sourceforge.net/DTD/sodipodi-0.dtd"
   xmlns:inkscape="http://www.inkscape.org/namespaces/inkscape"
   width="512"
   height="512"
   viewBox="0 0 135.46666 135.46667"
   version="1.1"
   id="svg8"
   inkscape:version="0.92.2 (5c3e80d, 2017-08-06)"
   sodipodi:docname="dank logo.svg">
  <defs
     id="defs2" />
  <sodipodi:namedview
     id="base"
     pagecolor="#ffffff"
     bordercolor="#666666"
     borderopacity="1.0"
     inkscape:pageopacity="0.0"
     inkscape:pageshadow="2"
     inkscape:zoom="0.35"
     inkscape:cx="-200"
     inkscape:cy="228.57143"
     inkscape:document-units="mm"
     inkscape:current-layer="layer1"
     showgrid="false"
     inkscape:window-width="1366"
     inkscape:window-height="705"
     inkscape:window-x="-8"
     inkscape:window-y="-8"
     inkscape:window-maximized="1"
     units="px" />
  <metadata
     id="metadata5">
    <rdf:RDF>
      <cc:Work
         rdf:about="">
        <dc:format>image/svg+xml</dc:format>
        <dc:type
           rdf:resource="http://purl.org/dc/dcmitype/StillImage" />
        <dc:title></dc:title>
      </cc:Work>
    </rdf:RDF>
  </metadata>
  <g
     inkscape:label="Layer 1"
     inkscape:groupmode="layer"
     id="layer1"
     transform="translate(0,-161.53332)">
    <path
       sodipodi:nodetypes="ssssssss"
       inkscape:connector-curvature="0"
       id="path2482"
       d="m 113.26028,230.68899 c 0,25.82441 -25.814673,50.88448 -50.734404,44.10907 -9.747155,-2.65012 -13.068261,-1.08271 -20.838057,-6.835 -1.8048,-1.33616 -22.061007,7.4701 -23.653501,5.89343 -2.065616,-2.0451 7.888859,-20.8014 6.98908,-23.57485 -1.778473,-5.48202 -4.719921,-9.39535 -5.281553,-19.59265 -1.420149,-25.78534 26.288051,-46.42456 52.059497,-44.77163 25.824415,1.65634 41.458938,18.94722 41.458938,44.77163 z"
       style="opacity:1;fill:#fde94e;fill-opacity:1;stroke:none;stroke-width:1.71521175;stroke-linecap:round;stroke-linejoin:round;stroke-miterlimit:4;stroke-dasharray:none;stroke-dashoffset:0;stroke-opacity:1" />
    <g
       id="g2585"
       transform="matrix(1.2394493,0,0,1.2394493,-196.52496,-3.5955453)">
      <path
         inkscape:connector-curvature="0"
         id="path2445"
         style="font-style:normal;font-variant:normal;font-weight:normal;font-stretch:normal;font-size:medium;line-height:1.25;font-family:PlaytimeWithHotToddies3D;-inkscape-font-specification:PlaytimeWithHotToddies3D;letter-spacing:0px;word-spacing:0px;fill:#7257f6;fill-opacity:1;stroke:none;stroke-width:1.79155993"
         d="m 242.66794,283.58272 q 0.35831,-0.14333 0.64496,-0.21499 0.28665,-0.14332 0.64496,-0.28665 0.50164,-2.8665 0.5733,-5.73299 0.14333,-2.8665 0.0717,-5.66133 -0.0717,-2.8665 -0.21499,-5.73299 -0.0717,-2.8665 -0.0717,-5.733 0,-2.57984 0.14333,-5.80465 0.21499,-3.22481 0.28665,-6.44962 0.0717,-3.29647 -0.0717,-6.37795 -0.0717,-3.15314 -0.64496,-5.58967 -1.64824,-0.21498 -3.29647,-0.14332 -1.57658,0 -3.22481,0.0717 0.21498,1.79156 0,3.58312 -0.35831,2.43652 -0.35831,4.87304 0,2.36486 -0.0717,4.80139 0,1.43324 0.0717,2.86649 0.0717,1.43325 -0.0717,2.8665 -4.44307,-1.57658 -8.74282,-0.35831 -4.22808,1.21826 -7.59621,4.51473 -3.29647,3.2248 -4.51473,6.87959 -1.21826,3.65478 -0.78829,7.02291 0.42998,3.29647 2.2932,6.01964 1.86322,2.65151 4.72972,4.0131 2.93815,1.28992 6.6646,1.00327 3.72644,-0.28665 7.8112,-3.00982 0.0717,0.50164 0.0717,1.00327 0,0.50164 0.14333,1.00328 0.21498,0.85995 0.85995,1.1466 0.64496,0.21498 1.50491,0.21498 0.85994,-0.0717 1.71989,-0.28665 0.85995,-0.28665 1.43325,-0.50163 z m -0.42998,-1.36159 q -0.28665,0.0717 -0.78828,0.21499 -0.50164,0.14332 -1.07494,0.28665 -0.50164,0.0717 -1.00327,0.14332 -0.50164,0.0717 -0.71663,0 -0.14332,-0.14332 -0.21498,-0.71662 -0.0717,-0.64496 -0.14333,-1.36159 0,-0.78828 -0.0717,-1.43324 -0.0717,-0.71663 -0.0717,-0.93162 l -1.00327,0.71663 q -3.86977,2.79483 -7.38123,3.36813 -3.51146,0.50164 -6.23463,-0.64496 -2.72317,-1.1466 -4.51473,-3.51146 -1.7199,-2.43652 -2.14987,-5.518 -0.42998,-3.08149 0.71662,-6.37796 1.1466,-3.36813 4.15642,-6.37795 2.50819,-2.43652 5.87632,-3.72644 3.36813,-1.36159 6.80793,-0.71663 1.00327,0.14333 1.86322,0.50164 0.93161,0.28665 1.93488,0.64496 0.21499,-1.07494 0.28665,-2.07821 0.0717,-1.07494 0.0717,-2.22153 -0.0717,-3.22481 -0.0717,-6.37796 0,-3.22481 0.42998,-6.44961 0.0717,-0.5733 0.0717,-1.1466 0.0717,-0.5733 0.0717,-1.1466 0.93161,-0.0717 1.86322,-0.0717 0.93161,-0.0717 1.93489,0 0.35831,1.86322 0.35831,4.72972 0.0717,2.79483 0,6.01964 -0.14333,3.43979 -0.28665,6.73626 -0.0717,3.29647 -0.0717,5.44634 0,5.51801 0.28665,10.96435 0.35831,5.44634 -0.50164,10.89269 -0.28665,0.14332 -0.42997,0.14332 z m -8.88613,-20.92542 q 0.93161,-0.0717 1.71989,0.0717 0.78829,0.0717 1.50491,0.50164 0.21499,1.00327 0.28665,2.57985 0.14333,1.50491 0.0717,3.2248 0,1.64824 -0.14332,3.15315 -0.14333,1.50491 -0.42998,2.43652 -0.14332,0.50164 -1.28992,1.1466 -1.07494,0.64496 -2.57985,1.1466 -1.50491,0.42997 -3.29647,0.5733 -1.71989,0.14332 -3.15314,-0.28665 -1.43325,-0.50164 -2.36486,-1.79156 -0.85995,-1.28993 -0.64496,-3.65478 0.14332,-1.93489 1.00327,-3.51146 0.93161,-1.64824 2.36486,-2.8665 1.43325,-1.21826 3.22481,-1.86322 1.79156,-0.71662 3.72644,-0.85995 z m -0.14333,-1.43325 q -2.07821,0.14333 -4.08476,0.93161 -2.00654,0.78829 -3.65478,2.14988 -1.57657,1.28992 -2.65151,3.2248 -1.07493,1.86323 -1.21826,4.08476 -0.21498,2.8665 0.85995,4.44307 1.07494,1.57657 2.72317,2.2932 1.7199,0.71662 3.79811,0.64496 2.07821,-0.14333 3.94143,-0.64496 1.86322,-0.5733 3.22481,-1.43325 1.36159,-0.93161 1.64823,-1.86322 0.28665,-1.07494 0.42998,-2.79484 0.21499,-1.7199 0.21499,-3.51146 0,-1.86322 -0.14333,-3.58312 -0.14332,-1.71989 -0.42997,-2.79483 -1.1466,-0.78829 -2.22154,-1.00327 -1.07493,-0.21499 -2.43652,-0.14333 z"
         transform="matrix(0.81237643,0,0,0.81237643,10.834461,-34.967202)" />
      <path
         inkscape:connector-curvature="0"
         id="path2447"
         style="font-style:normal;font-variant:normal;font-weight:normal;font-stretch:normal;font-size:medium;line-height:1.25;font-family:PlaytimeWithHotToddies3D;-inkscape-font-specification:PlaytimeWithHotToddies3D;letter-spacing:0px;word-spacing:0px;fill:#7257f6;fill-opacity:1;stroke:none;stroke-width:1.79155993"
         d="m 259.35061,285.48829 q 1.86322,-0.0717 3.51146,-0.5733 1.64823,-0.5733 3.29647,-1.07494 0.35831,0.64497 0.85995,1.1466 0.5733,0.50164 0.93161,1.1466 1.28992,0 2.50818,-0.21499 1.28993,-0.14332 2.50819,-0.28665 v -0.64496 q 0,-1.64823 0.0717,-3.15314 0.14332,-1.57658 0.14332,-3.22481 l -0.21499,0.50164 0.28665,-0.28665 q 0.0717,-2.22154 0.21499,-5.08803 0.21499,-2.93816 0.14333,-5.94798 -0.0717,-3.00982 -0.5733,-5.73299 -0.50164,-2.79484 -1.86323,-4.72972 -1.79156,-2.57985 -4.01309,-3.72645 -2.14987,-1.1466 -4.44307,-1.21826 -2.22153,-0.0717 -4.51473,0.78829 -2.22153,0.85995 -4.15642,2.36486 -1.86322,1.43324 -3.36813,3.29647 -1.50491,1.86322 -2.2932,3.86977 1.1466,0.5733 1.93489,1.43324 0.78828,0.78829 2.00654,1.21827 0.93161,-1.1466 1.86323,-2.22154 1.00327,-1.1466 2.29319,-2.00655 1.07494,-0.71662 2.43652,-1.07493 1.36159,-0.35831 2.57985,-0.28665 1.28992,0 2.22153,0.64496 1.00328,0.5733 1.36159,1.79156 0.35831,0.93161 0.35831,1.93488 0,0.93162 0,1.93489 -1.57657,0.21499 -3.15314,0.28665 -1.50491,0 -3.08149,0.21499 -1.57657,0.21498 -3.58312,0.93161 -2.00654,0.71662 -3.86977,1.86322 -1.79156,1.1466 -3.08148,2.8665 -1.21826,1.64823 -1.21826,3.7981 0,2.79484 0.93161,4.65806 0.93161,1.79156 2.50818,2.93816 1.64824,1.07493 3.72645,1.50491 2.07821,0.42997 4.44307,0.42997 h 0.14332 z m 12.3976,-7.16624 v 0.28665 q 0,1.43325 -0.0717,2.8665 -0.0717,1.43324 -0.14333,2.86649 -0.71662,0.0717 -1.43325,0.21499 -0.64496,0.0717 -1.36158,0.14332 -0.35831,-0.42997 -0.5733,-0.64496 -0.21499,-0.21499 -0.42998,-0.42997 -0.14332,-0.21499 -0.28664,-0.50164 -0.14333,-0.35831 -0.21499,-1.00327 -1.93489,0.50163 -3.94143,1.21826 -2.00655,0.71662 -4.08476,0.71662 h -0.14333 l -0.14332,0.0717 q -2.22153,0 -4.08476,-0.35831 -1.86322,-0.42997 -3.22481,-1.36158 -1.28992,-0.93161 -2.00654,-2.50819 -0.71663,-1.57657 -0.71663,-3.86977 0,-1.71989 1.00328,-3.08148 1.07493,-1.36159 2.65151,-2.36486 1.57657,-1.00327 3.43979,-1.64823 1.86322,-0.64497 3.51146,-0.93162 1.86322,-0.35831 3.65478,-0.35831 1.86322,0 3.72645,-0.35831 -0.0717,-1.36159 -0.0717,-2.72317 0.0717,-1.43325 -0.28665,-2.79483 -0.5733,-1.86323 -2.00655,-2.65151 -1.36159,-0.78829 -3.00982,-0.78829 -1.57657,-0.0717 -3.22481,0.42997 -1.57657,0.50164 -2.65151,1.21827 -1.07493,0.71662 -2.00655,1.64823 -0.85994,0.93161 -1.64823,1.93489 -0.50164,-0.35832 -0.93161,-0.71663 -0.35831,-0.42997 -0.85995,-0.78828 1.28992,-2.93816 3.79811,-5.01637 2.50818,-2.07821 5.37468,-2.72317 2.93815,-0.71663 5.80465,0.14332 2.8665,0.85995 4.87304,3.72645 1.1466,1.71989 1.57658,4.29974 0.50163,2.57985 0.5733,5.44634 0.0717,2.79484 -0.14333,5.58967 -0.14332,2.72317 -0.21499,4.72972 z m -12.18261,-5.37468 q 2.00655,-0.71662 3.72644,-0.85995 1.79156,-0.21499 2.57985,0 0,1.21826 0,2.43652 0.0717,1.1466 -0.21499,2.36486 -0.0717,0.35831 -1.57657,0.71663 -1.50491,0.28665 -3.36813,0.42997 -1.79156,0.0717 -3.4398,-0.0717 -1.64823,-0.21499 -1.93488,-0.93161 -0.28665,-0.78829 0.14332,-1.43325 0.42998,-0.71663 1.1466,-1.21826 0.71662,-0.5733 1.50491,-0.93161 0.85995,-0.35832 1.43325,-0.50164 z m -0.50164,-1.36159 q -0.85995,0.28665 -1.93488,0.78829 -1.07494,0.50164 -1.93489,1.28992 -0.78828,0.71663 -1.21826,1.7199 -0.35831,0.93161 0.0717,2.07821 0.28665,0.85995 1.28992,1.28992 1.07494,0.42998 2.43653,0.64497 1.43324,0.14332 3.00982,0.0717 1.57657,-0.14333 2.93816,-0.42998 1.36158,-0.28665 2.29319,-0.78828 0.93161,-0.50164 1.07494,-1.07494 0.28665,-1.43325 0.21499,-2.79483 0,-1.36159 0,-2.79484 v -0.35831 q -0.78829,-0.50163 -1.93489,-0.5733 -1.07494,-0.14332 -2.2932,0 -1.14659,0.14333 -2.22153,0.42998 -1.07494,0.28665 -1.79156,0.50163 z"
         transform="matrix(0.81237643,0,0,0.81237643,10.834461,-34.967202)" />
      <path
         inkscape:connector-curvature="0"
         id="path2449"
         style="font-style:normal;font-variant:normal;font-weight:normal;font-stretch:normal;font-size:medium;line-height:1.25;font-family:PlaytimeWithHotToddies3D;-inkscape-font-specification:PlaytimeWithHotToddies3D;letter-spacing:0px;word-spacing:0px;fill:#7257f6;fill-opacity:1;stroke:none;stroke-width:1.79155993"
         d="m 266.66083,318.43034 q 0.78829,-0.14332 1.50491,-0.28665 0.78829,-0.14332 1.57657,-0.28665 0.50164,-0.85995 0.71663,-2.00655 0.28665,-1.21826 0.42997,-2.43652 0.14333,-1.21826 0.21499,-2.43652 0.0717,-1.21826 0.0717,-2.22153 0.0717,-3.65479 -0.0717,-7.45289 -0.0717,-3.79811 -1.50491,-7.23791 -1.43325,-3.43979 -3.65478,-4.80138 -2.14987,-1.36158 -4.5864,-1.21826 -2.43652,0.0717 -4.9447,1.43325 -2.43652,1.28992 -4.37141,3.15315 -0.14332,-1.00328 -0.35831,-1.86323 -0.14332,-0.85994 -0.42997,-1.71989 -0.50164,-0.0717 -1.28993,-0.0717 -0.71662,-0.0717 -1.50491,0 -0.78828,0.0717 -1.50491,0.21499 -0.64496,0.0717 -1.07493,0.35831 -0.35832,0.21499 -0.50164,0.85995 -0.0717,0.5733 -0.14333,0.93161 -0.28665,3.08149 -0.28665,6.23463 0,3.15315 0,6.37796 0.0717,3.2248 0.14333,6.44961 0.0717,3.15315 0,6.23463 0.42997,0.93161 1.28992,1.28992 0.85995,0.35832 1.86322,0.42998 1.00328,0.0717 2.07821,-0.0717 1.07494,-0.0717 1.86323,-0.0717 v -0.71662 q 0,-4.08476 0,-8.16951 0.0717,-4.15642 1.07493,-8.16952 0.42998,-1.79156 1.86323,-3.22481 1.43324,-1.43324 3.00982,-1.79156 1.64823,-0.42997 3.08148,0.64497 1.43325,1.00327 2.00655,4.08475 0.35831,2.07821 0.35831,4.15642 0.0717,2.07821 -0.0717,4.22808 -0.0717,2.07821 -0.21499,4.22808 -0.14332,2.07821 -0.21499,4.15642 0.93161,0.5733 1.7199,0.71663 0.78828,0.21498 1.86322,0.0717 z m -19.85048,-27.80501 q 0.50163,-0.14333 1.50491,-0.21499 1.00327,-0.0717 1.79156,-0.0717 0.5733,2.07821 0.5733,3.94143 v 1.86322 q 1.00327,-1.14659 2.36486,-2.36486 1.43324,-1.28992 3.00982,-2.29319 1.64823,-1.07494 3.36813,-1.64824 1.7199,-0.5733 3.29647,-0.35831 1.64823,0.21499 3.08148,1.43325 1.43325,1.1466 2.50818,3.72644 0.64497,1.57658 0.93162,3.29647 0.35831,1.7199 0.50163,3.58312 0.0717,1.21826 0.0717,3.36814 0,2.07821 -0.0717,4.3714 -0.0717,2.22154 -0.28665,4.29975 -0.21498,2.00654 -0.64496,3.00982 -1.07493,0.14332 -2.14987,0.42997 -1.07494,0.28665 -2.14987,-0.21498 0.0717,-2.00655 0.21499,-4.0131 0.14332,-2.07821 0.21498,-4.08476 0.14333,-2.00654 0.0717,-4.01309 0,-2.07821 -0.35831,-4.08476 -0.64496,-3.65478 -2.50818,-4.9447 -1.86322,-1.36159 -3.94143,-1.00328 -2.07821,0.35832 -3.94144,2.07821 -1.79156,1.7199 -2.43652,4.15642 -1.00327,3.86977 -1.07493,7.88287 0,4.01309 0,8.09785 -0.35832,0 -1.00328,0.0717 -0.5733,0.0717 -1.21826,0.0717 -0.64496,-0.0717 -1.21826,-0.14332 -0.5733,-0.14333 -0.78828,-0.50164 0.14332,-5.87632 -0.0717,-11.75263 -0.21499,-5.87632 0.14332,-11.75264 0,-1.07493 0.21499,-2.14987 z"
         transform="matrix(0.81237643,0,0,0.81237643,10.834461,-34.967202)" />
      <path
         inkscape:connector-curvature="0"
         id="path2451"
         style="font-style:normal;font-variant:normal;font-weight:normal;font-stretch:normal;font-size:medium;line-height:1.25;font-family:PlaytimeWithHotToddies3D;-inkscape-font-specification:PlaytimeWithHotToddies3D;letter-spacing:0px;word-spacing:0px;fill:#7257f6;fill-opacity:1;stroke:none;stroke-width:1.79155993"
         d="m 298.23484,305.88942 q -1.64824,-1.86322 -3.00982,-3.58312 -1.36159,-1.7199 -2.00655,-3.08148 0.71662,-0.64496 2.22153,-1.93489 1.50492,-1.28992 3.00983,-2.72317 1.57657,-1.50491 2.86649,-2.79483 1.28992,-1.28993 1.50491,-1.93489 -0.14332,-0.50163 -0.50163,-1.1466 -0.28665,-0.64496 -0.78829,-1.28992 -0.50164,-0.64496 -1.07494,-1.07493 -0.5733,-0.42998 -1.1466,-0.50164 -0.78828,-0.0717 -2.00654,0.71662 -1.21826,0.71663 -2.50819,1.7199 -1.28992,1.00327 -2.36486,2.00655 -1.07493,0.93161 -1.50491,1.28992 -1.64823,1.43325 -3.36813,3.00982 -1.64823,1.50491 -3.51146,2.72317 0,-1.43325 0.0717,-3.72644 0.14332,-2.36486 0.21498,-5.08803 0.0717,-2.79484 0.14333,-5.66133 0.0717,-2.8665 0,-5.44634 0,-2.65151 -0.14333,-4.72972 -0.14332,-2.07821 -0.42997,-3.22481 -1.00328,-0.93161 -1.86322,-1.00327 -0.78829,-0.0717 -2.00655,0 l -2.43652,1.07493 q -0.5733,4.29975 -0.78829,8.45616 -0.14332,4.15642 -0.21499,8.52783 -0.14332,4.72972 -0.14332,9.38777 0,4.5864 0.14332,9.31612 0.14333,2.86649 -0.14332,5.66133 -0.21499,2.72317 0.28665,5.518 0.64496,0.85995 1.28992,1.00327 0.64496,0.14333 1.64824,0.28665 0.85995,0.14333 1.64823,0.28665 0.85995,0.0717 1.50491,-0.14332 0.64496,-0.21499 1.00328,-0.85995 0.35831,-0.64496 0.35831,-2.07821 -0.0717,-1.93488 -0.14333,-3.79811 0,-1.93488 -0.0717,-3.86977 0.35831,-0.78828 1.1466,-1.36158 0.78829,-0.5733 1.64823,-0.93161 1.93489,0.93161 3.65479,3.15314 1.79156,2.14987 3.58312,4.37141 1.79156,2.22153 3.65478,3.94143 1.93488,1.64824 4.08476,1.64824 0.42997,0 0.71662,-0.14333 0.35831,-0.14332 0.71662,-0.28665 0.93162,-0.50164 1.79156,-1.07493 0.85995,-0.64497 1.28993,-1.64824 -0.21499,-0.35831 -0.42998,-0.64496 -0.21498,-0.28665 -0.50163,-0.5733 -1.79156,-1.93489 -3.58312,-3.86977 -1.79156,-1.93488 -3.51146,-3.86977 z m -1.07494,0.93161 q 1.79156,2.00655 3.51146,3.86977 1.79156,1.86322 2.93816,3.15315 0.21499,0.28665 0.50164,0.5733 0.28664,0.21498 0.50163,0.50163 -0.14332,0.14333 -0.5733,0.42998 -0.35831,0.28665 -0.85995,0.5733 -0.42997,0.28665 -0.85994,0.50163 -0.35832,0.14333 -0.5733,0.14333 -1.1466,0 -2.36486,-0.78829 -1.1466,-0.85995 -2.36486,-2.07821 -1.21826,-1.28992 -2.43652,-2.86649 -1.21826,-1.57658 -2.50819,-3.00982 -1.28992,-1.50492 -2.65151,-2.72318 -1.28992,-1.21826 -2.65151,-1.79156 -1.28992,0.50164 -2.50818,1.36159 -1.1466,0.78829 -1.7199,2.22153 l 0.21499,7.95453 q 0,1.07494 -0.21499,1.36159 -0.14332,0.21498 -0.28665,0.21498 -0.21498,0.0717 -0.85995,0.0717 -0.57329,-0.0717 -1.28992,-0.14333 -0.71662,-0.14332 -1.36158,-0.28665 -0.5733,-0.14332 -0.71663,-0.28665 -0.35831,-2.65151 -0.14332,-5.30302 0.28665,-2.6515 0.14332,-5.30301 -0.14332,-4.72972 -0.14332,-9.31612 0,-4.65805 0.14332,-9.38777 0.0717,-4.01309 0.21499,-7.95453 0.14332,-4.01309 0.64496,-8.02618 l 1.43325,-0.64497 q 0.5733,0 1.1466,0 0.64496,0 1.1466,0.35832 0.35831,1.43324 0.35831,5.15969 0.0717,3.65478 0,8.09785 -0.0717,2.2932 -0.14333,4.58639 -0.0717,2.22154 -0.14332,4.22808 0,1.93489 -0.0717,3.58312 0,1.64824 0,2.65151 v 1.00328 l 0.93161,-0.28665 q 0.85995,-0.28665 2.14987,-1.28993 1.36158,-1.00327 2.86649,-2.29319 1.57658,-1.36159 3.22481,-2.8665 1.64824,-1.50491 3.08149,-2.72317 1.50491,-1.28992 2.6515,-2.07821 1.1466,-0.78829 1.64824,-0.71662 0.42997,0.0717 1.1466,0.93161 0.71662,0.78828 1.00327,1.50491 -0.35831,0.42997 -1.50491,1.57657 -1.1466,1.07494 -2.65151,2.50818 -1.43325,1.28993 -2.86649,2.57985 -1.36159,1.21826 -2.79484,2.50819 0.85995,2.14987 2.50819,4.22808 1.64823,2.07821 3.15314,3.72644 z"
         transform="matrix(0.81237643,0,0,0.81237643,10.834461,-34.967202)" />
      <path
         inkscape:connector-curvature="0"
         id="path5441"
         d="m 300.71199,316.24111 c -1.29798,-0.32815 -3.61071,-2.45162 -6.33788,-5.8192 -2.54183,-3.13873 -4.94805,-5.60465 -6.41846,-6.57772 l -1.11279,-0.73641 -1.46095,0.7649 c -0.80353,0.4207 -1.78317,1.18789 -2.17698,1.70485 -0.71545,0.93917 -0.71603,0.94389 -0.71603,5.77042 v 4.83048 l -1.11998,0.0814 c -0.61598,0.0448 -1.59622,-0.0468 -2.17831,-0.20358 -1.00632,-0.27097 -1.06293,-0.34271 -1.15181,-1.45966 -0.21115,-2.65326 0.27247,-37.14648 0.56615,-40.37949 0.36488,-4.01685 0.48417,-4.20872 2.54136,-4.08745 l 1.3301,0.0784 0.2235,1.20271 c 0.12292,0.6615 0.14349,7.24635 0.0457,14.63301 -0.12194,9.21114 -0.0907,13.43029 0.0994,13.43029 1.13837,0 3.93697,-2.06293 9.26555,-6.82994 3.75148,-3.35612 6.15763,-5.19719 6.79235,-5.19719 0.49488,0 2.16118,1.58459 2.16118,2.05519 0,0.33485 -3.83592,4.11593 -7.2831,7.17899 -1.28623,1.14291 -2.3386,2.14963 -2.3386,2.23716 0,0.40538 1.53255,2.98092 2.60729,4.38172 1.28635,1.67659 5.45297,6.36189 8.39695,9.44225 1.00358,1.05007 1.82469,2.02319 1.82469,2.16249 0,0.13931 -0.57129,0.55501 -1.26953,0.9238 -1.08843,0.57487 -1.41507,0.63372 -2.28984,0.41256 z"
         style="opacity:1;fill:#7af4f8;fill-opacity:1;stroke:none;stroke-width:5.05076265;stroke-linecap:round;stroke-linejoin:round;stroke-miterlimit:4;stroke-dasharray:none;stroke-dashoffset:0;stroke-opacity:1"
         transform="matrix(0.81237643,0,0,0.81237643,10.834461,-34.967202)" />
      <path
         inkscape:connector-curvature="0"
         id="path5443"
         d="m 238.64125,280.69154 c 0,-2.40304 -0.38509,-2.50507 -3.08422,-0.81712 -6.97256,4.3604 -14.0001,2.89999 -17.33374,-3.60219 -4.27375,-8.33584 3.78094,-20.2455 13.73622,-20.31038 1.76398,-0.0115 3.989,0.18252 4.94449,0.43114 l 1.73725,0.45205 0.004,-6.08038 c 0.002,-3.34421 0.15714,-7.70405 0.34456,-9.68852 l 0.34078,-3.60814 h 1.79358 1.79359 v 21.54666 c 0,23.18984 0.0233,22.99478 -2.80633,23.48581 -1.39386,0.24189 -1.46998,0.14822 -1.46998,-1.80893 z m -4.47541,-3.99227 c 3.6494,-1.29493 4.08847,-2.14461 4.3238,-8.3673 0.24398,-6.45169 -0.27614,-7.91641 -3.00968,-8.47548 -2.49709,-0.51071 -7.37461,0.83879 -9.66765,2.67481 -4.38269,3.5092 -5.71454,9.65883 -2.79863,12.92229 2.306,2.58087 6.17228,3.01272 11.15216,1.24568 z"
         style="opacity:1;fill:#7af4f8;fill-opacity:1;stroke:none;stroke-width:10.10152531;stroke-linecap:round;stroke-linejoin:round;stroke-miterlimit:4;stroke-dasharray:none;stroke-dashoffset:0;stroke-opacity:1"
         transform="matrix(0.81237643,0,0,0.81237643,10.834461,-34.967202)" />
      <path
         inkscape:connector-curvature="0"
         id="path5445"
         d="m 267.7748,283.13134 c -0.81115,-1.15808 -0.85042,-1.16093 -3.68543,-0.26727 -3.45743,1.08986 -8.32353,1.16976 -10.6732,0.17525 -2.71066,-1.1473 -3.74297,-2.68444 -4.0163,-5.98034 -0.23744,-2.86334 -0.18305,-3.0084 1.85103,-4.9362 2.606,-2.46984 6.36837,-3.84171 11.62662,-4.23939 l 4.05293,-0.30652 v -3.10027 c 0,-3.94112 -1.35323,-5.75734 -4.61573,-6.19493 -2.90986,-0.39029 -5.74177,0.59857 -8.27918,2.89097 -2.52429,2.28054 -4.1888,2.14049 -2.93829,-0.24723 1.98802,-3.79592 6.49564,-6.55771 10.70311,-6.55771 4.71944,0 7.85965,2.27273 9.1517,6.62354 0.82872,2.79059 1.11334,15.98602 0.44932,20.83062 -0.29272,2.13558 -0.51123,2.48003 -1.57331,2.48003 -0.67836,0 -1.60233,-0.52675 -2.05327,-1.17055 z m -1.75613,-4.85534 c 1.30418,-0.85462 1.44632,-1.26076 1.44632,-4.13249 0,-2.95557 -0.0966,-3.20899 -1.34319,-3.52185 -3.28093,-0.82346 -10.22955,1.39113 -11.7775,3.7536 -1.12116,1.71111 -0.65567,3.90392 0.97592,4.59732 1.98296,0.84272 9.0518,0.38247 10.69845,-0.69658 z"
         style="opacity:1;fill:#7af4f8;fill-opacity:1;stroke:none;stroke-width:10.10152531;stroke-linecap:round;stroke-linejoin:round;stroke-miterlimit:4;stroke-dasharray:none;stroke-dashoffset:0;stroke-opacity:1"
         transform="matrix(0.81237643,0,0,0.81237643,10.834461,-34.967202)" />
      <path
         inkscape:connector-curvature="0"
         id="path5447"
         d="m 247.69087,316.58697 c -0.74029,-0.49507 -1.38635,-15.4649 -0.9254,-21.44236 0.3317,-4.30135 0.3482,-4.34097 1.80898,-4.34097 1.36379,0 1.50178,0.20031 1.84198,2.67384 l 0.36774,2.67383 2.48875,-2.21131 c 3.07037,-2.72809 6.12139,-4.17828 8.82303,-4.19369 1.62668,-0.009 2.42985,0.36013 3.83244,1.76273 2.8545,2.85449 3.59258,6.37722 3.37774,16.12144 -0.0995,4.51514 -0.31396,8.34188 -0.47648,8.50386 -0.16251,0.16198 -1.11828,0.362 -2.12392,0.44448 l -1.82843,0.14997 0.16977,-7.50663 c 0.19124,-8.4563 -0.31088,-11.16909 -2.46629,-13.3245 -1.29085,-1.29085 -1.76982,-1.43413 -4.05888,-1.21418 -5.4536,0.52402 -7.83836,5.37767 -7.83836,15.95323 0,4.71406 -0.14753,5.76704 -0.84553,6.03489 -1.07687,0.41323 -1.42307,0.39959 -2.14714,-0.0846 z"
         style="opacity:1;fill:#7af4f8;fill-opacity:1;stroke:none;stroke-width:10.10152531;stroke-linecap:round;stroke-linejoin:round;stroke-miterlimit:4;stroke-dasharray:none;stroke-dashoffset:0;stroke-opacity:1"
         transform="matrix(0.81237643,0,0,0.81237643,10.834461,-34.967202)" />
      <path
         id="path5573"
         d="m 212.10168,237.52746 a 6.9195064,6.9195064 0 0 0 1.65568,9.64451 6.9195064,6.9195064 0 0 0 9.64452,-1.65567 6.9195064,6.9195064 0 0 0 1.16578,-2.83837 l 4.64726,5.93105 3.40659,-2.13361 -4.71409,-6.12918 a 6.9195064,6.9195064 0 0 0 5.82204,-2.91771 6.9195064,6.9195064 0 0 0 -1.65567,-9.6445 6.9195064,6.9195064 0 0 0 -9.64452,1.65567 6.9195064,6.9195064 0 0 0 -0.86517,6.31265 6.9195064,6.9195064 0 0 0 -9.46242,1.77516 z m 2.62303,1.80025 a 3.822547,3.822547 0 0 1 5.32797,-0.91465 3.822547,3.822547 0 0 1 0.91465,5.32795 3.822547,3.822547 0 0 1 -5.32797,0.91468 3.822547,3.822547 0 0 1 -0.91465,-5.32798 z m 10.28241,-8.11938 a 3.822547,3.822547 0 0 1 5.32799,-0.91464 3.822547,3.822547 0 0 1 0.91464,5.32797 3.822547,3.822547 0 0 1 -5.32796,0.91465 3.822547,3.822547 0 0 1 -0.91467,-5.32798 z"
         style="opacity:1;fill:#7257f6;fill-opacity:1;stroke:none;stroke-width:3.93693018;stroke-linecap:round;stroke-linejoin:round;stroke-miterlimit:4;stroke-dasharray:none;stroke-dashoffset:0;stroke-opacity:1"
         inkscape:connector-curvature="0"
         transform="matrix(1.1636266,0,0,1.1636266,-75.623809,-113.83142)" />
    </g>
    <path
       style="opacity:1;fill:#fde94e;fill-opacity:1;stroke:none;stroke-width:1.71521175;stroke-linecap:round;stroke-linejoin:round;stroke-miterlimit:4;stroke-dasharray:none;stroke-dashoffset:0;stroke-opacity:1"
       d="m 113.26028,230.68899 c 0,25.82441 -25.814673,50.88448 -50.734404,44.10907 -9.747155,-2.65012 -13.068261,-1.08271 -20.838057,-6.835 -1.8048,-1.33616 -22.061007,7.4701 -23.653501,5.89343 -2.065616,-2.0451 7.888859,-20.8014 6.98908,-23.57485 -1.778473,-5.48202 -4.719921,-9.39535 -5.281553,-19.59265 -1.420149,-25.78534 26.288051,-46.42456 52.059497,-44.77163 25.824415,1.65634 41.458938,18.94722 41.458938,44.77163 z"
       id="path2611"
       inkscape:connector-curvature="0"
       sodipodi:nodetypes="ssssssss" />
    <g
       id="g2632"
       transform="matrix(1.2394493,0,0,1.2394493,-196.52496,-3.5955453)">
      <path
         transform="matrix(0.81237643,0,0,0.81237643,10.834461,-34.967202)"
         d="m 242.66794,283.58272 q 0.35831,-0.14333 0.64496,-0.21499 0.28665,-0.14332 0.64496,-0.28665 0.50164,-2.8665 0.5733,-5.73299 0.14333,-2.8665 0.0717,-5.66133 -0.0717,-2.8665 -0.21499,-5.73299 -0.0717,-2.8665 -0.0717,-5.733 0,-2.57984 0.14333,-5.80465 0.21499,-3.22481 0.28665,-6.44962 0.0717,-3.29647 -0.0717,-6.37795 -0.0717,-3.15314 -0.64496,-5.58967 -1.64824,-0.21498 -3.29647,-0.14332 -1.57658,0 -3.22481,0.0717 0.21498,1.79156 0,3.58312 -0.35831,2.43652 -0.35831,4.87304 0,2.36486 -0.0717,4.80139 0,1.43324 0.0717,2.86649 0.0717,1.43325 -0.0717,2.8665 -4.44307,-1.57658 -8.74282,-0.35831 -4.22808,1.21826 -7.59621,4.51473 -3.29647,3.2248 -4.51473,6.87959 -1.21826,3.65478 -0.78829,7.02291 0.42998,3.29647 2.2932,6.01964 1.86322,2.65151 4.72972,4.0131 2.93815,1.28992 6.6646,1.00327 3.72644,-0.28665 7.8112,-3.00982 0.0717,0.50164 0.0717,1.00327 0,0.50164 0.14333,1.00328 0.21498,0.85995 0.85995,1.1466 0.64496,0.21498 1.50491,0.21498 0.85994,-0.0717 1.71989,-0.28665 0.85995,-0.28665 1.43325,-0.50163 z m -0.42998,-1.36159 q -0.28665,0.0717 -0.78828,0.21499 -0.50164,0.14332 -1.07494,0.28665 -0.50164,0.0717 -1.00327,0.14332 -0.50164,0.0717 -0.71663,0 -0.14332,-0.14332 -0.21498,-0.71662 -0.0717,-0.64496 -0.14333,-1.36159 0,-0.78828 -0.0717,-1.43324 -0.0717,-0.71663 -0.0717,-0.93162 l -1.00327,0.71663 q -3.86977,2.79483 -7.38123,3.36813 -3.51146,0.50164 -6.23463,-0.64496 -2.72317,-1.1466 -4.51473,-3.51146 -1.7199,-2.43652 -2.14987,-5.518 -0.42998,-3.08149 0.71662,-6.37796 1.1466,-3.36813 4.15642,-6.37795 2.50819,-2.43652 5.87632,-3.72644 3.36813,-1.36159 6.80793,-0.71663 1.00327,0.14333 1.86322,0.50164 0.93161,0.28665 1.93488,0.64496 0.21499,-1.07494 0.28665,-2.07821 0.0717,-1.07494 0.0717,-2.22153 -0.0717,-3.22481 -0.0717,-6.37796 0,-3.22481 0.42998,-6.44961 0.0717,-0.5733 0.0717,-1.1466 0.0717,-0.5733 0.0717,-1.1466 0.93161,-0.0717 1.86322,-0.0717 0.93161,-0.0717 1.93489,0 0.35831,1.86322 0.35831,4.72972 0.0717,2.79483 0,6.01964 -0.14333,3.43979 -0.28665,6.73626 -0.0717,3.29647 -0.0717,5.44634 0,5.51801 0.28665,10.96435 0.35831,5.44634 -0.50164,10.89269 -0.28665,0.14332 -0.42997,0.14332 z m -8.88613,-20.92542 q 0.93161,-0.0717 1.71989,0.0717 0.78829,0.0717 1.50491,0.50164 0.21499,1.00327 0.28665,2.57985 0.14333,1.50491 0.0717,3.2248 0,1.64824 -0.14332,3.15315 -0.14333,1.50491 -0.42998,2.43652 -0.14332,0.50164 -1.28992,1.1466 -1.07494,0.64496 -2.57985,1.1466 -1.50491,0.42997 -3.29647,0.5733 -1.71989,0.14332 -3.15314,-0.28665 -1.43325,-0.50164 -2.36486,-1.79156 -0.85995,-1.28993 -0.64496,-3.65478 0.14332,-1.93489 1.00327,-3.51146 0.93161,-1.64824 2.36486,-2.8665 1.43325,-1.21826 3.22481,-1.86322 1.79156,-0.71662 3.72644,-0.85995 z m -0.14333,-1.43325 q -2.07821,0.14333 -4.08476,0.93161 -2.00654,0.78829 -3.65478,2.14988 -1.57657,1.28992 -2.65151,3.2248 -1.07493,1.86323 -1.21826,4.08476 -0.21498,2.8665 0.85995,4.44307 1.07494,1.57657 2.72317,2.2932 1.7199,0.71662 3.79811,0.64496 2.07821,-0.14333 3.94143,-0.64496 1.86322,-0.5733 3.22481,-1.43325 1.36159,-0.93161 1.64823,-1.86322 0.28665,-1.07494 0.42998,-2.79484 0.21499,-1.7199 0.21499,-3.51146 0,-1.86322 -0.14333,-3.58312 -0.14332,-1.71989 -0.42997,-2.79483 -1.1466,-0.78829 -2.22154,-1.00327 -1.07493,-0.21499 -2.43652,-0.14333 z"
         style="font-style:normal;font-variant:normal;font-weight:normal;font-stretch:normal;font-size:medium;line-height:1.25;font-family:PlaytimeWithHotToddies3D;-inkscape-font-specification:PlaytimeWithHotToddies3D;letter-spacing:0px;word-spacing:0px;fill:#7257f6;fill-opacity:1;stroke:none;stroke-width:1.79155993"
         id="path2614"
         inkscape:connector-curvature="0" />
      <path
         transform="matrix(0.81237643,0,0,0.81237643,10.834461,-34.967202)"
         d="m 259.35061,285.48829 q 1.86322,-0.0717 3.51146,-0.5733 1.64823,-0.5733 3.29647,-1.07494 0.35831,0.64497 0.85995,1.1466 0.5733,0.50164 0.93161,1.1466 1.28992,0 2.50818,-0.21499 1.28993,-0.14332 2.50819,-0.28665 v -0.64496 q 0,-1.64823 0.0717,-3.15314 0.14332,-1.57658 0.14332,-3.22481 l -0.21499,0.50164 0.28665,-0.28665 q 0.0717,-2.22154 0.21499,-5.08803 0.21499,-2.93816 0.14333,-5.94798 -0.0717,-3.00982 -0.5733,-5.73299 -0.50164,-2.79484 -1.86323,-4.72972 -1.79156,-2.57985 -4.01309,-3.72645 -2.14987,-1.1466 -4.44307,-1.21826 -2.22153,-0.0717 -4.51473,0.78829 -2.22153,0.85995 -4.15642,2.36486 -1.86322,1.43324 -3.36813,3.29647 -1.50491,1.86322 -2.2932,3.86977 1.1466,0.5733 1.93489,1.43324 0.78828,0.78829 2.00654,1.21827 0.93161,-1.1466 1.86323,-2.22154 1.00327,-1.1466 2.29319,-2.00655 1.07494,-0.71662 2.43652,-1.07493 1.36159,-0.35831 2.57985,-0.28665 1.28992,0 2.22153,0.64496 1.00328,0.5733 1.36159,1.79156 0.35831,0.93161 0.35831,1.93488 0,0.93162 0,1.93489 -1.57657,0.21499 -3.15314,0.28665 -1.50491,0 -3.08149,0.21499 -1.57657,0.21498 -3.58312,0.93161 -2.00654,0.71662 -3.86977,1.86322 -1.79156,1.1466 -3.08148,2.8665 -1.21826,1.64823 -1.21826,3.7981 0,2.79484 0.93161,4.65806 0.93161,1.79156 2.50818,2.93816 1.64824,1.07493 3.72645,1.50491 2.07821,0.42997 4.44307,0.42997 h 0.14332 z m 12.3976,-7.16624 v 0.28665 q 0,1.43325 -0.0717,2.8665 -0.0717,1.43324 -0.14333,2.86649 -0.71662,0.0717 -1.43325,0.21499 -0.64496,0.0717 -1.36158,0.14332 -0.35831,-0.42997 -0.5733,-0.64496 -0.21499,-0.21499 -0.42998,-0.42997 -0.14332,-0.21499 -0.28664,-0.50164 -0.14333,-0.35831 -0.21499,-1.00327 -1.93489,0.50163 -3.94143,1.21826 -2.00655,0.71662 -4.08476,0.71662 h -0.14333 l -0.14332,0.0717 q -2.22153,0 -4.08476,-0.35831 -1.86322,-0.42997 -3.22481,-1.36158 -1.28992,-0.93161 -2.00654,-2.50819 -0.71663,-1.57657 -0.71663,-3.86977 0,-1.71989 1.00328,-3.08148 1.07493,-1.36159 2.65151,-2.36486 1.57657,-1.00327 3.43979,-1.64823 1.86322,-0.64497 3.51146,-0.93162 1.86322,-0.35831 3.65478,-0.35831 1.86322,0 3.72645,-0.35831 -0.0717,-1.36159 -0.0717,-2.72317 0.0717,-1.43325 -0.28665,-2.79483 -0.5733,-1.86323 -2.00655,-2.65151 -1.36159,-0.78829 -3.00982,-0.78829 -1.57657,-0.0717 -3.22481,0.42997 -1.57657,0.50164 -2.65151,1.21827 -1.07493,0.71662 -2.00655,1.64823 -0.85994,0.93161 -1.64823,1.93489 -0.50164,-0.35832 -0.93161,-0.71663 -0.35831,-0.42997 -0.85995,-0.78828 1.28992,-2.93816 3.79811,-5.01637 2.50818,-2.07821 5.37468,-2.72317 2.93815,-0.71663 5.80465,0.14332 2.8665,0.85995 4.87304,3.72645 1.1466,1.71989 1.57658,4.29974 0.50163,2.57985 0.5733,5.44634 0.0717,2.79484 -0.14333,5.58967 -0.14332,2.72317 -0.21499,4.72972 z m -12.18261,-5.37468 q 2.00655,-0.71662 3.72644,-0.85995 1.79156,-0.21499 2.57985,0 0,1.21826 0,2.43652 0.0717,1.1466 -0.21499,2.36486 -0.0717,0.35831 -1.57657,0.71663 -1.50491,0.28665 -3.36813,0.42997 -1.79156,0.0717 -3.4398,-0.0717 -1.64823,-0.21499 -1.93488,-0.93161 -0.28665,-0.78829 0.14332,-1.43325 0.42998,-0.71663 1.1466,-1.21826 0.71662,-0.5733 1.50491,-0.93161 0.85995,-0.35832 1.43325,-0.50164 z m -0.50164,-1.36159 q -0.85995,0.28665 -1.93488,0.78829 -1.07494,0.50164 -1.93489,1.28992 -0.78828,0.71663 -1.21826,1.7199 -0.35831,0.93161 0.0717,2.07821 0.28665,0.85995 1.28992,1.28992 1.07494,0.42998 2.43653,0.64497 1.43324,0.14332 3.00982,0.0717 1.57657,-0.14333 2.93816,-0.42998 1.36158,-0.28665 2.29319,-0.78828 0.93161,-0.50164 1.07494,-1.07494 0.28665,-1.43325 0.21499,-2.79483 0,-1.36159 0,-2.79484 v -0.35831 q -0.78829,-0.50163 -1.93489,-0.5733 -1.07494,-0.14332 -2.2932,0 -1.14659,0.14333 -2.22153,0.42998 -1.07494,0.28665 -1.79156,0.50163 z"
         style="font-style:normal;font-variant:normal;font-weight:normal;font-stretch:normal;font-size:medium;line-height:1.25;font-family:PlaytimeWithHotToddies3D;-inkscape-font-specification:PlaytimeWithHotToddies3D;letter-spacing:0px;word-spacing:0px;fill:#7257f6;fill-opacity:1;stroke:none;stroke-width:1.79155993"
         id="path2616"
         inkscape:connector-curvature="0" />
      <path
         transform="matrix(0.81237643,0,0,0.81237643,10.834461,-34.967202)"
         d="m 266.66083,318.43034 q 0.78829,-0.14332 1.50491,-0.28665 0.78829,-0.14332 1.57657,-0.28665 0.50164,-0.85995 0.71663,-2.00655 0.28665,-1.21826 0.42997,-2.43652 0.14333,-1.21826 0.21499,-2.43652 0.0717,-1.21826 0.0717,-2.22153 0.0717,-3.65479 -0.0717,-7.45289 -0.0717,-3.79811 -1.50491,-7.23791 -1.43325,-3.43979 -3.65478,-4.80138 -2.14987,-1.36158 -4.5864,-1.21826 -2.43652,0.0717 -4.9447,1.43325 -2.43652,1.28992 -4.37141,3.15315 -0.14332,-1.00328 -0.35831,-1.86323 -0.14332,-0.85994 -0.42997,-1.71989 -0.50164,-0.0717 -1.28993,-0.0717 -0.71662,-0.0717 -1.50491,0 -0.78828,0.0717 -1.50491,0.21499 -0.64496,0.0717 -1.07493,0.35831 -0.35832,0.21499 -0.50164,0.85995 -0.0717,0.5733 -0.14333,0.93161 -0.28665,3.08149 -0.28665,6.23463 0,3.15315 0,6.37796 0.0717,3.2248 0.14333,6.44961 0.0717,3.15315 0,6.23463 0.42997,0.93161 1.28992,1.28992 0.85995,0.35832 1.86322,0.42998 1.00328,0.0717 2.07821,-0.0717 1.07494,-0.0717 1.86323,-0.0717 v -0.71662 q 0,-4.08476 0,-8.16951 0.0717,-4.15642 1.07493,-8.16952 0.42998,-1.79156 1.86323,-3.22481 1.43324,-1.43324 3.00982,-1.79156 1.64823,-0.42997 3.08148,0.64497 1.43325,1.00327 2.00655,4.08475 0.35831,2.07821 0.35831,4.15642 0.0717,2.07821 -0.0717,4.22808 -0.0717,2.07821 -0.21499,4.22808 -0.14332,2.07821 -0.21499,4.15642 0.93161,0.5733 1.7199,0.71663 0.78828,0.21498 1.86322,0.0717 z m -19.85048,-27.80501 q 0.50163,-0.14333 1.50491,-0.21499 1.00327,-0.0717 1.79156,-0.0717 0.5733,2.07821 0.5733,3.94143 v 1.86322 q 1.00327,-1.14659 2.36486,-2.36486 1.43324,-1.28992 3.00982,-2.29319 1.64823,-1.07494 3.36813,-1.64824 1.7199,-0.5733 3.29647,-0.35831 1.64823,0.21499 3.08148,1.43325 1.43325,1.1466 2.50818,3.72644 0.64497,1.57658 0.93162,3.29647 0.35831,1.7199 0.50163,3.58312 0.0717,1.21826 0.0717,3.36814 0,2.07821 -0.0717,4.3714 -0.0717,2.22154 -0.28665,4.29975 -0.21498,2.00654 -0.64496,3.00982 -1.07493,0.14332 -2.14987,0.42997 -1.07494,0.28665 -2.14987,-0.21498 0.0717,-2.00655 0.21499,-4.0131 0.14332,-2.07821 0.21498,-4.08476 0.14333,-2.00654 0.0717,-4.01309 0,-2.07821 -0.35831,-4.08476 -0.64496,-3.65478 -2.50818,-4.9447 -1.86322,-1.36159 -3.94143,-1.00328 -2.07821,0.35832 -3.94144,2.07821 -1.79156,1.7199 -2.43652,4.15642 -1.00327,3.86977 -1.07493,7.88287 0,4.01309 0,8.09785 -0.35832,0 -1.00328,0.0717 -0.5733,0.0717 -1.21826,0.0717 -0.64496,-0.0717 -1.21826,-0.14332 -0.5733,-0.14333 -0.78828,-0.50164 0.14332,-5.87632 -0.0717,-11.75263 -0.21499,-5.87632 0.14332,-11.75264 0,-1.07493 0.21499,-2.14987 z"
         style="font-style:normal;font-variant:normal;font-weight:normal;font-stretch:normal;font-size:medium;line-height:1.25;font-family:PlaytimeWithHotToddies3D;-inkscape-font-specification:PlaytimeWithHotToddies3D;letter-spacing:0px;word-spacing:0px;fill:#7257f6;fill-opacity:1;stroke:none;stroke-width:1.79155993"
         id="path2618"
         inkscape:connector-curvature="0" />
      <path
         transform="matrix(0.81237643,0,0,0.81237643,10.834461,-34.967202)"
         d="m 298.23484,305.88942 q -1.64824,-1.86322 -3.00982,-3.58312 -1.36159,-1.7199 -2.00655,-3.08148 0.71662,-0.64496 2.22153,-1.93489 1.50492,-1.28992 3.00983,-2.72317 1.57657,-1.50491 2.86649,-2.79483 1.28992,-1.28993 1.50491,-1.93489 -0.14332,-0.50163 -0.50163,-1.1466 -0.28665,-0.64496 -0.78829,-1.28992 -0.50164,-0.64496 -1.07494,-1.07493 -0.5733,-0.42998 -1.1466,-0.50164 -0.78828,-0.0717 -2.00654,0.71662 -1.21826,0.71663 -2.50819,1.7199 -1.28992,1.00327 -2.36486,2.00655 -1.07493,0.93161 -1.50491,1.28992 -1.64823,1.43325 -3.36813,3.00982 -1.64823,1.50491 -3.51146,2.72317 0,-1.43325 0.0717,-3.72644 0.14332,-2.36486 0.21498,-5.08803 0.0717,-2.79484 0.14333,-5.66133 0.0717,-2.8665 0,-5.44634 0,-2.65151 -0.14333,-4.72972 -0.14332,-2.07821 -0.42997,-3.22481 -1.00328,-0.93161 -1.86322,-1.00327 -0.78829,-0.0717 -2.00655,0 l -2.43652,1.07493 q -0.5733,4.29975 -0.78829,8.45616 -0.14332,4.15642 -0.21499,8.52783 -0.14332,4.72972 -0.14332,9.38777 0,4.5864 0.14332,9.31612 0.14333,2.86649 -0.14332,5.66133 -0.21499,2.72317 0.28665,5.518 0.64496,0.85995 1.28992,1.00327 0.64496,0.14333 1.64824,0.28665 0.85995,0.14333 1.64823,0.28665 0.85995,0.0717 1.50491,-0.14332 0.64496,-0.21499 1.00328,-0.85995 0.35831,-0.64496 0.35831,-2.07821 -0.0717,-1.93488 -0.14333,-3.79811 0,-1.93488 -0.0717,-3.86977 0.35831,-0.78828 1.1466,-1.36158 0.78829,-0.5733 1.64823,-0.93161 1.93489,0.93161 3.65479,3.15314 1.79156,2.14987 3.58312,4.37141 1.79156,2.22153 3.65478,3.94143 1.93488,1.64824 4.08476,1.64824 0.42997,0 0.71662,-0.14333 0.35831,-0.14332 0.71662,-0.28665 0.93162,-0.50164 1.79156,-1.07493 0.85995,-0.64497 1.28993,-1.64824 -0.21499,-0.35831 -0.42998,-0.64496 -0.21498,-0.28665 -0.50163,-0.5733 -1.79156,-1.93489 -3.58312,-3.86977 -1.79156,-1.93488 -3.51146,-3.86977 z m -1.07494,0.93161 q 1.79156,2.00655 3.51146,3.86977 1.79156,1.86322 2.93816,3.15315 0.21499,0.28665 0.50164,0.5733 0.28664,0.21498 0.50163,0.50163 -0.14332,0.14333 -0.5733,0.42998 -0.35831,0.28665 -0.85995,0.5733 -0.42997,0.28665 -0.85994,0.50163 -0.35832,0.14333 -0.5733,0.14333 -1.1466,0 -2.36486,-0.78829 -1.1466,-0.85995 -2.36486,-2.07821 -1.21826,-1.28992 -2.43652,-2.86649 -1.21826,-1.57658 -2.50819,-3.00982 -1.28992,-1.50492 -2.65151,-2.72318 -1.28992,-1.21826 -2.65151,-1.79156 -1.28992,0.50164 -2.50818,1.36159 -1.1466,0.78829 -1.7199,2.22153 l 0.21499,7.95453 q 0,1.07494 -0.21499,1.36159 -0.14332,0.21498 -0.28665,0.21498 -0.21498,0.0717 -0.85995,0.0717 -0.57329,-0.0717 -1.28992,-0.14333 -0.71662,-0.14332 -1.36158,-0.28665 -0.5733,-0.14332 -0.71663,-0.28665 -0.35831,-2.65151 -0.14332,-5.30302 0.28665,-2.6515 0.14332,-5.30301 -0.14332,-4.72972 -0.14332,-9.31612 0,-4.65805 0.14332,-9.38777 0.0717,-4.01309 0.21499,-7.95453 0.14332,-4.01309 0.64496,-8.02618 l 1.43325,-0.64497 q 0.5733,0 1.1466,0 0.64496,0 1.1466,0.35832 0.35831,1.43324 0.35831,5.15969 0.0717,3.65478 0,8.09785 -0.0717,2.2932 -0.14333,4.58639 -0.0717,2.22154 -0.14332,4.22808 0,1.93489 -0.0717,3.58312 0,1.64824 0,2.65151 v 1.00328 l 0.93161,-0.28665 q 0.85995,-0.28665 2.14987,-1.28993 1.36158,-1.00327 2.86649,-2.29319 1.57658,-1.36159 3.22481,-2.8665 1.64824,-1.50491 3.08149,-2.72317 1.50491,-1.28992 2.6515,-2.07821 1.1466,-0.78829 1.64824,-0.71662 0.42997,0.0717 1.1466,0.93161 0.71662,0.78828 1.00327,1.50491 -0.35831,0.42997 -1.50491,1.57657 -1.1466,1.07494 -2.65151,2.50818 -1.43325,1.28993 -2.86649,2.57985 -1.36159,1.21826 -2.79484,2.50819 0.85995,2.14987 2.50819,4.22808 1.64823,2.07821 3.15314,3.72644 z"
         style="font-style:normal;font-variant:normal;font-weight:normal;font-stretch:normal;font-size:medium;line-height:1.25;font-family:PlaytimeWithHotToddies3D;-inkscape-font-specification:PlaytimeWithHotToddies3D;letter-spacing:0px;word-spacing:0px;fill:#7257f6;fill-opacity:1;stroke:none;stroke-width:1.79155993"
         id="path2620"
         inkscape:connector-curvature="0" />
      <path
         transform="matrix(0.81237643,0,0,0.81237643,10.834461,-34.967202)"
         style="opacity:1;fill:#7af4f8;fill-opacity:1;stroke:none;stroke-width:5.05076265;stroke-linecap:round;stroke-linejoin:round;stroke-miterlimit:4;stroke-dasharray:none;stroke-dashoffset:0;stroke-opacity:1"
         d="m 300.71199,316.24111 c -1.29798,-0.32815 -3.61071,-2.45162 -6.33788,-5.8192 -2.54183,-3.13873 -4.94805,-5.60465 -6.41846,-6.57772 l -1.11279,-0.73641 -1.46095,0.7649 c -0.80353,0.4207 -1.78317,1.18789 -2.17698,1.70485 -0.71545,0.93917 -0.71603,0.94389 -0.71603,5.77042 v 4.83048 l -1.11998,0.0814 c -0.61598,0.0448 -1.59622,-0.0468 -2.17831,-0.20358 -1.00632,-0.27097 -1.06293,-0.34271 -1.15181,-1.45966 -0.21115,-2.65326 0.27247,-37.14648 0.56615,-40.37949 0.36488,-4.01685 0.48417,-4.20872 2.54136,-4.08745 l 1.3301,0.0784 0.2235,1.20271 c 0.12292,0.6615 0.14349,7.24635 0.0457,14.63301 -0.12194,9.21114 -0.0907,13.43029 0.0994,13.43029 1.13837,0 3.93697,-2.06293 9.26555,-6.82994 3.75148,-3.35612 6.15763,-5.19719 6.79235,-5.19719 0.49488,0 2.16118,1.58459 2.16118,2.05519 0,0.33485 -3.83592,4.11593 -7.2831,7.17899 -1.28623,1.14291 -2.3386,2.14963 -2.3386,2.23716 0,0.40538 1.53255,2.98092 2.60729,4.38172 1.28635,1.67659 5.45297,6.36189 8.39695,9.44225 1.00358,1.05007 1.82469,2.02319 1.82469,2.16249 0,0.13931 -0.57129,0.55501 -1.26953,0.9238 -1.08843,0.57487 -1.41507,0.63372 -2.28984,0.41256 z"
         id="path2622"
         inkscape:connector-curvature="0" />
      <path
         transform="matrix(0.81237643,0,0,0.81237643,10.834461,-34.967202)"
         style="opacity:1;fill:#7af4f8;fill-opacity:1;stroke:none;stroke-width:10.10152531;stroke-linecap:round;stroke-linejoin:round;stroke-miterlimit:4;stroke-dasharray:none;stroke-dashoffset:0;stroke-opacity:1"
         d="m 238.64125,280.69154 c 0,-2.40304 -0.38509,-2.50507 -3.08422,-0.81712 -6.97256,4.3604 -14.0001,2.89999 -17.33374,-3.60219 -4.27375,-8.33584 3.78094,-20.2455 13.73622,-20.31038 1.76398,-0.0115 3.989,0.18252 4.94449,0.43114 l 1.73725,0.45205 0.004,-6.08038 c 0.002,-3.34421 0.15714,-7.70405 0.34456,-9.68852 l 0.34078,-3.60814 h 1.79358 1.79359 v 21.54666 c 0,23.18984 0.0233,22.99478 -2.80633,23.48581 -1.39386,0.24189 -1.46998,0.14822 -1.46998,-1.80893 z m -4.47541,-3.99227 c 3.6494,-1.29493 4.08847,-2.14461 4.3238,-8.3673 0.24398,-6.45169 -0.27614,-7.91641 -3.00968,-8.47548 -2.49709,-0.51071 -7.37461,0.83879 -9.66765,2.67481 -4.38269,3.5092 -5.71454,9.65883 -2.79863,12.92229 2.306,2.58087 6.17228,3.01272 11.15216,1.24568 z"
         id="path2624"
         inkscape:connector-curvature="0" />
      <path
         transform="matrix(0.81237643,0,0,0.81237643,10.834461,-34.967202)"
         style="opacity:1;fill:#7af4f8;fill-opacity:1;stroke:none;stroke-width:10.10152531;stroke-linecap:round;stroke-linejoin:round;stroke-miterlimit:4;stroke-dasharray:none;stroke-dashoffset:0;stroke-opacity:1"
         d="m 267.7748,283.13134 c -0.81115,-1.15808 -0.85042,-1.16093 -3.68543,-0.26727 -3.45743,1.08986 -8.32353,1.16976 -10.6732,0.17525 -2.71066,-1.1473 -3.74297,-2.68444 -4.0163,-5.98034 -0.23744,-2.86334 -0.18305,-3.0084 1.85103,-4.9362 2.606,-2.46984 6.36837,-3.84171 11.62662,-4.23939 l 4.05293,-0.30652 v -3.10027 c 0,-3.94112 -1.35323,-5.75734 -4.61573,-6.19493 -2.90986,-0.39029 -5.74177,0.59857 -8.27918,2.89097 -2.52429,2.28054 -4.1888,2.14049 -2.93829,-0.24723 1.98802,-3.79592 6.49564,-6.55771 10.70311,-6.55771 4.71944,0 7.85965,2.27273 9.1517,6.62354 0.82872,2.79059 1.11334,15.98602 0.44932,20.83062 -0.29272,2.13558 -0.51123,2.48003 -1.57331,2.48003 -0.67836,0 -1.60233,-0.52675 -2.05327,-1.17055 z m -1.75613,-4.85534 c 1.30418,-0.85462 1.44632,-1.26076 1.44632,-4.13249 0,-2.95557 -0.0966,-3.20899 -1.34319,-3.52185 -3.28093,-0.82346 -10.22955,1.39113 -11.7775,3.7536 -1.12116,1.71111 -0.65567,3.90392 0.97592,4.59732 1.98296,0.84272 9.0518,0.38247 10.69845,-0.69658 z"
         id="path2626"
         inkscape:connector-curvature="0" />
      <path
         transform="matrix(0.81237643,0,0,0.81237643,10.834461,-34.967202)"
         style="opacity:1;fill:#7af4f8;fill-opacity:1;stroke:none;stroke-width:10.10152531;stroke-linecap:round;stroke-linejoin:round;stroke-miterlimit:4;stroke-dasharray:none;stroke-dashoffset:0;stroke-opacity:1"
         d="m 247.69087,316.58697 c -0.74029,-0.49507 -1.38635,-15.4649 -0.9254,-21.44236 0.3317,-4.30135 0.3482,-4.34097 1.80898,-4.34097 1.36379,0 1.50178,0.20031 1.84198,2.67384 l 0.36774,2.67383 2.48875,-2.21131 c 3.07037,-2.72809 6.12139,-4.17828 8.82303,-4.19369 1.62668,-0.009 2.42985,0.36013 3.83244,1.76273 2.8545,2.85449 3.59258,6.37722 3.37774,16.12144 -0.0995,4.51514 -0.31396,8.34188 -0.47648,8.50386 -0.16251,0.16198 -1.11828,0.362 -2.12392,0.44448 l -1.82843,0.14997 0.16977,-7.50663 c 0.19124,-8.4563 -0.31088,-11.16909 -2.46629,-13.3245 -1.29085,-1.29085 -1.76982,-1.43413 -4.05888,-1.21418 -5.4536,0.52402 -7.83836,5.37767 -7.83836,15.95323 0,4.71406 -0.14753,5.76704 -0.84553,6.03489 -1.07687,0.41323 -1.42307,0.39959 -2.14714,-0.0846 z"
         id="path2628"
         inkscape:connector-curvature="0" />
      <path
         transform="matrix(1.1636266,0,0,1.1636266,-75.623809,-113.83142)"
         inkscape:connector-curvature="0"
         style="opacity:1;fill:#7257f6;fill-opacity:1;stroke:none;stroke-width:3.93693018;stroke-linecap:round;stroke-linejoin:round;stroke-miterlimit:4;stroke-dasharray:none;stroke-dashoffset:0;stroke-opacity:1"
         d="m 212.10168,237.52746 a 6.9195064,6.9195064 0 0 0 1.65568,9.64451 6.9195064,6.9195064 0 0 0 9.64452,-1.65567 6.9195064,6.9195064 0 0 0 1.16578,-2.83837 l 4.64726,5.93105 3.40659,-2.13361 -4.71409,-6.12918 a 6.9195064,6.9195064 0 0 0 5.82204,-2.91771 6.9195064,6.9195064 0 0 0 -1.65567,-9.6445 6.9195064,6.9195064 0 0 0 -9.64452,1.65567 6.9195064,6.9195064 0 0 0 -0.86517,6.31265 6.9195064,6.9195064 0 0 0 -9.46242,1.77516 z m 2.62303,1.80025 a 3.822547,3.822547 0 0 1 5.32797,-0.91465 3.822547,3.822547 0 0 1 0.91465,5.32795 3.822547,3.822547 0 0 1 -5.32797,0.91468 3.822547,3.822547 0 0 1 -0.91465,-5.32798 z m 10.28241,-8.11938 a 3.822547,3.822547 0 0 1 5.32799,-0.91464 3.822547,3.822547 0 0 1 0.91464,5.32797 3.822547,3.822547 0 0 1 -5.32796,0.91465 3.822547,3.822547 0 0 1 -0.91467,-5.32798 z"
         id="path2630" />
    </g>
  </g>
</svg>
