<?xml version="1.0" encoding="utf-8"?>
<!-- Generator: Adobe Illustrator 22.1.0, SVG Export Plug-In . SVG Version: 6.00 Build 0)  -->
<svg version="1.1" id="Layer_1" xmlns="http://www.w3.org/2000/svg" xmlns:xlink="http://www.w3.org/1999/xlink" x="0px" y="0px"
	 viewBox="0 0 278 376" style="enable-background:new 0 0 278 376;" xml:space="preserve">
<style type="text/css">
	.st0{fill:#AB26E0;}
</style>
<path class="st0" d="M276.1,355.1l-38.7-59.7c-2-3-2-6.9-0.1-10l23.9-38.9c1.8-1.8,6.8-11,11.1-19.2c1.6-3,1.4-6.7,0.4-9.9
	c-3.6-11.1-7.6-35.7-11.7-60.4l0,0l0,0c-3.5-21.1-7-42.3-10.2-55.1c-0.1-0.4-0.2-0.7-0.3-1l-16-86.7c-0.7-3.9-3.9-7-7.8-7.6
	l-39.1-5.7c-4-0.6-7.9,1.5-9.7,5.1L137,88.6c-4.6,6.8-7.4,6.9-9.1,3.1c0.7-4.3,0.9-9,0.5-14.6c-1.3-22.7-8.7-39.8-22.2-51.1
	c-13.4-11.3-31.9-16.3-55.5-15L9.3,13.3c-5.1,0.3-9.1,4.7-8.8,9.8l5.3,109.8c0.1,1.2,0.4,2.4,0.9,3.5c-2.2,12.8-0.4,62,1.5,75.1
	c0.9,5.7-1.8,14.1-3.7,19.8c-0.8,2.4-1.4,4.3-1.5,5.3c-0.2,1.1-0.2,2.2,0,3.4l24,122.5c1,5.1,5.9,8.4,11,7.4l16.2-3.2
	c5.1-1,8.4-5.9,7.4-11l-10.9-55.8c-1.6-8.2-4.5-19.8-8.6-34.8c1.1,0.6,2.2,1.2,3.2,1.9l66.2,83.4c2.2,2.7,5.7,4,9.1,3.4l36.3-7.1
	c0.3-0.1,0.5-0.1,0.8-0.2l1.3,20.8c0.3,5.2,4.8,9.1,9.9,8.7l21.2-1.3c5.2-0.3,9.1-4.8,8.7-9.9l-2.2-35c-0.2-2.9,1.2-5.8,3.6-7.5
	c4-2.7,9.5-1.6,12,2.6l25,41.7c1.8,3,5.1,4.7,8.6,4.5l23.1-1.5C276,369.1,280,361.1,276.1,355.1z M114.2,289.1
	c-13,1-23.4-36.5-28.6-57.8c-0.1-0.2-0.2-0.5-0.2-0.7c-0.1-0.2-0.1-0.4-0.2-0.6c-0.3-1.1-0.5-1.9-1-1.7c-0.4,0.2-0.2,1,0,1.9
	c0.1,0.4,0.2,0.7,0.2,1.1c2.6,10.8,4,21.7,0.5,24.6c-12.1,10.2-31.5-19.2-41.2-33.9c-0.9-1.4-1.7-2.7-2.5-3.7
	c-8.4-12.5-7.9-56.1,0-56.1c14.5,0,20.6,14.4,26.2,27.9c2.7,6.3,5.2,12.4,8.5,16.7c0.9,1.1,3,6.5,5.2,13.2c0.3,0.7,0.7,1.2,1.1,1.2
	c0.5-0.1,0.6-0.8,0.6-1.8c-0.2-1-0.3-1.9-0.4-2.9c-0.1-0.6-0.2-1.1-0.2-1.6c-1.5-14.5,2.1-28.7,6.4-33.5c13.7-15.3,18-16,18,8.5
	c0,4.9,1.7,17.3,3.8,31.8v0C114.4,250.9,119.7,288.6,114.2,289.1z M185.2,248.1c-3.6,0.1-3.9-4.2-4.3-9.4
	c-0.5-7.8-1.2-17.7-13.4-17.7c-10,0-20.9-24.9-13.5-28c3.9-1.6,12.6,1.8,20.8,5h0c4.3,1.7,8.5,3.3,11.8,4.1
	c3.1,0.8,4.2,13.1,3.7,24.8c0.1,0,0.1,0,0.2,0c0.5,0,0.6-0.8,0.8-1.9c0-0.2,0.1-0.4,0.1-0.6c0.3-6.3,0.9-12.6,1.4-18.1v0l0,0
	c0.5-5,0.9-9.3,1-12.4c0.2-15.3,1.2-61.8,9.2-63.2c8.5-1.4,7.8,27.1,7.3,47.1c-0.2,7-0.3,12.9,0,16.1c0.3,3.7,0.7,11.4,0.8,20.3
	c0.1,0.3,0.3,0.6,0.7,0.6c0.8,0,0.8-1.3,0.8-2.4l0-0.2c0-5.4,0.4-10.7,0.7-15.1v0c0.2-3.3,0.4-6.1,0.4-8c0-0.3,0-0.6,0-0.9l0-0.4
	l0-0.4c0-0.5,0-1,0-1.4l0-0.6l0-0.8l0-1.1c-0.2-7.7-0.4-13.8,3.8-14.4c7.5-1.1,15.2,14.3,15.2,28.6c0,8.2-4.9,42.3-11.7,40.3
	c-5-1.4-7.2-8-7.9-16c-0.1-0.3-0.1-0.6-0.2-0.9l0,0c-0.2-1.3-0.4-2.6-1.1-2.6c-0.1,0-0.1,0-0.2,0.1c-0.1,0-0.2,0.1-0.2,0.2
	c-0.1,0.2-0.2,0.4-0.3,0.6c0,19.6-1.6,42.2-8.2,40.4c-8.8-2.4-11.4-13.5-11.7-26.2c-0.2-0.3-0.4-0.4-0.9-0.4c-0.4-0.1-0.6,0.3-0.7,1
	c-0.1,0.8-0.2,1.6-0.3,2.4c0,0.5-0.1,0.9-0.2,1.3C188.5,243.7,187.1,248,185.2,248.1z M96.8,167.4L96.8,167.4L96.8,167.4
	c-0.5,0.7-0.9,1.3-1.2,1.8c-0.1,0.2-0.3,0.4-0.4,0.6c-0.1,0.2-0.2,0.3-0.2,0.4c-1.1,2-6.1,7.7-8.1,5.5c-1.7-2-3.3-14.1-2.5-19.7
	c0.8-5.7,19.7-18.4,22.2-7.6C107.4,151.9,100.3,162.3,96.8,167.4z M10.5,145.9c2.5-4.5,13.7,8.4,15.2,12.8
	c1.2,3.4,0.3,11.3-2.8,11.3c-1.3,0-3.4,1.2-5.4,2.3c-2.7,1.5-5.4,3.1-6.1,1.6C11.4,173.9,8,150.3,10.5,145.9z M262.3,192.1
	c0.1,2.9,0.1,5.2,0.2,6.4c0.6,7.2-8.2,27.4-14.2,25.8c-11-2.9-13.8-12.4-13.6-21.3c0-1.7,0.4-4.3,1.1-7.3c0.1,0.1,0.3,0.2,0.5,0.3
	c0.5,0.2,1.3-0.1,1.6-1.1c0.3-0.9,0.2-1.8-0.3-2c-0.3-0.1-1,0.3-1.4,0.8c3.1-13,10.5-32.8,16.9-38.4
	C261.3,148.4,262,177.8,262.3,192.1z M184.2,76.9c6.7-15.8,11.2-26.8,13.6-33c1.3-3.2,7-2.4,7.3,1c0,0.5,0.1,1,0.1,1.5
	c0.9,8.7,1.7,15.9,2.4,21.4l1.4,12.7c0.7,6.1-4.6,11.2-10.6,10.3l-6.9-1C185.3,89,181.8,82.6,184.2,76.9z M50.8,43.1l2.2-0.1
	c10.8-0.6,19.1,2.2,24.7,8.4c5.7,6.2,8.9,16,9.7,29.5c0.8,14.4-1.4,25.2-6.6,32.6c-5.2,7.3-13.9,11.2-25.9,11.9
	c-4.9,0.3-9.1-3.5-9.3-8.3l-3.6-64C41.7,47.8,45.6,43.3,50.8,43.1z"/>
</svg>
