<?xml version="1.0" encoding="utf-8"?>
<!-- Generator: Adobe Illustrator 22.1.0, SVG Export Plug-In . SVG Version: 6.00 Build 0)  -->
<svg version="1.1" id="Layer_1" xmlns="http://www.w3.org/2000/svg" xmlns:xlink="http://www.w3.org/1999/xlink" x="0px" y="0px"
	 viewBox="0 0 500 500" style="enable-background:new 0 0 500 500;" xml:space="preserve">
<style type="text/css">
	.st0{fill:#FF0090;}
	.st1{opacity:0.2;fill:#7257F6;}
	.st2{fill:#7257F6;}
</style>
<path class="st0" d="M370.2,305.6c0,36.7-8.2,69.7-24.5,99.1c-16.3,29.4-39.7,52.6-70,69.5c-30.3,16.9-65.6,25.3-105.9,25.3H17.1
	c-4.5,0-8.1-3.6-8.1-8V121.9c0-4.4,3.6-8.1,8.1-8.1h152.6c40.3,0,75.6,8.2,105.9,24.5l4.3,2.3c0,0,0,0,0,0c-0.4,4.6-1,9.4-1.9,14.3
	l-1.6-2.4c-4-6.1,58.6,82.9,52.5,87l-12,48c-6,4.1-103.1-101.8-99-95.8l2.2,3.3l-38.7,26.4c-7.1-1.3-14.6-1.9-22.6-1.9h-16.4
	c-6.8,0-12.4,5.6-12.4,12.4v130.8c0,5.4,1.5,10.4,4,14.7c3.3,5.7,8.6,10.1,14.9,12.5c3.1,1.1,6.5,1.8,9.9,1.8
	c9.5,0,18.3-0.9,26.5-2.7c3.5-0.8,6.9-1.7,10.2-2.9c10.8-3.7,20.2-9.3,28.2-16.8c4.6-4.3,8.5-9.1,11.8-14.4l14.9-10.1l41.4-28
	l3.8,5.7c4.1,6.1,12.2,7.7,18.3,3.6l36.6-24.5c5.6-3.7,7.4-10.9,4.5-16.8c0.7-0.2,1.4-0.4,2.1-0.9c3.2-2.1,7.3-3.6,11.7-5
	C369.7,287.7,370.2,296.5,370.2,305.6z"/>
<path class="st0" d="M357,284c-0.7,0.4-1.3,0.7-2.1,0.9c2.9,5.8,1,13-4.5,16.8l-36.6,24.5c-6.1,4-14.3,2.4-18.3-3.6l-3.8-5.7
	l-41.4,28L235.5,355c5.5-8.9,9.1-19.2,10.9-31.1l41.4-28l3.8,5.7c4.1,6.1,12.2,7.7,18.3,3.6l36.6-24.5c5.6-3.7,7.4-10.9,4.5-16.8
	c0.7-0.2,1.4-0.4,2.1-0.9c3.3-2.1,7.6-3.8,12.2-5.1c1.5,6.9,2.7,13.9,3.5,21.1C364.3,280.4,360.2,282,357,284z"/>
<path class="st1" d="M336.8,44 M448.3,103.1 M287.6,100.4c-3.9,19.7-1.6,39.1-3.6,61.3c0,0,0,0,0,0.1c-0.4,4.6-1,9.4-1.9,14.2
	l-1.6-2.4c-4-6.1-12.2-7.7-18.3-3.6l-36.6,24.5c-6,4.1-7.7,12.3-3.6,18.3l2.2,3.3l-38.7,26.4L134,277.6v99.8
	c3.3,5.7,8.6,10.1,14.9,12.5l97.4-66c-1.8,11.8-5.4,22.2-10.9,31.1l14.9-10.1l41.4-28l3.8,5.7c4.1,6.1,12.2,7.7,18.3,3.6l36.6-24.5
	c5.6-3.7,7.4-10.9,4.5-16.8c0.7-0.2,1.4-0.4,2.1-0.9c3.2-2.1,7.3-3.6,11.7-5c-0.8-7.2-2-14.3-3.5-21.1c5.6-1.6,11.6-2.7,16.8-3.6
	c18.8-3.3,42.3-7.3,64.4-22.1l1.3-0.9 M301.1,252.7c6.1-4.1,18.8-0.2,22.9,5.8c3.5,5.2,16.1,10.6,12,15c2.1,1-7.4-30.1-6-28
	c4.1,6.1-14.9-8.1-21-4c-6.1,4.1-21,14.1-25,8c-3.5-5.2,14.7,30.5,18.9,26.1c-2.1-1-4-2.5-5.3-4.6
	C293.5,264.9,295.1,256.7,301.1,252.7z"/>
<path class="st2" d="M482.2,162.9c-0.8-0.8-1.6-1.6-2.4-2.4c0.2-1,0.3-1.9,0.4-2.9c1-12.4-4.7-27.8-15.8-36.3
	c0.8-15-7.2-29.4-17.7-37.5c-0.8-0.6-1.6-1.2-2.4-1.7l0-0.1c0.2-0.9,0.3-1.9,0.4-2.9c0.8-8.5-1.6-18.2-6.6-25.6
	c-9.4-13.8-29.8-18.5-45-8.3L347,76.1l-0.5,0.3c-2.1-6-2.7-12.6-3.4-19.6c-1.1-10.6-2.5-22.2-10.4-33.9C310.3-10.6,286,0.5,275,7.8
	c-7.4,5-3.8,19.4-0.3,29.9c0.9,2.6,1.7,5,2.5,6.9c3.6,9.7,7.3,19.7,7,29.4c-0.1,1.8-0.2,3.6-0.6,5.3c-3.9,19.7-1.6,39.1-3.6,61.3
	c0,0,0,0,0,0.1c-0.4,4.6-1,9.4-1.9,14.2l-1.6-2.4c-4-6-12.2-7.7-18.3-3.6l-36.6,24.5c-6,4.1-7.7,12.3-3.6,18.3l2.2,3.3l-38.7,26.4
	L130,256.6v106.1c0,5.4,1.5,10.4,4,14.7c3.3,5.7,8.6,10.1,14.9,12.5l97.4-66l41.4-28l3.8,5.7c4.1,6.1,12.2,7.7,18.3,3.6l36.6-24.5
	c5.6-3.7,7.4-10.9,4.5-16.7c0.7-0.2,1.4-0.4,2.1-0.9c3.3-2.1,7.6-3.8,12.2-5.1c5.6-1.6,11.6-2.7,16.8-3.6
	c18.8-3.3,42.3-7.3,64.4-22.1l1.3-0.9c17.6-11.8,38.1-25.7,42.2-42.8c0.5-1.9,0.7-3.7,0.7-5.7C490.8,175.7,488,169,482.2,162.9z
	 M297.5,271c-4.1-6.1-2.4-14.3,3.6-18.3c6.1-4.1,14.3-2.4,18.3,3.6c3.5,5.2,2.8,12-1.3,16.4c-0.7,0.7-1.4,1.4-2.3,1.9
	c-4,2.7-8.9,2.9-13,1C300.8,274.6,298.9,273.1,297.5,271z"/>
</svg>
