<svg width="254" height="116" viewBox="0 0 254 116" fill="none" xmlns="http://www.w3.org/2000/svg">
<path d="M216.624 66.5237C216.624 69.51 216.438 72.4964 216.687 75.4828C217.372 83.8197 219.426 91.9078 221.357 99.9959C222.291 103.853 222.477 107.773 220.298 111.444C218.741 114.119 216.438 115.55 213.386 115.363C210.149 115.177 207.409 113.994 205.852 110.946C205.478 110.262 205.354 109.39 205.292 108.582C204.482 99.5604 203.859 90.539 202.863 81.5177C201.369 67.5191 199.127 53.5827 198.691 39.4597C198.38 29.1941 198.131 18.9284 197.82 8.66281C197.757 6.17417 198.754 4.24547 200.684 2.8145C203.424 0.699159 206.475 -0.296297 209.962 0.0769991C212.515 0.388079 214.258 1.69461 215.254 4.05882C216.375 6.73411 215.939 9.4094 215.69 12.1469C215.254 16.8131 214.943 21.4793 216.064 26.0833C216.562 28.2608 217.807 28.9452 219.675 27.7631C222.166 26.2699 224.532 24.5279 226.712 22.6614C229.389 20.4216 231.755 17.8708 234.371 15.5688C235.865 14.2622 237.484 13.1424 239.103 12.0847C240.784 10.9648 242.714 10.7781 244.458 11.6492C246.451 12.7068 248.381 13.9512 250 15.5066C251.681 17.062 251.556 18.4929 250.311 20.3594C248.007 23.7813 245.018 26.4566 241.594 28.6964C237.048 31.6205 232.378 34.2958 227.77 37.0955C225.529 38.4643 223.349 39.9574 221.17 41.4506C219.551 42.5705 219.302 43.4415 220.236 45.1214C221.481 47.3612 222.976 49.5387 224.408 51.6541C228.082 57.0668 232.627 61.6086 237.297 66.1504C241.407 70.07 245.33 74.3007 248.817 78.718C250.747 81.2066 251.743 84.5041 253.113 87.4282C253.736 88.7348 253.175 89.8547 252.241 90.7879C248.63 94.3964 241.345 95.9518 237.173 91.1612C232.067 85.3129 227.21 79.2157 222.353 73.1808C220.485 70.8788 218.741 68.5146 216.998 66.2126C216.936 66.4615 216.749 66.4615 216.624 66.5237Z" fill="#AB26E0"/>
<path d="M78.3944 106.98C78.8303 104.864 79.3284 100.82 80.5738 97.0872C83.7494 88.0037 85.6797 78.6713 88.1081 69.4011C90.6611 59.571 93.7745 49.8653 96.452 40.0352C98.1955 33.6269 99.3163 27.0943 101.122 20.7482C101.994 17.6374 103.613 14.7755 104.92 11.7891C106.228 8.86498 112.642 7.7451 114.634 8.9272C115.568 9.48714 116.378 10.4204 116.814 11.4158C121.11 20.686 124.161 30.3917 126.527 40.3463C128.893 50.2386 131.26 60.131 133.563 70.0855C133.937 71.6409 134.809 72.5119 136.116 73.1963C137.486 73.9429 138.981 74.6895 139.354 76.3693C139.541 77.2404 139.79 78.3602 139.417 79.0446C137.175 82.9642 137.3 87.1327 138.358 91.239C139.354 95.283 140.849 99.2026 141.907 103.309C142.468 105.611 142.655 108.099 142.717 110.526C142.717 111.521 142.094 112.766 141.347 113.512C137.549 117.121 130.824 115.939 129.018 111.024C127.586 107.104 126.963 102.936 125.967 98.8915C125.718 97.7094 125.469 96.5895 125.157 95.4074C123.289 89.1858 119.927 86.5105 113.451 86.075C108.594 85.7639 104.111 86.8838 99.939 89.4347C97.7596 90.7412 96.1407 92.5455 95.4557 94.9719C94.5217 98.2694 93.899 101.629 92.965 104.864C92.2801 107.353 91.4706 109.842 90.3498 112.144C89.2912 114.446 87.2364 115.441 84.6212 115.317C79.5775 114.881 78.3944 113.761 78.3944 106.98ZM110.462 41.4662C108.158 44.2659 106.975 47.2522 106.415 50.4253C105.294 56.6469 103.862 62.744 101.247 68.5923C100.811 69.65 100.748 70.8943 100.686 72.0764C100.562 73.1341 101.06 73.8807 102.056 74.4406C106.166 76.7426 110.524 76.6804 114.883 75.4361C116.689 74.9384 117.934 73.6318 118.059 71.7653C118.308 68.3435 118.868 64.7349 118.246 61.4375C117 54.4071 113.7 48.0611 110.462 41.4662Z" fill="#AB26E0"/>
<path d="M160.21 63.0394C159.774 65.3414 159.089 67.6434 158.964 69.9454C158.715 73.4295 158.84 76.8514 158.715 80.3355C158.529 85.0639 158.28 89.7301 157.906 94.3963C157.719 96.8849 156.287 98.3781 153.859 98.8758C150.309 99.6846 147.071 99.1869 144.332 96.5738C143.086 95.3917 142.588 93.8986 142.713 92.2187C143.46 79.9 144.145 67.5812 144.892 55.3246C145.452 45.6812 146.2 36.0999 148.005 26.6431C148.441 24.4655 149.064 23.6567 151.368 23.4701C153.174 23.3456 155.042 23.3456 156.723 23.8434C157.906 24.1544 159.151 25.1499 159.836 26.1453C163.884 32.1181 166.312 38.8374 168.865 45.4945C171.231 51.7783 173.722 57.9999 176.337 64.2215C177.271 66.4613 178.766 68.5144 180.198 71.0653C181.319 68.4522 181.754 66.1502 181.879 63.8482C182.253 52.8982 181.256 42.0726 178.641 31.3715C177.333 25.9587 176.399 20.4215 176.586 14.7598C176.648 13.6399 176.773 12.52 176.898 11.3379C177.084 9.65811 178.018 8.47601 179.513 8.0405C181.069 7.60499 182.751 7.23169 184.37 7.23169C187.359 7.23169 188.479 8.22715 189.538 11.0269C192.153 18.1817 193.398 25.5854 194.332 33.1135C195.827 45.059 195.266 57.0045 195.204 69.0122C195.204 73.6784 194.457 78.3446 192.464 82.6375C191.406 84.8772 190.036 86.9926 188.479 88.8591C186.362 91.4721 183.311 91.9699 180.135 91.5966C178.392 91.4099 176.835 90.6011 175.839 89.1079C172.726 84.3795 169.612 79.7133 166.748 74.8605C164.818 71.563 163.199 68.0789 161.455 64.657C161.206 64.1593 160.895 63.6616 160.646 63.1639C160.521 63.0394 160.397 63.0394 160.21 63.0394Z" fill="#AB26E0"/>
<path d="M43.0359 108.162C37.3695 107.913 36.1899 107.104 32.8897 103.122C32.2047 102.251 31.4575 101.256 31.1462 100.198C30.2744 97.7094 31.5164 97.1255 32.5161 94.8474C33.8459 91.8173 33.6335 89.6213 33.3844 85.6395C32.6372 74.3162 32.2636 62.9928 31.5164 51.6695C31.0805 45.1369 30.2087 38.6664 29.6483 32.1959C29.4615 30.0184 28.0294 28.6496 26.784 27.1564C24.0443 23.7346 25.2896 18.5706 29.3993 16.8908C30.5201 16.3931 31.7654 16.0198 33.0108 16.0198C41.6037 16.0198 50.0098 17.0152 57.3574 21.9925C65.4522 27.4675 72.4262 34.1868 78.2171 42.0883C82.7003 48.2477 85.3778 55.0914 85.191 62.744C85.0665 69.2144 83.3853 75.3738 80.3342 81.0355C73.4225 93.9764 62.9615 102.811 48.889 107.104C46.7097 107.788 44.4058 107.913 43.0359 108.162ZM45.0284 34.0624C45.0284 35.0579 45.0284 35.6178 45.0284 36.24C45.5888 51.1718 46.1492 66.1659 46.7719 81.0977C46.8965 84.4574 47.3946 87.817 47.6437 91.1767C47.7682 92.5454 48.3909 93.3542 49.823 93.0432C51.8779 92.6077 54.1818 92.421 55.863 91.3633C58.4782 89.6835 61.1557 87.6304 62.837 85.1417C65.8258 80.7866 68.3165 76.1204 70.4959 71.3298C72.613 66.6636 72.4884 61.6863 70.5581 56.8335C68.1297 50.7985 64.5182 45.6346 59.8481 41.2172C57.2329 38.7908 54.3063 36.8621 50.9439 35.68C49.0758 34.9957 47.1455 34.6224 45.0284 34.0624Z" fill="#AB26E0"/>
<path d="M27.5965 89.7946C27.3475 91.4122 27.2229 93.4654 26.6625 95.3941C25.2304 100.371 20.5603 103.482 15.6412 102.673C14.209 102.424 12.5901 101.74 11.4692 100.807C6.79918 96.8873 4.86888 91.7855 5.86516 85.6884C6.67464 80.7111 11.5938 77.1026 16.6375 77.6625C18.2564 77.8492 19.8754 78.2225 21.4943 78.5958C24.7945 79.3423 26.4135 81.6443 26.9739 84.8174C27.3475 86.3105 27.4097 87.8659 27.5965 89.7946Z" fill="#AB26E0"/>
<path d="M21.9271 50.4876C21.7403 51.8563 21.678 53.2873 21.3667 54.5938C19.9345 60.4421 14.0191 64.1129 8.10367 62.8063C5.48843 62.2464 3.6204 60.6288 2.31278 58.4512C0.25795 55.0293 -0.489262 51.3586 0.320217 47.439C1.3165 42.7106 6.1111 39.2265 10.9057 39.7864C12.3379 39.9731 13.77 40.1597 15.2022 40.533C19.7477 41.7773 21.4912 44.0171 21.7403 48.7455C21.7403 49.3055 21.7403 49.8654 21.7403 50.4253C21.8025 50.4876 21.8648 50.4876 21.9271 50.4876Z" fill="#AB26E0"/>
</svg>
