<?xml version="1.0" encoding="utf-8"?>
<!-- Generator: Adobe Illustrator 22.0.1, SVG Export Plug-In . SVG Version: 6.00 Build 0)  -->
<!DOCTYPE svg PUBLIC "-//W3C//DTD SVG 1.1//EN" "http://www.w3.org/Graphics/SVG/1.1/DTD/svg11.dtd">
<svg version="1.1" id="Layer_1" xmlns="http://www.w3.org/2000/svg" xmlns:xlink="http://www.w3.org/1999/xlink" x="0px" y="0px"
	 width="100px" height="100px" viewBox="0 0 100 100" enable-background="new 0 0 100 100" xml:space="preserve">
<g>
	<g>
		<circle fill="#FFEC00" cx="50" cy="50" r="46.9"/>
		<path d="M50,97.5C23.8,97.5,2.5,76.2,2.5,50S23.8,2.5,50,2.5S97.5,23.8,97.5,50S76.2,97.5,50,97.5z M50,3.7
			C24.4,3.7,3.7,24.4,3.7,50c0,25.6,20.8,46.3,46.3,46.3S96.3,75.6,96.3,50C96.3,24.4,75.6,3.7,50,3.7z"/>
	</g>
	<g>
		<circle fill="#00FFCB" cx="50" cy="50" r="42.4"/>
		<path d="M50,92.9C26.3,92.9,7.1,73.7,7.1,50C7.1,26.3,26.3,7.1,50,7.1S92.9,26.3,92.9,50C92.9,73.7,73.7,92.9,50,92.9z M50,8.2
			C27,8.2,8.2,27,8.2,50S27,91.8,50,91.8S91.8,73,91.8,50S73,8.2,50,8.2z"/>
	</g>
	<g>
		<path d="M24.8,51.8c-2,0-7.4-1.1-7.7-1.2c-5.1-0.9-7.4-1.4-7.4-1.4c-0.2,0-0.3-0.1-0.4-0.3c-0.1-0.1-0.1-0.3,0-0.5
			c0-0.1,0.9-2.3,3.6-3.4c1.5-0.6,3-0.6,4.4-0.7c1,0,2-0.1,3-0.3c1.9-0.4,3.9-1.9,5.4-3.1c0.3-0.3,0.7-0.5,1-0.7
			c1.9-1.3,10.8-4.6,13.5-5.3C42.7,34.4,56,32.6,59,34c1.3,0.6,2,1.3,2.6,2c0.8,0.8,1.6,1.7,3.8,2.7c3.6,1.6,4.1,1.7,6.4,1.9
			c0.4,0,0.8,0.1,1.3,0.1c1,0.1,1.8,0.1,2.5,0c1.7-0.1,2.9-0.2,4.8,2c2.6,2.9,3.2,5.7,3.3,5.8c0,0.2,0,0.3-0.1,0.5
			c-0.1,0.1-0.3,0.2-0.4,0.2c-4.5,0.3-43.8,2.5-45.9,2.1c-1.6-0.3-7.2,0.1-10.3,0.4c-0.9,0.1-1.6,0.1-2,0.1
			C25,51.8,24.9,51.8,24.8,51.8z M10.6,48.3c1,0.2,3.2,0.6,6.6,1.2c0,0,0,0,0,0c0.1,0,6,1.2,7.7,1.2c0.4,0,1.1-0.1,1.9-0.1
			c3.3-0.2,8.8-0.6,10.5-0.4c1.5,0.2,27.4-1.1,44.9-2.1c-0.3-1-1.1-2.8-2.8-4.7c-1.5-1.7-2.3-1.7-3.9-1.6c-0.7,0-1.6,0.1-2.7,0
			c-0.5-0.1-0.9-0.1-1.3-0.1c-2.4-0.2-3-0.3-6.7-2c-2.5-1.1-3.4-2.1-4.2-3c-0.6-0.7-1.1-1.2-2.3-1.7c-2.5-1.2-15.4,0.4-18.1,1.2
			C37.6,37,29,40.1,27.3,41.3c-0.3,0.2-0.6,0.5-1,0.7c-1.6,1.2-3.7,2.7-5.9,3.2c-1.1,0.3-2.2,0.3-3.2,0.3c-1.4,0-2.6,0.1-4,0.6
			C11.8,46.8,11,47.7,10.6,48.3z"/>
	</g>
	<g>
		<path d="M12.4,46.5c-0.2,0-0.4-0.1-0.5-0.3c-0.1-0.3,0-0.6,0.3-0.8c2.5-1.1,9-7.9,12.8-12c1.6-1.7,2.9-3,3.5-3.6
			c2.4-2.2,10.8-8.5,17.7-9c3.1-0.2,4.9-0.9,6.5-1.6c1.9-0.8,3.6-1.5,6.6-0.9c3.5,0.6,6,1.9,8,3c1.1,0.6,2.1,1.1,3,1.4
			c3,0.9,7.6,6.6,8.5,7.9c1.3,1.9,1.8,11.4,1.8,12.5c0,0.3-0.2,0.6-0.6,0.6c-0.3,0-0.6-0.2-0.6-0.6c-0.2-3.9-0.8-10.7-1.6-11.9
			c-1.6-2.2-5.6-6.8-7.9-7.5c-1-0.3-2-0.8-3.2-1.5c-1.9-1-4.3-2.3-7.6-2.8c-2.7-0.5-4.2,0.1-6,0.9c-1.7,0.7-3.6,1.4-6.8,1.7
			c-6.6,0.4-14.7,6.6-17,8.7c-0.6,0.6-1.9,1.9-3.5,3.6c-4.4,4.7-10.4,11-13.2,12.2C12.6,46.5,12.5,46.5,12.4,46.5z"/>
	</g>
	<g>
		<path fill="#FFFFFF" d="M84.2,50.3c0.5,1.8-0.8,2.6-0.9,4.4c-0.1,2.4-2.6,5.3-8.2,7c-5.6,1.7-9.7,4.5-15.6,4.4s-11.9,0.1-16.7-1.3
			c-4.8-1.4-8.3-3.8-11.9-5.3c-3.6-1.5-4.5-3.4-7.7-5.2c-3.3-1.7-5-4.1-5-4.1c3.8,0.3,18.2-8.6,26.2-8.5s11.1-0.5,14.4-0.9
			c3.3-0.3,10.7,2,14.1,2.8c3.4,0.9,8.3,3.1,10.3,4.9C83.7,49.1,84,49.7,84.2,50.3"/>
		<path d="M59.8,66.6c-0.1,0-0.2,0-0.3,0c-0.9,0-1.8,0-2.7,0c-5.1-0.1-10-0.1-14.1-1.3c-3.1-0.9-5.6-2.2-8-3.4
			c-1.3-0.7-2.6-1.3-3.9-1.9c-2.1-0.9-3.3-1.9-4.5-2.9c-0.9-0.8-1.9-1.6-3.3-2.3c-3.4-1.8-5.1-4.2-5.2-4.3c-0.1-0.2-0.1-0.4,0-0.6
			c0.1-0.2,0.3-0.3,0.6-0.3c1.5,0.2,5.1-1.5,9-3.2c5.5-2.4,12.4-5.4,17.1-5.3c6.3,0.1,9.6-0.3,12.3-0.6c0.7-0.1,1.4-0.2,2.1-0.2
			c2.8-0.3,8.1,1.2,12,2.2c0.9,0.2,1.7,0.5,2.3,0.6c3.3,0.8,8.3,3.1,10.6,5.1c0.6,0.5,1,1.1,1.2,1.9c0.4,1.3,0,2.1-0.4,2.9
			c-0.2,0.5-0.5,1-0.5,1.6c-0.1,2.4-2.4,5.6-8.6,7.5c-1.8,0.5-3.4,1.2-5,1.8C66.9,65.4,63.8,66.6,59.8,66.6z M19.3,50.7
			c0.8,0.8,2.1,2.1,4.1,3.1c1.5,0.8,2.5,1.6,3.5,2.5c1.2,1,2.3,1.9,4.2,2.7c1.3,0.6,2.6,1.2,4,1.9c2.4,1.2,4.8,2.5,7.8,3.3
			c4,1.2,8.8,1.2,13.8,1.3c0.9,0,1.8,0,2.7,0c3.9,0.1,7.1-1.2,10.4-2.5c1.6-0.6,3.2-1.3,5-1.9c5.6-1.7,7.7-4.6,7.8-6.5
			c0-0.9,0.3-1.5,0.6-2.1c0.3-0.7,0.6-1.2,0.3-2.1c-0.2-0.6-0.4-1-0.8-1.4c-1.9-1.7-6.6-3.9-10.1-4.8c-0.7-0.2-1.5-0.4-2.3-0.6
			c-3.6-1-9-2.5-11.5-2.2c-0.7,0.1-1.4,0.2-2.1,0.2c-2.7,0.3-6.1,0.7-12.4,0.6c-4.5-0.1-11.2,2.9-16.6,5.2
			C24.2,49.1,21.2,50.3,19.3,50.7z"/>
	</g>
	<g>
		<defs>
			<path id="SVGID_1_" d="M84.3,53.3c-0.1,1-0.3,2-0.3,2.9c-0.1,2.4-1.4,4.5-7,6.3c-5.6,1.7-11.6,3.7-17.5,3.6s-11.9,0.1-16.7-1.3
				c-4.8-1.4-8.3-3.8-11.9-5.3c-3.6-1.5-4.5-3.4-7.7-5.2c-3.3-1.7-5-4.1-5-4.1c3.8,0.3,19.3-9.9,27.3-9.3c8.2,0.6,12,0.6,15.3,0.3
				c3.3-0.3,8,6.6,11.4,7.4c3.4,0.9,8.9-1.8,11,0.1C84.5,49.8,84.5,51.5,84.3,53.3"/>
		</defs>
		<clipPath id="SVGID_2_">
			<use xlink:href="#SVGID_1_"  overflow="visible"/>
		</clipPath>
		<g clip-path="url(#SVGID_2_)">
			<path d="M32.8,44.7c3.7-1.8,17.5-3.7,17.5-3.7s8.6-2,9.9-1.1c1.3,0.9,2.2,11,2.3,16.6s-0.4,6.9-0.8,9.2c-0.4,2.4-4.5,10-5,9.9
				s-18.8-8.7-20.1-9.3C35.2,65.8,32.8,44.7,32.8,44.7z"/>
		</g>
	</g>
	<g>
		<circle fill="#FFFFFF" cx="55.5" cy="49.8" r="3.6"/>
	</g>
	<g>
		<circle fill="#FFFFFF" cx="47.1" cy="47.6" r="2.2"/>
	</g>
	<g>
		<path fill="#FFFFFF" d="M48.4,51.4c0,0,0.2,3.1,0.6,3.8c0.4,0.7,3.2,1.5,3.2,1.5s-3.1,0-3.7,0.4s-1.6,3.5-1.6,3.5s0.3-3.2-0.4-3.8
			S43,55.2,43,55.2s2.8,0.1,3.8-0.6C47.7,53.8,48.4,51.4,48.4,51.4z"/>
	</g>
	<g>
		<path d="M52.1,76.5c-2.5,0-8.3-1.5-19-4.8c-4.9-1.5-8.4-6.1-10.9-9.5c-1-1.4-1.9-2.6-2.6-3c-0.3-0.2-0.3-0.5-0.1-0.8
			c0.2-0.3,0.5-0.3,0.8-0.1c0.8,0.6,1.7,1.8,2.8,3.3c2.4,3.2,5.7,7.6,10.3,9.1c11,3.5,16.8,4.9,18.9,4.8c2.2-0.2,11.2-1.7,12.3-2
			c0.4-0.1,1.4-0.4,2.5-0.8c1.9-0.7,4.6-1.6,6.7-2.2c3.3-0.8,8.5-3.3,9.1-3.8c0.5-0.4,1.2-2.3,1.7-3.6c0.1-0.3,0.4-0.5,0.7-0.4
			c0.3,0.1,0.5,0.4,0.4,0.7c-0.2,0.6-1.1,3.4-2,4.1c-0.9,0.7-6.2,3.2-9.6,4.1c-2,0.5-4.6,1.4-6.6,2.1c-1.2,0.4-2.2,0.8-2.6,0.9
			c-1.1,0.3-10.3,1.8-12.5,2C52.3,76.5,52.2,76.5,52.1,76.5z"/>
	</g>
</g>
</svg>
