<?xml version="1.0" encoding="UTF-8"?>
<svg width="635px" height="635px" viewBox="0 0 635 635" version="1.1" xmlns="http://www.w3.org/2000/svg" xmlns:xlink="http://www.w3.org/1999/xlink">
    <!-- Generator: Sketch 50.2 (55047) - http://www.bohemiancoding.com/sketch -->
    <title>DANK token logo text</title>
    <desc>Created with Sketch.</desc>
    <defs>
        <path d="M70.3388023,71.8797151 C70.2803202,71.3537633 70.2510795,70.8278194 70.2510795,70.3018676 L70.2510795,66.9708565 C69.6077758,61.126948 67.1223212,56.0428238 62.7946412,51.7183316 C57.7066932,46.6341312 51.5661584,44.0920691 44.3728525,44.0920691 C37.1795467,44.0920691 31.0536321,46.6341312 25.9949252,51.7183316 C20.9362182,56.8025319 18.4069027,62.9385438 18.4069027,70.1265513 C18.4069027,77.3145587 20.9362182,83.435961 25.9949252,88.4909419 C31.0536321,93.5459227 37.1795467,96.0733752 44.3728525,96.0733752 C51.5661584,96.0733752 57.7066932,93.5313132 62.7946412,88.4471128 C67.4732142,83.8304251 69.9879094,78.3080144 70.3388023,71.8797151 Z M88.1465315,70.477184 C88.0295671,82.3987573 83.7604334,92.5670056 75.3390021,100.982234 C66.8006066,109.51434 56.4786599,113.780329 44.3728525,113.780329 C32.2670451,113.780329 21.9450984,109.51434 13.4067029,100.982234 C4.8683073,92.4501274 0.599173554,82.1357837 0.599173554,70.0388931 C0.599173554,57.9420025 4.8683073,47.6276587 13.4067029,39.0955523 C21.9450984,30.5634459 32.2670451,26.2974567 44.3728525,26.2974567 C54.1393735,26.2974567 62.7653629,29.1024907 70.2510795,34.7126429 L70.2510795,8.94113529 C70.2510795,6.48669372 71.1282988,4.38291822 72.8827636,2.62974567 C74.6372285,0.876573125 76.7425547,0 79.1988055,0 C81.6550563,0 83.7603825,0.876573125 85.5148474,2.62974567 C87.2693122,4.38291822 88.1465315,6.48669372 88.1465315,8.94113529 L88.1465315,70.477184 Z M255.644285,26.3418109 C267.984021,27.0430799 278.130524,31.3675074 286.084098,39.3152229 C294.505529,47.7304511 298.774663,57.8986994 298.891628,69.8202727 L298.891628,103.656334 C298.891628,107.045801 298.014408,109.617082 296.259943,111.370254 C294.505479,113.123427 292.400152,114 289.943902,114 C287.487651,114 285.382325,113.123427 283.62786,111.370254 C281.873395,109.617082 280.996176,107.104239 280.996176,103.83165 L280.996176,69.9955891 C280.996176,69.4696373 281.025416,68.9436934 281.083898,68.4177417 C280.733005,61.9894423 278.21831,56.4670316 273.539737,51.8503439 C268.451789,46.7661436 262.311254,44.2240815 255.117949,44.2240815 L254.767057,44.2240815 C247.573752,44.2240815 241.433217,46.7661436 236.345269,51.8503439 C231.666696,56.4670316 229.152001,61.9894423 228.801108,68.4177417 C228.85959,68.9436934 228.88883,69.4696373 228.88883,69.9955891 L228.88883,103.83165 C228.88883,107.104239 228.011611,109.617082 226.257146,111.370254 C224.502681,113.123427 222.397355,114 219.941104,114 C217.484854,114 215.379527,113.123427 213.625063,111.370254 C211.870598,109.617082 210.993378,107.045801 210.993378,103.656334 L210.993378,69.8202727 C211.110343,57.8986994 215.379476,47.7304511 223.800908,39.3152229 C231.754482,31.3675074 241.900984,27.0430799 254.240721,26.3418109 L255.644285,26.3418109 Z M334.118036,81.2591413 L334.118036,104.488561 C334.118036,106.943003 333.240816,109.046778 331.486351,110.799951 C329.731887,112.553124 327.62656,113.429697 325.17031,113.429697 C322.714059,113.429697 320.608733,112.553124 318.854268,110.799951 C317.099803,109.046778 316.222584,106.943003 316.222584,104.488561 L316.222584,8.94113529 C316.222584,6.48669372 317.099803,4.38291822 318.854268,2.62974567 C320.608733,0.876573125 322.714059,0 325.17031,0 C327.62656,0 329.731887,0.876573125 331.486351,2.62974567 C333.240816,4.38291822 334.118036,6.48669372 334.118036,8.94113529 L334.118036,58.0297212 L372.102009,27.6999878 C373.681028,26.4143279 375.523188,25.7715076 377.628546,25.7715076 C380.084797,25.7715076 382.160882,26.6334712 383.856865,28.3574242 C385.552848,30.0813772 386.400826,32.141324 386.400826,34.5373265 C386.400826,36.9917681 385.552848,39.0663245 383.856865,40.7610579 C383.330526,41.2870097 382.774953,41.7252963 382.190132,42.0759308 L347.978239,69.4252858 L383.418251,97.7388808 L383.242806,97.9141972 C383.476734,98.0895145 383.681419,98.2648291 383.856865,98.4401463 C385.552848,100.193319 386.400826,102.267875 386.400826,104.663878 C386.400826,107.118319 385.552848,109.192876 383.856865,110.887609 C382.160882,112.582343 380.084797,113.429697 377.628546,113.429697 C375.58167,113.429697 373.797991,112.816095 372.277455,111.588875 L372.189732,111.676533 L334.118036,81.2591413 Z" id="path-1"></path>
    </defs>
    <g id="DANK-token-logo-text" stroke="none" stroke-width="1" fill="none" fill-rule="evenodd">
        <g id="DANK" transform="translate(124.000000, 259.000000)">
            <g id="d-nk">
                <use fill="#2C398F" fill-rule="evenodd" xlink:href="#path-1"></use>
                <use fill="black" fill-opacity="1" xlink:href="#path-1"></use>
                <use stroke="#979797" stroke-width="1" xlink:href="#path-1"></use>
                <use stroke="#979797" stroke-width="1" xlink:href="#path-1"></use>
            </g>
            <path d="M178.659956,105.432991 L186.272074,114.481712 C187.016997,115.630581 188.31068,116.390636 189.781883,116.390636 C192.090433,116.390636 193.961883,114.519186 193.961883,112.210636 L194.625516,73.1768925 C194.681569,72.2434393 194.709999,71.3025395 194.709999,70.3549995 C194.709999,44.7538402 173.956159,24 148.355,24 C122.75384,24 102,44.7538402 102,70.3549995 C102,95.9561589 122.75384,116.709999 148.355,116.709999 C159.940814,116.709999 170.533888,112.459574 178.659956,105.432991 Z" id="Bubble" fill="#7CF8FA"></path>
            <path d="M140.494112,75.6355014 L161.613448,54.5161649 C164.253393,51.8762206 168.533588,51.8762206 171.173532,54.5161649 L171.469959,54.8125919 C174.109904,57.4525362 174.109904,61.7327316 171.469959,64.3726759 L146.558716,89.2839189 C144.646928,91.1957074 141.874937,91.7230215 139.488622,90.8658611 C137.550055,91.0509552 135.546817,90.4012288 134.06227,88.9166818 L123.642006,78.4964181 C121.002062,75.8564738 121.002062,71.5762784 123.642006,68.9363341 L123.938433,68.6399071 C126.578378,65.9999628 130.858573,65.9999628 133.498517,68.6399071 L140.494112,75.6355014 Z" id="Check" fill="#17277C"></path>
        </g>
    </g>
</svg>