<?xml version="1.0" encoding="utf-8"?>
<!-- Generator: Adobe Illustrator 21.1.0, SVG Export Plug-In . SVG Version: 6.00 Build 0)  -->
<svg version="1.1" id="Layer_1" xmlns="http://www.w3.org/2000/svg" xmlns:xlink="http://www.w3.org/1999/xlink" x="0px" y="0px"
	 viewBox="0 0 900 900" style="enable-background:new 0 0 900 900;" xml:space="preserve">
<style type="text/css">
	.st0{fill:#360053;}
	.st1{fill:#FF019B;}
	.st2{fill:#A802E0;}
	.st3{fill:#FFFFFF;}
	.st4{fill:#FF7F66;}
	.st5{fill:#FFC54A;}
	.st6{fill:#FF905B;}
	.st7{fill:#FF5D6C;}
	.st8{fill:#C7FF24;}
	.st9{fill:#FF9024;}
	.st10{fill:none;stroke:#FFFFFF;stroke-miterlimit:10;}
	.st11{fill:none;stroke:#FFFFFF;stroke-width:0.4454;stroke-miterlimit:10;}
	.st12{fill:none;}
	.st13{fill:none;stroke:#A802E0;stroke-miterlimit:10;}
	.st14{fill:#636363;}
	.st15{enable-background:new    ;}
	.st16{clip-path:url(#SVGID_2_);enable-background:new    ;}
	.st17{fill:#5B0179;}
	.st18{clip-path:url(#SVGID_4_);enable-background:new    ;}
	.st19{clip-path:url(#SVGID_6_);enable-background:new    ;}
	.st20{fill:#570174;}
	.st21{clip-path:url(#SVGID_8_);enable-background:new    ;}
	.st22{fill:#540170;}
	.st23{fill:#5E017D;}
	.st24{clip-path:url(#SVGID_10_);enable-background:new    ;}
	.st25{clip-path:url(#SVGID_12_);enable-background:new    ;}
	.st26{clip-path:url(#SVGID_14_);enable-background:new    ;}
	.st27{fill:#650186;}
	.st28{fill:#610182;}
	.st29{clip-path:url(#SVGID_16_);enable-background:new    ;}
	.st30{clip-path:url(#SVGID_18_);enable-background:new    ;}
	.st31{clip-path:url(#SVGID_20_);enable-background:new    ;}
	.st32{clip-path:url(#SVGID_22_);enable-background:new    ;}
	.st33{clip-path:url(#SVGID_24_);enable-background:new    ;}
	.st34{clip-path:url(#SVGID_26_);enable-background:new    ;}
	.st35{clip-path:url(#SVGID_28_);enable-background:new    ;}
	.st36{clip-path:url(#SVGID_30_);enable-background:new    ;}
	.st37{clip-path:url(#SVGID_32_);enable-background:new    ;}
	.st38{clip-path:url(#SVGID_34_);enable-background:new    ;}
	.st39{clip-path:url(#SVGID_36_);enable-background:new    ;}
	.st40{clip-path:url(#SVGID_38_);enable-background:new    ;}
	.st41{clip-path:url(#SVGID_40_);enable-background:new    ;}
	.st42{clip-path:url(#SVGID_42_);enable-background:new    ;}
	.st43{fill:#6F0194;}
	.st44{fill:#6C018F;}
	.st45{fill:#68018B;}
	.st46{clip-path:url(#SVGID_44_);enable-background:new    ;}
	.st47{clip-path:url(#SVGID_46_);enable-background:new    ;}
	.st48{clip-path:url(#SVGID_48_);enable-background:new    ;}
	.st49{clip-path:url(#SVGID_50_);enable-background:new    ;}
	.st50{clip-path:url(#SVGID_52_);enable-background:new    ;}
	.st51{clip-path:url(#SVGID_54_);enable-background:new    ;}
	.st52{clip-path:url(#SVGID_56_);enable-background:new    ;}
	.st53{fill:#8A02B8;}
	.st54{fill:#8602B3;}
	.st55{fill:#8302AF;}
	.st56{fill:#8002AA;}
	.st57{fill:#7C01A6;}
	.st58{fill:#7901A1;}
	.st59{fill:#76019D;}
	.st60{fill:#720198;}
	.st61{clip-path:url(#SVGID_58_);enable-background:new    ;}
	.st62{clip-path:url(#SVGID_60_);enable-background:new    ;}
	.st63{clip-path:url(#SVGID_62_);enable-background:new    ;}
	.st64{clip-path:url(#SVGID_64_);enable-background:new    ;}
	.st65{clip-path:url(#SVGID_66_);enable-background:new    ;}
	.st66{clip-path:url(#SVGID_68_);enable-background:new    ;}
	.st67{clip-path:url(#SVGID_70_);enable-background:new    ;}
	.st68{clip-path:url(#SVGID_72_);enable-background:new    ;}
	.st69{clip-path:url(#SVGID_74_);enable-background:new    ;}
	.st70{clip-path:url(#SVGID_76_);enable-background:new    ;}
	.st71{clip-path:url(#SVGID_78_);enable-background:new    ;}
	.st72{clip-path:url(#SVGID_80_);enable-background:new    ;}
	.st73{clip-path:url(#SVGID_82_);enable-background:new    ;}
	.st74{clip-path:url(#SVGID_84_);enable-background:new    ;}
	.st75{clip-path:url(#SVGID_86_);enable-background:new    ;}
	.st76{clip-path:url(#SVGID_88_);enable-background:new    ;}
	.st77{clip-path:url(#SVGID_90_);enable-background:new    ;}
	.st78{clip-path:url(#SVGID_92_);enable-background:new    ;}
	.st79{clip-path:url(#SVGID_94_);enable-background:new    ;}
	.st80{clip-path:url(#SVGID_96_);enable-background:new    ;}
	.st81{clip-path:url(#SVGID_98_);enable-background:new    ;}
	.st82{clip-path:url(#SVGID_100_);enable-background:new    ;}
	.st83{clip-path:url(#SVGID_102_);enable-background:new    ;}
	.st84{clip-path:url(#SVGID_104_);enable-background:new    ;}
	.st85{clip-path:url(#SVGID_106_);enable-background:new    ;}
	.st86{clip-path:url(#SVGID_108_);enable-background:new    ;}
	.st87{clip-path:url(#SVGID_110_);enable-background:new    ;}
	.st88{clip-path:url(#SVGID_112_);enable-background:new    ;}
	.st89{clip-path:url(#SVGID_114_);enable-background:new    ;}
	.st90{clip-path:url(#SVGID_116_);enable-background:new    ;}
	.st91{clip-path:url(#SVGID_118_);enable-background:new    ;}
	.st92{clip-path:url(#SVGID_120_);enable-background:new    ;}
	.st93{clip-path:url(#SVGID_122_);enable-background:new    ;}
	.st94{clip-path:url(#SVGID_124_);enable-background:new    ;}
	.st95{clip-path:url(#SVGID_126_);enable-background:new    ;}
	.st96{clip-path:url(#SVGID_128_);enable-background:new    ;}
	.st97{clip-path:url(#SVGID_130_);enable-background:new    ;}
	.st98{fill:#9002C1;}
	.st99{fill:#8D02BC;}
	.st100{clip-path:url(#SVGID_132_);enable-background:new    ;}
	.st101{clip-path:url(#SVGID_134_);enable-background:new    ;}
	.st102{clip-path:url(#SVGID_136_);enable-background:new    ;}
	.st103{fill:#9902CC;}
	.st104{clip-path:url(#SVGID_138_);enable-background:new    ;}
	.st105{clip-path:url(#SVGID_140_);enable-background:new    ;}
	.st106{clip-path:url(#SVGID_142_);enable-background:new    ;}
	.st107{clip-path:url(#SVGID_144_);enable-background:new    ;}
	.st108{clip-path:url(#SVGID_146_);enable-background:new    ;}
	.st109{clip-path:url(#SVGID_148_);enable-background:new    ;}
	.st110{clip-path:url(#SVGID_150_);enable-background:new    ;}
	.st111{clip-path:url(#SVGID_152_);enable-background:new    ;}
	.st112{clip-path:url(#SVGID_154_);enable-background:new    ;}
	.st113{clip-path:url(#SVGID_156_);enable-background:new    ;}
	.st114{clip-path:url(#SVGID_158_);enable-background:new    ;}
	.st115{clip-path:url(#SVGID_160_);enable-background:new    ;}
	.st116{clip-path:url(#SVGID_162_);enable-background:new    ;}
	.st117{clip-path:url(#SVGID_164_);enable-background:new    ;}
	.st118{clip-path:url(#SVGID_166_);enable-background:new    ;}
	.st119{clip-path:url(#SVGID_168_);enable-background:new    ;}
	.st120{clip-path:url(#SVGID_170_);enable-background:new    ;}
	.st121{clip-path:url(#SVGID_172_);enable-background:new    ;}
	.st122{clip-path:url(#SVGID_174_);enable-background:new    ;}
	.st123{clip-path:url(#SVGID_176_);enable-background:new    ;}
	.st124{clip-path:url(#SVGID_178_);enable-background:new    ;}
	.st125{clip-path:url(#SVGID_180_);enable-background:new    ;}
	.st126{clip-path:url(#SVGID_182_);enable-background:new    ;}
	.st127{clip-path:url(#SVGID_184_);enable-background:new    ;}
	.st128{clip-path:url(#SVGID_186_);enable-background:new    ;}
	.st129{clip-path:url(#SVGID_188_);enable-background:new    ;}
	.st130{clip-path:url(#SVGID_190_);enable-background:new    ;}
	.st131{clip-path:url(#SVGID_192_);enable-background:new    ;}
	.st132{clip-path:url(#SVGID_194_);enable-background:new    ;}
	.st133{clip-path:url(#SVGID_196_);enable-background:new    ;}
	.st134{clip-path:url(#SVGID_198_);enable-background:new    ;}
	.st135{clip-path:url(#SVGID_200_);enable-background:new    ;}
	.st136{clip-path:url(#SVGID_202_);enable-background:new    ;}
	.st137{clip-path:url(#SVGID_204_);enable-background:new    ;}
	.st138{clip-path:url(#SVGID_206_);enable-background:new    ;}
	.st139{clip-path:url(#SVGID_208_);enable-background:new    ;}
	.st140{clip-path:url(#SVGID_210_);enable-background:new    ;}
	.st141{clip-path:url(#SVGID_212_);enable-background:new    ;}
	.st142{clip-path:url(#SVGID_214_);enable-background:new    ;}
	.st143{clip-path:url(#SVGID_216_);enable-background:new    ;}
	.st144{clip-path:url(#SVGID_218_);enable-background:new    ;}
	.st145{clip-path:url(#SVGID_220_);enable-background:new    ;}
	.st146{clip-path:url(#SVGID_222_);enable-background:new    ;}
	.st147{clip-path:url(#SVGID_224_);enable-background:new    ;}
	.st148{clip-path:url(#SVGID_226_);enable-background:new    ;}
	.st149{clip-path:url(#SVGID_228_);enable-background:new    ;}
	.st150{clip-path:url(#SVGID_230_);enable-background:new    ;}
	.st151{clip-path:url(#SVGID_232_);enable-background:new    ;}
	.st152{clip-path:url(#SVGID_234_);enable-background:new    ;}
	.st153{clip-path:url(#SVGID_236_);enable-background:new    ;}
	.st154{clip-path:url(#SVGID_238_);enable-background:new    ;}
	.st155{clip-path:url(#SVGID_240_);enable-background:new    ;}
	.st156{clip-path:url(#SVGID_242_);enable-background:new    ;}
	.st157{clip-path:url(#SVGID_244_);enable-background:new    ;}
	.st158{clip-path:url(#SVGID_246_);enable-background:new    ;}
	.st159{clip-path:url(#SVGID_248_);enable-background:new    ;}
	.st160{clip-path:url(#SVGID_250_);enable-background:new    ;}
	.st161{clip-path:url(#SVGID_252_);enable-background:new    ;}
	.st162{clip-path:url(#SVGID_254_);enable-background:new    ;}
	.st163{clip-path:url(#SVGID_256_);enable-background:new    ;}
	.st164{clip-path:url(#SVGID_258_);enable-background:new    ;}
	.st165{clip-path:url(#SVGID_260_);enable-background:new    ;}
	.st166{clip-path:url(#SVGID_262_);enable-background:new    ;}
	.st167{clip-path:url(#SVGID_264_);enable-background:new    ;}
	.st168{clip-path:url(#SVGID_266_);enable-background:new    ;}
	.st169{clip-path:url(#SVGID_268_);enable-background:new    ;}
	.st170{clip-path:url(#SVGID_270_);enable-background:new    ;}
	.st171{clip-path:url(#SVGID_272_);enable-background:new    ;}
	.st172{clip-path:url(#SVGID_274_);enable-background:new    ;}
	.st173{clip-path:url(#SVGID_276_);enable-background:new    ;}
	.st174{clip-path:url(#SVGID_278_);enable-background:new    ;}
	.st175{clip-path:url(#SVGID_280_);enable-background:new    ;}
	.st176{clip-path:url(#SVGID_282_);enable-background:new    ;}
	.st177{clip-path:url(#SVGID_284_);enable-background:new    ;}
	.st178{clip-path:url(#SVGID_286_);enable-background:new    ;}
	.st179{clip-path:url(#SVGID_288_);enable-background:new    ;}
	.st180{clip-path:url(#SVGID_290_);enable-background:new    ;}
	.st181{clip-path:url(#SVGID_292_);enable-background:new    ;}
	.st182{clip-path:url(#SVGID_294_);enable-background:new    ;}
	.st183{clip-path:url(#SVGID_296_);enable-background:new    ;}
	.st184{clip-path:url(#SVGID_298_);enable-background:new    ;}
	.st185{clip-path:url(#SVGID_300_);enable-background:new    ;}
	.st186{clip-path:url(#SVGID_302_);enable-background:new    ;}
	.st187{clip-path:url(#SVGID_304_);enable-background:new    ;}
	.st188{clip-path:url(#SVGID_306_);enable-background:new    ;}
	.st189{clip-path:url(#SVGID_308_);enable-background:new    ;}
	.st190{clip-path:url(#SVGID_310_);enable-background:new    ;}
	.st191{clip-path:url(#SVGID_312_);enable-background:new    ;}
	.st192{clip-path:url(#SVGID_314_);enable-background:new    ;}
	.st193{clip-path:url(#SVGID_316_);enable-background:new    ;}
	.st194{clip-path:url(#SVGID_318_);enable-background:new    ;}
	.st195{clip-path:url(#SVGID_320_);enable-background:new    ;}
	.st196{clip-path:url(#SVGID_322_);enable-background:new    ;}
	.st197{clip-path:url(#SVGID_324_);enable-background:new    ;}
	.st198{clip-path:url(#SVGID_326_);enable-background:new    ;}
	.st199{clip-path:url(#SVGID_328_);enable-background:new    ;}
	.st200{clip-path:url(#SVGID_330_);enable-background:new    ;}
	.st201{clip-path:url(#SVGID_332_);enable-background:new    ;}
	.st202{clip-path:url(#SVGID_334_);enable-background:new    ;}
	.st203{clip-path:url(#SVGID_336_);enable-background:new    ;}
	.st204{clip-path:url(#SVGID_338_);enable-background:new    ;}
	.st205{clip-path:url(#SVGID_340_);enable-background:new    ;}
	.st206{clip-path:url(#SVGID_342_);enable-background:new    ;}
	.st207{clip-path:url(#SVGID_344_);enable-background:new    ;}
	.st208{clip-path:url(#SVGID_346_);enable-background:new    ;}
	.st209{clip-path:url(#SVGID_348_);enable-background:new    ;}
	.st210{clip-path:url(#SVGID_350_);enable-background:new    ;}
	.st211{fill:#9402C5;}
	.st212{clip-path:url(#SVGID_352_);enable-background:new    ;}
	.st213{clip-path:url(#SVGID_354_);enable-background:new    ;}
	.st214{clip-path:url(#SVGID_356_);enable-background:new    ;}
	.st215{clip-path:url(#SVGID_358_);enable-background:new    ;}
	.st216{clip-path:url(#SVGID_360_);enable-background:new    ;}
	.st217{clip-path:url(#SVGID_362_);enable-background:new    ;}
	.st218{clip-path:url(#SVGID_364_);enable-background:new    ;}
	.st219{clip-path:url(#SVGID_366_);enable-background:new    ;}
	.st220{clip-path:url(#SVGID_368_);enable-background:new    ;}
	.st221{clip-path:url(#SVGID_370_);enable-background:new    ;}
	.st222{clip-path:url(#SVGID_372_);enable-background:new    ;}
	.st223{clip-path:url(#SVGID_374_);enable-background:new    ;}
	.st224{clip-path:url(#SVGID_376_);enable-background:new    ;}
	.st225{clip-path:url(#SVGID_378_);enable-background:new    ;}
	.st226{clip-path:url(#SVGID_380_);enable-background:new    ;}
	.st227{clip-path:url(#SVGID_382_);enable-background:new    ;}
	.st228{clip-path:url(#SVGID_384_);enable-background:new    ;}
	.st229{clip-path:url(#SVGID_386_);enable-background:new    ;}
	.st230{clip-path:url(#SVGID_388_);enable-background:new    ;}
	.st231{clip-path:url(#SVGID_390_);enable-background:new    ;}
	.st232{clip-path:url(#SVGID_392_);enable-background:new    ;}
	.st233{clip-path:url(#SVGID_394_);enable-background:new    ;}
	.st234{clip-path:url(#SVGID_396_);enable-background:new    ;}
	.st235{clip-path:url(#SVGID_398_);enable-background:new    ;}
	.st236{clip-path:url(#SVGID_400_);enable-background:new    ;}
	.st237{clip-path:url(#SVGID_402_);enable-background:new    ;}
	.st238{clip-path:url(#SVGID_404_);enable-background:new    ;}
	.st239{clip-path:url(#SVGID_406_);enable-background:new    ;}
	.st240{clip-path:url(#SVGID_408_);enable-background:new    ;}
	.st241{clip-path:url(#SVGID_410_);enable-background:new    ;}
	.st242{clip-path:url(#SVGID_412_);enable-background:new    ;}
	.st243{clip-path:url(#SVGID_414_);enable-background:new    ;}
	.st244{clip-path:url(#SVGID_416_);enable-background:new    ;}
	.st245{clip-path:url(#SVGID_418_);enable-background:new    ;}
	.st246{clip-path:url(#SVGID_420_);enable-background:new    ;}
	.st247{clip-path:url(#SVGID_422_);enable-background:new    ;}
	.st248{clip-path:url(#SVGID_424_);enable-background:new    ;}
	.st249{clip-path:url(#SVGID_426_);enable-background:new    ;}
	.st250{clip-path:url(#SVGID_428_);enable-background:new    ;}
	.st251{clip-path:url(#SVGID_430_);enable-background:new    ;}
	.st252{clip-path:url(#SVGID_432_);enable-background:new    ;}
	.st253{clip-path:url(#SVGID_434_);enable-background:new    ;}
	.st254{clip-path:url(#SVGID_436_);enable-background:new    ;}
	.st255{clip-path:url(#SVGID_438_);enable-background:new    ;}
	.st256{clip-path:url(#SVGID_440_);enable-background:new    ;}
	.st257{clip-path:url(#SVGID_442_);enable-background:new    ;}
	.st258{clip-path:url(#SVGID_444_);enable-background:new    ;}
	.st259{fill:#A502DC;}
	.st260{fill:#A102D7;}
	.st261{fill:#9E02D3;}
	.st262{fill:#9B02CE;}
	.st263{fill:#9702CA;}
	.st264{clip-path:url(#SVGID_446_);enable-background:new    ;}
	.st265{clip-path:url(#SVGID_448_);enable-background:new    ;}
	.st266{clip-path:url(#SVGID_450_);enable-background:new    ;}
	.st267{clip-path:url(#SVGID_452_);enable-background:new    ;}
	.st268{fill:#B72DE5;}
	.st269{fill:#B220E4;}
	.st270{clip-path:url(#SVGID_454_);enable-background:new    ;}
	.st271{clip-path:url(#SVGID_456_);enable-background:new    ;}
	.st272{clip-path:url(#SVGID_458_);enable-background:new    ;}
	.st273{clip-path:url(#SVGID_460_);enable-background:new    ;}
	.st274{clip-path:url(#SVGID_462_);enable-background:new    ;}
	.st275{clip-path:url(#SVGID_464_);enable-background:new    ;}
	.st276{clip-path:url(#SVGID_466_);enable-background:new    ;}
	.st277{clip-path:url(#SVGID_468_);enable-background:new    ;}
	.st278{clip-path:url(#SVGID_470_);enable-background:new    ;}
	.st279{clip-path:url(#SVGID_472_);enable-background:new    ;}
	.st280{clip-path:url(#SVGID_474_);enable-background:new    ;}
	.st281{clip-path:url(#SVGID_476_);enable-background:new    ;}
	.st282{clip-path:url(#SVGID_478_);enable-background:new    ;}
	.st283{fill:#C658EB;}
	.st284{fill:#C452EA;}
	.st285{fill:#C24CE9;}
	.st286{fill:#BF46E8;}
	.st287{fill:#BD3FE7;}
	.st288{fill:#BA37E6;}
	.st289{clip-path:url(#SVGID_480_);enable-background:new    ;}
	.st290{clip-path:url(#SVGID_482_);enable-background:new    ;}
	.st291{clip-path:url(#SVGID_484_);enable-background:new    ;}
	.st292{clip-path:url(#SVGID_486_);enable-background:new    ;}
	.st293{clip-path:url(#SVGID_488_);enable-background:new    ;}
	.st294{clip-path:url(#SVGID_490_);enable-background:new    ;}
	.st295{clip-path:url(#SVGID_492_);enable-background:new    ;}
	.st296{clip-path:url(#SVGID_494_);enable-background:new    ;}
	.st297{clip-path:url(#SVGID_496_);enable-background:new    ;}
	.st298{clip-path:url(#SVGID_498_);enable-background:new    ;}
	.st299{clip-path:url(#SVGID_500_);enable-background:new    ;}
	.st300{clip-path:url(#SVGID_502_);enable-background:new    ;}
	.st301{clip-path:url(#SVGID_504_);enable-background:new    ;}
	.st302{clip-path:url(#SVGID_506_);enable-background:new    ;}
	.st303{clip-path:url(#SVGID_508_);enable-background:new    ;}
	.st304{clip-path:url(#SVGID_510_);enable-background:new    ;}
	.st305{clip-path:url(#SVGID_512_);enable-background:new    ;}
	.st306{clip-path:url(#SVGID_514_);enable-background:new    ;}
	.st307{clip-path:url(#SVGID_516_);enable-background:new    ;}
	.st308{clip-path:url(#SVGID_518_);enable-background:new    ;}
	.st309{clip-path:url(#SVGID_520_);enable-background:new    ;}
	.st310{clip-path:url(#SVGID_522_);enable-background:new    ;}
	.st311{clip-path:url(#SVGID_524_);enable-background:new    ;}
	.st312{clip-path:url(#SVGID_526_);enable-background:new    ;}
	.st313{clip-path:url(#SVGID_528_);enable-background:new    ;}
	.st314{clip-path:url(#SVGID_530_);enable-background:new    ;}
	.st315{clip-path:url(#SVGID_532_);enable-background:new    ;}
	.st316{clip-path:url(#SVGID_534_);enable-background:new    ;}
	.st317{clip-path:url(#SVGID_536_);enable-background:new    ;}
	.st318{clip-path:url(#SVGID_538_);enable-background:new    ;}
	.st319{clip-path:url(#SVGID_540_);enable-background:new    ;}
	.st320{clip-path:url(#SVGID_542_);enable-background:new    ;}
	.st321{clip-path:url(#SVGID_544_);enable-background:new    ;}
	.st322{clip-path:url(#SVGID_546_);enable-background:new    ;}
	.st323{clip-path:url(#SVGID_548_);enable-background:new    ;}
	.st324{clip-path:url(#SVGID_550_);enable-background:new    ;}
	.st325{clip-path:url(#SVGID_552_);enable-background:new    ;}
	.st326{clip-path:url(#SVGID_554_);enable-background:new    ;}
	.st327{clip-path:url(#SVGID_556_);enable-background:new    ;}
	.st328{clip-path:url(#SVGID_558_);enable-background:new    ;}
	.st329{clip-path:url(#SVGID_560_);enable-background:new    ;}
	.st330{clip-path:url(#SVGID_562_);enable-background:new    ;}
	.st331{clip-path:url(#SVGID_564_);enable-background:new    ;}
	.st332{clip-path:url(#SVGID_566_);enable-background:new    ;}
	.st333{clip-path:url(#SVGID_568_);enable-background:new    ;}
	.st334{clip-path:url(#SVGID_570_);enable-background:new    ;}
	.st335{clip-path:url(#SVGID_572_);enable-background:new    ;}
	.st336{clip-path:url(#SVGID_574_);enable-background:new    ;}
	.st337{clip-path:url(#SVGID_576_);enable-background:new    ;}
	.st338{clip-path:url(#SVGID_578_);enable-background:new    ;}
	.st339{clip-path:url(#SVGID_580_);enable-background:new    ;}
	.st340{clip-path:url(#SVGID_582_);enable-background:new    ;}
	.st341{clip-path:url(#SVGID_584_);enable-background:new    ;}
	.st342{clip-path:url(#SVGID_586_);enable-background:new    ;}
	.st343{clip-path:url(#SVGID_588_);enable-background:new    ;}
	.st344{clip-path:url(#SVGID_590_);enable-background:new    ;}
	.st345{clip-path:url(#SVGID_592_);enable-background:new    ;}
	.st346{clip-path:url(#SVGID_594_);enable-background:new    ;}
	.st347{clip-path:url(#SVGID_596_);enable-background:new    ;}
	.st348{clip-path:url(#SVGID_598_);enable-background:new    ;}
	.st349{clip-path:url(#SVGID_600_);enable-background:new    ;}
	.st350{clip-path:url(#SVGID_602_);enable-background:new    ;}
	.st351{clip-path:url(#SVGID_604_);enable-background:new    ;}
	.st352{clip-path:url(#SVGID_606_);enable-background:new    ;}
	.st353{clip-path:url(#SVGID_608_);enable-background:new    ;}
	.st354{clip-path:url(#SVGID_610_);enable-background:new    ;}
	.st355{clip-path:url(#SVGID_612_);enable-background:new    ;}
	.st356{clip-path:url(#SVGID_614_);enable-background:new    ;}
	.st357{clip-path:url(#SVGID_616_);enable-background:new    ;}
	.st358{clip-path:url(#SVGID_618_);enable-background:new    ;}
	.st359{clip-path:url(#SVGID_620_);enable-background:new    ;}
	.st360{clip-path:url(#SVGID_622_);enable-background:new    ;}
	.st361{clip-path:url(#SVGID_624_);enable-background:new    ;}
	.st362{clip-path:url(#SVGID_626_);enable-background:new    ;}
	.st363{clip-path:url(#SVGID_628_);enable-background:new    ;}
	.st364{clip-path:url(#SVGID_630_);enable-background:new    ;}
	.st365{clip-path:url(#SVGID_632_);enable-background:new    ;}
	.st366{clip-path:url(#SVGID_634_);enable-background:new    ;}
	.st367{clip-path:url(#SVGID_636_);enable-background:new    ;}
	.st368{clip-path:url(#SVGID_638_);enable-background:new    ;}
	.st369{clip-path:url(#SVGID_640_);enable-background:new    ;}
	.st370{clip-path:url(#SVGID_642_);enable-background:new    ;}
	.st371{clip-path:url(#SVGID_644_);enable-background:new    ;}
	.st372{clip-path:url(#SVGID_646_);enable-background:new    ;}
	.st373{clip-path:url(#SVGID_648_);enable-background:new    ;}
	.st374{clip-path:url(#SVGID_650_);enable-background:new    ;}
	.st375{clip-path:url(#SVGID_652_);enable-background:new    ;}
	.st376{clip-path:url(#SVGID_654_);enable-background:new    ;}
	.st377{clip-path:url(#SVGID_656_);enable-background:new    ;}
	.st378{clip-path:url(#SVGID_658_);enable-background:new    ;}
	.st379{clip-path:url(#SVGID_660_);enable-background:new    ;}
	.st380{clip-path:url(#SVGID_662_);enable-background:new    ;}
	.st381{clip-path:url(#SVGID_664_);enable-background:new    ;}
	.st382{clip-path:url(#SVGID_666_);enable-background:new    ;}
	.st383{clip-path:url(#SVGID_668_);enable-background:new    ;}
	.st384{clip-path:url(#SVGID_670_);enable-background:new    ;}
	.st385{clip-path:url(#SVGID_672_);enable-background:new    ;}
	.st386{clip-path:url(#SVGID_674_);enable-background:new    ;}
	.st387{clip-path:url(#SVGID_676_);enable-background:new    ;}
	.st388{clip-path:url(#SVGID_678_);enable-background:new    ;}
	.st389{clip-path:url(#SVGID_680_);enable-background:new    ;}
	.st390{clip-path:url(#SVGID_682_);enable-background:new    ;}
	.st391{clip-path:url(#SVGID_684_);enable-background:new    ;}
	.st392{clip-path:url(#SVGID_686_);enable-background:new    ;}
	.st393{clip-path:url(#SVGID_688_);enable-background:new    ;}
	.st394{clip-path:url(#SVGID_690_);enable-background:new    ;}
	.st395{clip-path:url(#SVGID_692_);enable-background:new    ;}
	.st396{clip-path:url(#SVGID_694_);enable-background:new    ;}
	.st397{clip-path:url(#SVGID_696_);enable-background:new    ;}
	.st398{clip-path:url(#SVGID_698_);enable-background:new    ;}
	.st399{clip-path:url(#SVGID_700_);enable-background:new    ;}
	.st400{fill:#D483F0;}
	.st401{fill:#D37FEF;}
	.st402{fill:#D27BEF;}
	.st403{fill:#D078EE;}
	.st404{fill:#CF74EE;}
	.st405{fill:#CE6FED;}
	.st406{fill:#CC6BED;}
	.st407{fill:#CB67EC;}
	.st408{fill:#C962EC;}
	.st409{fill:#C75DEB;}
	.st410{clip-path:url(#SVGID_702_);enable-background:new    ;}
	.st411{clip-path:url(#SVGID_704_);enable-background:new    ;}
	.st412{clip-path:url(#SVGID_706_);enable-background:new    ;}
	.st413{clip-path:url(#SVGID_708_);enable-background:new    ;}
	.st414{clip-path:url(#SVGID_710_);enable-background:new    ;}
	.st415{clip-path:url(#SVGID_712_);enable-background:new    ;}
	.st416{clip-path:url(#SVGID_714_);enable-background:new    ;}
	.st417{clip-path:url(#SVGID_716_);enable-background:new    ;}
	.st418{clip-path:url(#SVGID_718_);enable-background:new    ;}
	.st419{clip-path:url(#SVGID_720_);enable-background:new    ;}
	.st420{clip-path:url(#SVGID_722_);enable-background:new    ;}
	.st421{clip-path:url(#SVGID_724_);enable-background:new    ;}
	.st422{clip-path:url(#SVGID_726_);enable-background:new    ;}
	.st423{clip-path:url(#SVGID_728_);enable-background:new    ;}
	.st424{clip-path:url(#SVGID_730_);enable-background:new    ;}
	.st425{clip-path:url(#SVGID_732_);enable-background:new    ;}
	.st426{clip-path:url(#SVGID_734_);enable-background:new    ;}
	.st427{clip-path:url(#SVGID_736_);enable-background:new    ;}
	.st428{fill:none;stroke:#F9FAFD;stroke-width:45;stroke-linecap:round;stroke-miterlimit:10;}
	.st429{fill:none;stroke:#000000;stroke-width:6;stroke-linecap:round;stroke-miterlimit:10;}
	.st430{fill:#FFED00;}
	.st431{fill:#B559F7;}
	.st432{fill:#C74DFF;}
	.st433{fill:#32FF27;}
	.st434{fill:#FFD527;}
	.st435{fill:#6584DB;}
	.st436{fill:#FF64A3;}
</style>
<g id="Dank_logo_1_">
	<path id="GEAR" class="st0" d="M333.1,272.5L333.1,272.5c6.3,9.5,4.4,22.3-4.4,29.5c-4.8,4-9.5,8.2-14,12.7
		c-4.5,4.5-8.7,9.2-12.7,14c-7.2,8.8-20,10.7-29.5,4.4l0,0c-11.1-7.3-26-3.4-32.1,8.3c-6.2,11.8-11.3,24.3-15.4,37.2
		c-4,12.6,3.8,26,16.8,28.7l0,0c11.2,2.3,18.9,12.6,17.8,24c-0.6,6.2-0.9,12.5-0.9,18.8s0.3,12.6,0.9,18.8
		c1.1,11.3-6.6,21.7-17.8,24l0,0c-13,2.7-20.8,16-16.8,28.7c4.1,12.9,9.3,25.3,15.4,37.2c6.1,11.7,21.1,15.6,32.1,8.3l0,0
		c9.5-6.3,22.3-4.4,29.5,4.4c4,4.8,8.2,9.5,12.7,14c4.5,4.5,9.2,8.7,14,12.7c8.8,7.2,10.7,20,4.4,29.5l0,0
		c-7.3,11.1-3.4,26,8.3,32.1c11.8,6.2,24.3,11.3,37.2,15.4c12.6,4,26-3.8,28.7-16.8l0,0c2.3-11.2,12.6-18.9,24-17.8
		c6.2,0.6,12.5,0.9,18.8,0.9c6.4,0,12.6-0.3,18.8-0.9c11.3-1.1,21.7,6.6,24,17.8l0,0c2.7,13,16,20.8,28.7,16.8
		c12.9-4.1,25.3-9.3,37.2-15.4c11.7-6.1,15.6-21.1,8.3-32.1l0,0c-6.3-9.5-4.4-22.3,4.4-29.5c4.8-4,9.5-8.2,14-12.7
		c4.5-4.5,8.7-9.2,12.7-14c7.2-8.8,20-10.7,29.5-4.4l0,0c11.1,7.3,26,3.4,32.1-8.3c6.2-11.8,11.3-24.3,15.4-37.2
		c4-12.6-3.8-26-16.8-28.7l0,0c-11.2-2.3-18.9-12.6-17.8-24c0.6-6.2,0.9-12.5,0.9-18.8s-0.3-12.6-0.9-18.8
		c-1.1-11.3,6.6-21.7,17.8-24l0,0c13-2.7,20.8-16,16.8-28.7c-4.1-12.9-9.3-25.3-15.4-37.2c-6.1-11.7-21.1-15.6-32.1-8.3l0,0
		c-9.5,6.3-22.3,4.4-29.5-4.4c-4-4.8-8.2-9.5-12.7-14c-4.5-4.5-9.2-8.7-14-12.7c-8.8-7.2-10.7-20-4.4-29.5l0,0
		c7.3-11.1,3.4-26-8.3-32.1c-11.8-6.2-24.3-11.3-37.2-15.4c-12.6-4-26,3.8-28.7,16.8l0,0c-2.3,11.2-12.6,18.9-24,17.8
		c-6.2-0.6-12.5-0.9-18.8-0.9c-6.4,0-12.6,0.3-18.8,0.9c-11.3,1.1-21.7-6.6-24-17.8l0,0c-2.7-13-16-20.8-28.7-16.8
		c-12.9,4.1-25.3,9.3-37.2,15.4C329.6,246.5,325.8,261.5,333.1,272.5z"/>
	<g id="DANK_1_">
		<path id="K_1_" class="st1" d="M531.5,516.6c3.2-4.2,6.4-8.4,9.6-12.7c6.1-9.5,11.3-18.6,13.7-29.3c-0.3-1-0.6-2-1.9-2.8
			c-6-1.6-9.2,2.6-14.6,3c-7.4,1-13.4-0.6-20.6,1.4c-5.4,8.2-10.5,17.3-18.8,23c5.1-16.9,3.3-35.1-6.5-50c-1.9-2.8-5.5-3.9-7.6-3.4
			c-12.3,3.5-25.1,4.9-36.2,12.5c-0.7,1.3-0.4,2.3-0.2,3.4c5.4,7.3,8.4,14.2,9.7,22.6c2.7,13.6,2.4,28,4.2,41.8
			c3.3,15.6,4.9,32.8,16.1,45.1c1-0.3,2.3,0.4,3.4,0.2c7.6-4.4,16.6-3.6,23.9-9c0.7-1.3,0.4-2.3,0.2-3.4c-4.9-9.6-7.6-18.8-8.4-29.6
			c5.5,11.7,15.9,20.9,25.9,29.1c2.3,1.3,4.5,1.8,6.3,1.5c9.3-6.8,17.8-14.8,25.1-23.7C546,531.5,537.9,524.9,531.5,516.6z"/>
		<path id="N_1_" class="st1" d="M381.5,518.7c6.1-7.9,9.2-21.3,20.3-19.8c2.5,0.3,4.8,1.9,6.9,4.7c0.9,2.6,1.8,5.3,1.5,7.7
			c-9.7,16.2-21.9,32.1-20.8,51.1c0.7,3.9,3,5.4,5.3,7c2.5,0.3,3.5,1.7,6,2.1c14.8,2,29.2,6.5,43.6,2.2c1.4-1.1,1.6-2.3,1.7-3.5
			c-1.1-10.2,1.5-19.9,2.8-29.7c0.5-3.7,3.5-7,4-10.7c2.9-12.1,4.6-24.4,1.4-37.4c-7-22.3-36.4-27.5-55.3-17.6
			c1.9-4.8,0.3-11.2-4.5-13.2c-15.8-3.4-30.3-7.9-45.9-3.8c-1.4,1.1-1.6,2.3-1.7,3.5c1,20.2-7.5,36.6-11.3,54.9
			c-0.3,1.9-0.5,3.8-0.8,5.7c9.2,14.7,21.1,27.5,35,37.8c2-5.9,1.5-11,2.3-17.1C374.4,534.1,376.8,525.6,381.5,518.7z"/>
		<path id="A_1_" class="st1" d="M474,350.6c3.2,6.3,10.5,5.6,15.1,8.4c8.2,4.3,16.3,8.5,24.4,14c5-2,11-1.6,13.1,3.4
			c-0.1,1.2-0.3,3.6-0.4,4.8c-0.1,1.2-2.8,4.6-2.8,4.6c-12.9-5.8-25.4-16.5-39.9-17.6c-6-0.5-13.4,0.2-19.7,3.4
			c-8.9,5.4-14.4,13.5-17.5,22.9c-2,10.8,3.5,18.4,7.7,26c10.1,10.5,26.6,16.6,40.4,10.3c-1.5,3.5-3,7.1-0.7,9.6
			c13.7,10.7,30.4,14.4,46.2,14.4c4.1-5.8,3.4-13.1,6.4-20.1c5.8-12.9,14-24.4,17.5-38.7c0.4-4.8,0.6-8.4,1-13.3
			c0.2-2.2-0.6-5.4-1.5-7.9c-5-7.5-10.7-14.5-17-20.9C525.6,340.8,493.6,328.3,474,350.6z M498.6,410.7c-4.9,0.8-7.1-1.8-10.6-4.4
			c-3.3-3.9-0.6-8.5,4.3-9.4c2.4,0.2,3.6,0.3,5.9,1.7c3.5,1.5,7,4.2,10.4,6.8C505,406.3,503.4,411,498.6,410.7z"/>
		<path id="D_1_" class="st1" d="M393,365.2c-4.8-3.5-9.4-6-14.9-7.3c-12.9-1.2-24.9,3.7-33,13.4c-2.5,4.6-5,9.2-6.4,13.7
			c-4,22.9,5.4,50.1,24.5,64.2c14.7,6.3,35.3,2.1,41.4-13.6c1.3,1.9,2.7,3.8,5.1,5.6c1.2,0.9,3.3,0.6,4.3,0.4
			c10.9-3.7,23.3-4.6,32.7-12c0.2-1.1,0.3-1.8,0.4-2.9c-5.6-7.9-10-14.8-11.4-24.4c-4.5-24.2-5.3-49.6-16.8-71.5
			c-2.9-5.6-9.1-8.6-15.3-7.5c-1.7,0.3-3.3,0.6-5,0.8c-5.7,2.3-11.1,5-16.4,8c0.7,4.8,4.4,8.7,6.8,13.5
			C390.9,351.8,393.1,358.9,393,365.2z M391.8,414.2c-0.9,1.2-0.7,2.2-1.8,2.4c-5,1.8-10.5,0.5-12.3-4.5c-2.3-8.1-5-19.4,2.5-25.8
			c1-0.2,3.1-0.5,4.1-0.6c11,2.6,6.3,13.9,8.6,22C393.3,409.7,392.5,412,391.8,414.2z"/>
	</g>
</g>
</svg>
