<?xml version="1.0" encoding="utf-8"?>
<!-- Generator: Adobe Illustrator 21.0.2, SVG Export Plug-In . SVG Version: 6.00 Build 0)  -->
<svg version="1.1" id="Layer_1" xmlns="http://www.w3.org/2000/svg" xmlns:xlink="http://www.w3.org/1999/xlink" x="0px" y="0px"
	 viewBox="0 0 1000 1000" style="enable-background:new 0 0 1000 1000;" xml:space="preserve">
<style type="text/css">
	.st0{fill:#9933CC;}
	.st1{fill:#66CCFF;stroke:#000000;stroke-miterlimit:10;}
	.st2{fill:#3399FF;stroke:#000000;stroke-width:9;stroke-miterlimit:10;}
	.st3{fill:#3399FF;stroke:#000000;stroke-width:10;stroke-miterlimit:10;}
	.st4{fill:#3399FF;stroke:#000000;stroke-width:8;stroke-miterlimit:10;}
	.st5{stroke:#000000;stroke-width:24;stroke-miterlimit:10;}
	.st6{stroke:#0066FF;stroke-width:10;stroke-miterlimit:10;}
</style>
<g>
	<path class="st0" d="M500.1,986c-49.2,0-98.4-8.2-146.4-24.5c-39-13.2-77.4-31.8-114.1-55.1c-67.8-43.2-106.9-88.3-108.5-90.2
		c-18.4-21.4-45.3-57.1-69-105.2c-33.8-68.6-49.9-139.5-47.9-210.6c1.6-55.4,14.6-114.2,37.7-170.2c23.6-57.2,57.7-111.5,98.7-157.1
		c44.1-49,95.2-87.6,151.9-114.7C364,28.9,430.5,14,500.1,14c65.6,0,129.2,12.8,189.1,38.2c57.9,24.5,109.8,59.5,154.5,104.2
		s79.7,96.6,104.1,154.5C973.2,370.7,986,434.4,986,500s-12.8,129.3-38.2,189.2C923.3,747,888.3,799,843.7,843.7
		c-44.6,44.6-96.6,79.7-154.5,104.2C629.3,973.2,565.7,986,500.1,986z"/>
	<path d="M500.1,28c63.7,0,125.5,12.5,183.7,37.1c56.2,23.8,106.7,57.8,150,101.2c43.3,43.4,77.4,93.8,101.1,150
		c24.6,58.2,37.1,120,37.1,183.7s-12.5,125.5-37.1,183.7c-23.8,56.2-57.8,106.7-101.1,150c-43.3,43.4-93.8,77.4-150,101.2
		c-58.2,24.6-120,37.1-183.7,37.1c-47.6,0-95.4-8-141.9-23.7c-38-12.8-75.3-30.9-111.1-53.7c-66.1-42.1-103.8-85.7-105.4-87.5
		c-17.8-20.8-44-55.4-67.1-102.3c-32.8-66.6-48.4-135.2-46.4-204c1.6-53.7,14.2-110.8,36.6-165.3c23-55.7,56.2-108.7,96.1-153
		c42.9-47.6,92.5-85.2,147.5-111.5C368.1,42.5,432.6,28,500.1,28 M500.1,0C200.1,0,6.9,270.1,0.2,500
		c-5,173.1,96.5,297.6,120.3,325.3c12.7,14.8,158.4,174.7,379.6,174.7c276.1,0,499.9-223.9,499.9-500S776.2,0,500.1,0L500.1,0z"/>
</g>
<path class="st1" d="M258.9,735.4"/>
<path class="st1" d="M276.4,696.5"/>
<path class="st2" d="M706.8,893.8c-11.3-8.1-6.7-37.1-6.3-49.6c1.5-45.7,17.3-100.5,70.8-105.6c31.4-3,71.1,0.8,100.9,10
	c-18.7,32.4-44.3,62.1-72.2,87c-14.9,13.3-31.3,25.5-47.5,37.1c-9,6.4-29.8,26.1-42,22.9C709,895.1,707.8,894.6,706.8,893.8z"/>
<path class="st2" d="M841.7,316.4c-5.6,6.2-5.5,15.9-6.9,24.4c-16.2,95.4,5.5,115.4,44.3,79.7c16-14.7,36.4,4.1,37.5-17.6
	c0.5-10-3.1-19.6-7.1-28.8c-6.2-14.5-13.3-28.7-22.1-41.9c-4.7-7-10-13.9-17.3-18.2c-7.3-4.3-16.8-5.6-24.1-1.2
	C844.4,313.8,843,315,841.7,316.4z"/>
<path class="st3" d="M89.8,657.5c-0.3-0.8,51.6,9,56.9,11.1c36.3,15,63.9,47.9,89.2,74.6c26.1,27.6,61,59.3,65.3,99.4
	c2.7,25.5-52.9,11.8-64.8,5.9c-23.6-11.6-41.6-33-58.7-52.3C145.2,759.8,104.9,704,89.8,657.5z"/>
<path class="st4" d="M651.2,83.7c0.8,0.3,1.6,0.6,2.6,1c5.2,2.4,10.6,7.5,13.2,9.7c7.8,6.6,13.2,12.7,18.9,18.9
	c9.1,9.7,14.5,18.4,14.3,25.1c-0.3,8.8-0.8,17.8-11.6,22.2c-9.3,3.8-30.9-10.4-41.5-17.9c-17.6-12.6-26.5-22.8-28.3-31.2
	c-2.7-12.9,4.7-22.2,21.2-26.9C642.7,83.8,645.1,81.7,651.2,83.7z"/>
<path class="st5" d="M196.1,451.2c-1.2-140.3,110.4-269,252-287.6c65.8-8.6,134.8,7.5,189,45.8c63.9,45.2,104.7,119.3,116.6,196.7
	s-3.7,157.6-36.4,228.7c-39.7,86.3-107.9,163-197.3,195c-30,10.7-66.6,15.2-91-5.2c-19.9-16.6-25.6-44.3-29.4-69.9
	c-19.7-131.7-22.6-265.9-8.7-398.4c4.2,13.1,20.3,44.5,33.5,40.5c13.2-4,23.8-40.9,31.4-52.3c25.5,102-0.7,208.9-5.5,313.9
	c-1.4,30.8-0.7,62.8,13.7,90.5c3,5.7,7.1,10.9,12.4,14.6c19.7,13.5,39.4-0.3,54.5-13.7c61.3-54.5,114.3-121.2,139.4-199.3
	c25.1-78.1,19.3-168.7-27.9-235.8S503,211.1,426.2,239.9c-48.7,18.2-86.3,59.4-108.8,106.2s-31.2,99.1-34.9,151l-45-30.2
	c-0.2,18-5.8,107-13.6,83.7c-5.2-15.6-18.8-32-22.2-48.1C198.1,485.4,196.3,468.2,196.1,451.2z"/>
<path class="st6" d="M196.1,451.2c-1.2-140.3,110.4-269,252-287.6c65.8-8.6,134.8,7.5,189,45.8c63.9,45.2,104.7,119.3,116.6,196.7
	s-3.7,157.6-36.4,228.7c-39.7,86.3-107.9,163-197.3,195c-30,10.7-66.6,15.2-91-5.2c-19.9-16.6-25.6-44.3-29.4-69.9
	c-19.7-131.7-22.6-265.9-8.7-398.4c4.2,13.1,20.3,44.5,33.5,40.5c13.2-4,23.8-40.9,31.4-52.3c25.5,102-0.7,208.9-5.5,313.9
	c-1.4,30.8-0.7,62.8,13.7,90.5c3,5.7,7.1,10.9,12.4,14.6c19.7,13.5,39.4-0.3,54.5-13.7c61.3-54.5,114.3-121.2,139.4-199.3
	c25.1-78.1,19.3-168.7-27.9-235.8S503,211.1,426.2,239.9c-48.7,18.2-86.3,59.4-108.8,106.2s-31.2,99.1-34.9,151l-45-30.2
	c-0.2,18-5.8,107-13.6,83.7c-5.2-15.6-18.8-32-22.2-48.1C198.1,485.4,196.3,468.2,196.1,451.2z"/>
</svg>
