<?xml version="1.0" encoding="utf-8"?>
<!-- Generator: Adobe Illustrator 21.0.2, SVG Export Plug-In . SVG Version: 6.00 Build 0)  -->
<svg version="1.1" xmlns="http://www.w3.org/2000/svg" xmlns:xlink="http://www.w3.org/1999/xlink" x="0px" y="0px"
	 viewBox="0 0 841.9 595.2" style="enable-background:new 0 0 841.9 595.2;" xml:space="preserve">
<style type="text/css">
	.st0{enable-background:new    ;}
	.st1{fill-rule:evenodd;clip-rule:evenodd;fill:#AD0EE4;}
	.st2{fill:#AD0EE4;}
	.st3{fill-rule:evenodd;clip-rule:evenodd;fill:#FBE909;}
	.st4{fill:#FBE909;}
	.st5{fill-rule:evenodd;clip-rule:evenodd;fill:#FFFFFF;}
	.st6{fill:#FFFFFF;}
</style>
<g id="Elips_1_kopya_1_" class="st0">
	<g id="Elips_1_kopya_2_">
		<g>
			<circle class="st1" cx="400.6" cy="219.8" r="7.1"/>
		</g>
	</g>
	<g id="Elips_1_1_" class="st0">
		<g id="Elips_1">
			<g>
				<circle class="st1" cx="380.5" cy="219.8" r="7.1"/>
			</g>
		</g>
		<g id="Katman_1_xA0_Image_1_">
			<g>
				<path class="st2" d="M320.4,194.2c1.2,0.3,2.5,0.5,3.7,0.9c5.7,2.1,9.3,6.4,11.5,11.9c3.8,9.4,1.3,20.6-6,26.9
					c-3.1,2.7-6.6,4-10.7,4c-19.1,0-38.2,0-57.3,0c-0.7,0-1.4,0-2-0.1c-2.2-0.5-3.7-2.3-3.7-4.7c0-11.4,0-22.7,0-34.1
					c0-2.6,1.6-4,3.9-4.9C279.9,194.2,300.2,194.2,320.4,194.2z M265.5,203.9c0,8.3,0,16.3,0,24.4c0.6,0,1,0,1.5,0
					c12.2,0,24.3,0,36.5,0c4.6,0,9.3,0,13.9,0c4.7-0.1,8.6-2.7,9.8-7c0.6-2,0.8-4.1,0.8-6.1c-0.1-4-1.4-7.4-5-9.7
					c-2-1.3-4.2-1.6-6.5-1.6c-16.6,0-33.1,0-49.7,0C266.4,203.9,266,203.9,265.5,203.9z"/>
				<path class="st2" d="M582,194.2c1,0.6,2.1,0.9,2.8,1.7c2.1,2.1,1.6,5-1,7.1c-2.3,1.8-4.5,3.6-6.9,5.1c-4,2.5-8.1,4.8-12.2,7.2
					c-0.4,0.2-0.8,0.4-1.4,0.8c0.8,0.4,1.5,0.8,2.1,1.1c6.6,3.2,12.7,7.4,18.5,12c1.6,1.3,2.6,2.8,2.1,5c-0.4,1.9-1.6,3.1-3.5,3.6
					c-1.7,0.5-3.1-0.2-4.5-1.1c-4.3-2.9-8.5-5.9-12.9-8.5c-6.1-3.6-12.6-6.1-19.6-7c-1.6-0.2-3.3-0.3-4.9-0.3c-7.4,0-14.8,0-22.2,0
					c-0.3,0-0.5,0-1,0c0,0.5-0.1,1-0.1,1.4c0,3.6,0,7.1,0,10.7c-0.1,3.5-3.2,5.7-6.3,4.6c-2-0.7-3.2-2.4-3.2-4.7
					c0-9.1,0-18.2,0-27.2c0-1.8,0.1-3.6,0-5.4c-0.2-3,1-5.1,3.9-6.1c0.6,0,1.1,0,1.7,0c3.3,1.4,4,2.5,4,6.1c0,3.2,0,6.4,0,9.6
					c0,0.4,0,0.8,0.1,1.3c0.6,0,1,0,1.4,0c6.8,0,13.5-0.1,20.3,0c5.8,0.1,11.3-1,16.8-3c7.6-2.8,14.3-7.1,20.8-11.7
					c1.2-0.9,2.6-1.5,3.9-2.3C581,194.2,581.5,194.2,582,194.2z"/>
				<path class="st2" d="M486.2,194.2c0.8,0.2,1.7,0.4,2.5,0.6c4,1.1,7,3.7,9.4,7c3,4.1,4.5,8.8,4.5,13.9c0.1,5.7,0,11.4,0,17.2
					c0,2.9-2,5-4.8,5c-2.8,0-4.8-2.1-4.8-5c0-5.4,0-10.7,0-16.1c0-1.7-0.2-3.4-0.6-5c-1.2-5-5.2-7.9-11-7.9c-11.8,0-23.7,0-35.5,0
					c-0.6,0-1.1,0-1.7,0.1c-5.3,0.6-8.8,3.9-9.6,9.3c-0.2,1.1-0.2,2.3-0.2,3.5c0,5.5,0,11,0,16.4c0,2.1-1.3,3.9-3.2,4.5
					c-1.9,0.7-4.1,0.2-5.3-1.4c-0.6-0.8-1.1-1.9-1.1-2.9c-0.1-6.2-0.3-12.3,0-18.5c0.3-7,3.1-12.9,8.8-17.3c2.2-1.7,4.6-2.8,7.4-3.1
					c0.2,0,0.4-0.1,0.5-0.2C456.6,194.2,471.4,194.2,486.2,194.2z"/>
				<path class="st2" d="M403.7,194.2c0.8,0.2,1.7,0.4,2.5,0.6c4,1.1,7,3.7,9.4,7c3,4.1,4.5,8.8,4.5,13.9c0.1,5.7,0,11.4,0,17.2
					c0,2.9-2,5-4.8,5c-2.8,0-4.8-2.1-4.8-5c0-5.4,0-10.8,0-16.2c0-1.6-0.2-3.3-0.5-4.9c-1.1-5-5.2-7.9-10.7-8
					c-6.9,0-13.8-0.1-20.7,0.1c-2.3,0.1-3.5-0.8-4.4-2.8c7.9-1.3,15.7-3.1,22.8-6.9C399.2,194.2,401.4,194.2,403.7,194.2z"/>
				<path class="st2" d="M352.2,214.6c6.2,0,12.3,0,18.5,0c0,3.7,0,7.3,0,11c-6.2,0-12.3,0-18.6,0c0,2.6,0,5.1,0,7.5
					c-0.1,2.9-2.2,4.8-5.1,4.8c-2.4-0.1-4.5-2-4.5-4.4c0-6.4-0.1-12.8,0.1-19.2c0.1-4.4,1.7-8.5,4.3-12.1c0.2-0.3,0.8-0.6,1.2-0.6
					c2.2,0.1,4.3,0.4,6.5,0.4c1.2,0,2.1,0.4,2.8,1.4c0.3,0.4,0.6,0.8,1,1.3C354.3,206.8,352.5,210.2,352.2,214.6z"/>
			</g>
			<g id="Şekil_1_1_" class="st0">
				<g id="Şekil_1">
					<g>
						<path class="st3" d="M400.3,179.1c0-11-18.9-19.9-42.1-19.9c-23.3,0-42.1,8.9-42.1,19.9c0,10.6,17.5,19.2,39.6,19.8
							c5.2,4.3,12.7,9.2,20.3,9.2c-4-2.1-6.5-6.2-8-9.7C386.4,196.4,400.3,188.5,400.3,179.1z"/>
					</g>
				</g>
			</g>
		</g>
	</g>
	<path class="st1" d="M437.7,217.1c-0.6,0.4,1.4,5.7,5.7,6.8c5.8,1.5,11.5-5.9,11-6.5c-0.4-0.5-5.8,4.2-11.4,2.8
		C439.7,219.3,438.1,216.8,437.7,217.1z"/>
	<path class="st1" d="M442.4,220.2"/>
	<path class="st1" d="M457.4,217.4c-0.6,0.4,1.4,5.7,5.7,6.8c5.8,1.5,11.5-5.9,11-6.5c-0.4-0.5-5.8,4.2-11.4,2.8
		C459.4,219.6,457.8,217.1,457.4,217.4z"/>
</g>
<g id="Layer_5">
	<rect x="15.2" y="395.6" class="st2" width="814" height="189"/>
</g>
<g id="Layer_6">
	<g id="Elips_1_kopya_3_">
		<g>
			<circle class="st3" cx="243.1" cy="500" r="3.9"/>
		</g>
	</g>
	<g id="Elips_1_3_">
		<g>
			<circle class="st3" cx="232.1" cy="500" r="3.9"/>
		</g>
	</g>
	<g>
		<path class="st4" d="M199.2,486c0.7,0.2,1.4,0.3,2,0.5c3.1,1.2,5.1,3.5,6.3,6.5c2.1,5.2,0.7,11.3-3.3,14.8
			c-1.7,1.5-3.6,2.2-5.9,2.2c-10.5,0-20.9,0-31.4,0c-0.4,0-0.8,0-1.1-0.1c-1.2-0.2-2-1.3-2-2.6c0-6.2,0-12.4,0-18.7
			c0-1.4,0.9-2.2,2.1-2.7C177,486,188.1,486,199.2,486z M169.1,491.3c0,4.5,0,8.9,0,13.4c0.3,0,0.6,0,0.8,0c6.7,0,13.3,0,20,0
			c2.5,0,5.1,0,7.6,0c2.6,0,4.7-1.5,5.4-3.8c0.3-1.1,0.4-2.2,0.4-3.4c-0.1-2.2-0.8-4.1-2.8-5.3c-1.1-0.7-2.3-0.9-3.6-0.9
			c-9.1,0-18.1,0-27.2,0C169.6,491.3,169.4,491.3,169.1,491.3z"/>
		<path class="st4" d="M342.5,486c0.5,0.3,1.1,0.5,1.5,0.9c1.1,1.2,0.9,2.8-0.6,3.9c-1.2,1-2.5,2-3.8,2.8c-2.2,1.4-4.4,2.6-6.7,3.9
			c-0.2,0.1-0.5,0.2-0.8,0.4c0.4,0.2,0.8,0.4,1.2,0.6c3.6,1.8,7,4,10.1,6.6c0.9,0.7,1.4,1.5,1.2,2.7c-0.2,1-0.9,1.7-1.9,2
			c-0.9,0.3-1.7-0.1-2.5-0.6c-2.3-1.6-4.7-3.2-7.1-4.6c-3.3-2-6.9-3.3-10.8-3.8c-0.9-0.1-1.8-0.2-2.7-0.2c-4.1,0-8.1,0-12.2,0
			c-0.2,0-0.3,0-0.5,0c0,0.3,0,0.5,0,0.8c0,1.9,0,3.9,0,5.8c0,1.9-1.7,3.1-3.5,2.5c-1.1-0.4-1.7-1.3-1.7-2.6c0-5,0-9.9,0-14.9
			c0-1,0.1-2,0-3c-0.1-1.7,0.5-2.8,2.1-3.3c0.3,0,0.6,0,0.9,0c1.8,0.8,2.2,1.3,2.2,3.4c0,1.8,0,3.5,0,5.3c0,0.2,0,0.5,0,0.7
			c0.3,0,0.5,0,0.8,0c3.7,0,7.4,0,11.1,0c3.2,0,6.2-0.6,9.2-1.7c4.2-1.5,7.8-3.9,11.4-6.4c0.7-0.5,1.4-0.8,2.1-1.3
			C342,486,342.2,486,342.5,486z"/>
		<path class="st4" d="M290,486c0.5,0.1,0.9,0.2,1.4,0.3c2.2,0.6,3.9,2,5.2,3.8c1.6,2.3,2.4,4.8,2.5,7.6c0,3.1,0,6.3,0,9.4
			c0,1.6-1.1,2.7-2.6,2.7c-1.5,0-2.6-1.1-2.6-2.8c0-2.9,0-5.9,0-8.8c0-0.9-0.1-1.8-0.3-2.7c-0.6-2.8-2.9-4.3-6-4.3
			c-6.5,0-13,0-19.5,0c-0.3,0-0.6,0-0.9,0c-2.9,0.3-4.8,2.2-5.2,5.1c-0.1,0.6-0.1,1.3-0.1,1.9c0,3,0,6,0,9c0,1.2-0.7,2.1-1.7,2.5
			c-1.1,0.4-2.2,0.1-2.9-0.8c-0.3-0.5-0.6-1.1-0.6-1.6c-0.1-3.4-0.1-6.8,0-10.1c0.2-3.8,1.7-7.1,4.8-9.5c1.2-0.9,2.5-1.5,4.1-1.7
			c0.1,0,0.2-0.1,0.3-0.1C273.8,486,281.9,486,290,486z"/>
		<path class="st4" d="M244.8,486c0.5,0.1,0.9,0.2,1.4,0.3c2.2,0.6,3.9,2,5.2,3.8c1.6,2.3,2.4,4.8,2.5,7.6c0,3.1,0,6.3,0,9.4
			c0,1.6-1.1,2.7-2.6,2.7c-1.5,0-2.6-1.1-2.6-2.7c0-3,0-5.9,0-8.9c0-0.9-0.1-1.8-0.3-2.7c-0.6-2.7-2.8-4.3-5.9-4.4
			c-3.8,0-7.6-0.1-11.4,0c-1.2,0-1.9-0.4-2.4-1.5c4.3-0.7,8.6-1.7,12.5-3.8C242.3,486,243.6,486,244.8,486z"/>
		<path class="st4" d="M216.6,497.2c3.4,0,6.8,0,10.2,0c0,2,0,4,0,6c-3.4,0-6.8,0-10.2,0c0,1.4,0,2.8,0,4.1c0,1.6-1.2,2.7-2.8,2.6
			c-1.3,0-2.5-1.1-2.5-2.4c0-3.5-0.1-7,0-10.5c0.1-2.4,0.9-4.7,2.4-6.7c0.1-0.2,0.5-0.3,0.7-0.3c1.2,0.1,2.4,0.2,3.5,0.2
			c0.7,0,1.2,0.2,1.5,0.8c0.1,0.2,0.3,0.4,0.6,0.7C217.8,492.9,216.7,494.7,216.6,497.2z"/>
	</g>
	<g id="Şekil_1_3_">
		<g>
			<path class="st3" d="M242.9,477.7c0-6-10.3-10.9-23.1-10.9c-12.7,0-23.1,4.9-23.1,10.9c0,5.8,9.6,10.5,21.7,10.9
				c2.8,2.4,6.9,5.1,11.1,5.1c-2.2-1.1-3.5-3.4-4.4-5.3C235.4,487.2,242.9,482.9,242.9,477.7z"/>
		</g>
	</g>
	<path class="st3" d="M263.5,498c-0.3,0.2,0.8,3.1,3.1,3.7c3.2,0.8,6.3-3.2,6.1-3.5c-0.2-0.3-3.2,2.3-6.3,1.5
		C264.6,499.2,263.7,497.8,263.5,498z"/>
	<path class="st3" d="M266,499.7"/>
	<path class="st3" d="M274.2,498.1c-0.3,0.2,0.8,3.1,3.1,3.7c3.2,0.8,6.3-3.2,6.1-3.5c-0.2-0.3-3.2,2.3-6.3,1.5
		C275.3,499.3,274.5,498,274.2,498.1z"/>
	<g id="Elips_1_kopya_6_">
		<g>
			<circle class="st5" cx="561.1" cy="501.7" r="3.9"/>
		</g>
	</g>
	<g id="Elips_1_5_">
		<g>
			<circle class="st5" cx="550" cy="501.7" r="3.9"/>
		</g>
	</g>
	<g>
		<path class="st6" d="M517.1,487.6c0.7,0.2,1.4,0.3,2,0.5c3.1,1.2,5.1,3.5,6.3,6.5c2.1,5.2,0.7,11.3-3.3,14.8
			c-1.7,1.5-3.6,2.2-5.9,2.2c-10.5,0-20.9,0-31.4,0c-0.4,0-0.8,0-1.1-0.1c-1.2-0.2-2-1.3-2-2.6c0-6.2,0-12.4,0-18.7
			c0-1.4,0.9-2.2,2.1-2.7C494.9,487.6,506,487.6,517.1,487.6z M487.1,492.9c0,4.5,0,8.9,0,13.4c0.3,0,0.6,0,0.8,0c6.7,0,13.3,0,20,0
			c2.5,0,5.1,0,7.6,0c2.6,0,4.7-1.5,5.4-3.8c0.3-1.1,0.4-2.2,0.4-3.4c-0.1-2.2-0.8-4.1-2.8-5.3c-1.1-0.7-2.3-0.9-3.6-0.9
			c-9.1,0-18.1,0-27.2,0C487.5,492.9,487.3,492.9,487.1,492.9z"/>
		<path class="st6" d="M660.4,487.6c0.5,0.3,1.1,0.5,1.5,0.9c1.1,1.2,0.9,2.8-0.6,3.9c-1.2,1-2.5,2-3.8,2.8
			c-2.2,1.4-4.4,2.6-6.7,3.9c-0.2,0.1-0.5,0.2-0.8,0.4c0.4,0.2,0.8,0.4,1.2,0.6c3.6,1.8,7,4,10.1,6.6c0.9,0.7,1.4,1.5,1.2,2.7
			c-0.2,1-0.9,1.7-1.9,2c-0.9,0.3-1.7-0.1-2.5-0.6c-2.3-1.6-4.7-3.2-7.1-4.6c-3.3-2-6.9-3.3-10.8-3.8c-0.9-0.1-1.8-0.2-2.7-0.2
			c-4.1,0-8.1,0-12.2,0c-0.2,0-0.3,0-0.5,0c0,0.3,0,0.5,0,0.8c0,1.9,0,3.9,0,5.8c0,1.9-1.7,3.1-3.5,2.5c-1.1-0.4-1.7-1.3-1.7-2.6
			c0-5,0-9.9,0-14.9c0-1,0.1-2,0-3c-0.1-1.7,0.5-2.8,2.1-3.3c0.3,0,0.6,0,0.9,0c1.8,0.8,2.2,1.3,2.2,3.4c0,1.8,0,3.5,0,5.3
			c0,0.2,0,0.5,0,0.7c0.3,0,0.5,0,0.8,0c3.7,0,7.4,0,11.1,0c3.2,0,6.2-0.6,9.2-1.7c4.2-1.5,7.8-3.9,11.4-6.4
			c0.7-0.5,1.4-0.8,2.1-1.3C659.9,487.6,660.2,487.6,660.4,487.6z"/>
		<path class="st6" d="M608,487.6c0.5,0.1,0.9,0.2,1.4,0.3c2.2,0.6,3.9,2,5.2,3.8c1.6,2.3,2.4,4.8,2.5,7.6c0,3.1,0,6.3,0,9.4
			c0,1.6-1.1,2.7-2.6,2.7c-1.5,0-2.6-1.1-2.6-2.8c0-2.9,0-5.9,0-8.8c0-0.9-0.1-1.8-0.3-2.7c-0.6-2.8-2.9-4.3-6-4.3
			c-6.5,0-13,0-19.5,0c-0.3,0-0.6,0-0.9,0c-2.9,0.3-4.8,2.2-5.2,5.1c-0.1,0.6-0.1,1.3-0.1,1.9c0,3,0,6,0,9c0,1.2-0.7,2.1-1.7,2.5
			c-1.1,0.4-2.2,0.1-2.9-0.8c-0.3-0.5-0.6-1.1-0.6-1.6c-0.1-3.4-0.1-6.8,0-10.1c0.2-3.8,1.7-7.1,4.8-9.5c1.2-0.9,2.5-1.5,4.1-1.7
			c0.1,0,0.2-0.1,0.3-0.1C591.8,487.6,599.9,487.6,608,487.6z"/>
		<path class="st6" d="M562.8,487.6c0.5,0.1,0.9,0.2,1.4,0.3c2.2,0.6,3.9,2,5.2,3.8c1.6,2.3,2.4,4.8,2.5,7.6c0,3.1,0,6.3,0,9.4
			c0,1.6-1.1,2.7-2.6,2.7c-1.5,0-2.6-1.1-2.6-2.7c0-3,0-5.9,0-8.9c0-0.9-0.1-1.8-0.3-2.7c-0.6-2.7-2.8-4.3-5.9-4.4
			c-3.8,0-7.6-0.1-11.4,0c-1.2,0-1.9-0.4-2.4-1.5c4.3-0.7,8.6-1.7,12.5-3.8C560.3,487.6,561.5,487.6,562.8,487.6z"/>
		<path class="st6" d="M534.5,498.8c3.4,0,6.8,0,10.2,0c0,2,0,4,0,6c-3.4,0-6.8,0-10.2,0c0,1.4,0,2.8,0,4.1c0,1.6-1.2,2.7-2.8,2.6
			c-1.3,0-2.5-1.1-2.5-2.4c0-3.5-0.1-7,0-10.5c0.1-2.4,0.9-4.7,2.4-6.7c0.1-0.2,0.5-0.3,0.7-0.3c1.2,0.1,2.4,0.2,3.5,0.2
			c0.7,0,1.2,0.2,1.5,0.8c0.1,0.2,0.3,0.4,0.6,0.7C535.7,494.5,534.7,496.4,534.5,498.8z"/>
	</g>
	<g id="Şekil_1_5_">
		<g>
			<path class="st5" d="M560.9,479.4c0-6-10.3-10.9-23.1-10.9c-12.7,0-23.1,4.9-23.1,10.9c0,5.8,9.6,10.5,21.7,10.9
				c2.8,2.4,6.9,5.1,11.1,5.1c-2.2-1.1-3.5-3.4-4.4-5.3C553.3,488.8,560.9,484.5,560.9,479.4z"/>
		</g>
	</g>
	<path class="st5" d="M581.4,499.6c-0.3,0.2,0.8,3.1,3.1,3.7c3.2,0.8,6.3-3.2,6.1-3.5c-0.2-0.3-3.2,2.3-6.3,1.5
		C582.5,500.8,581.6,499.4,581.4,499.6z"/>
	<path class="st5" d="M584,501.3"/>
	<path class="st5" d="M592.2,499.8c-0.3,0.2,0.8,3.1,3.1,3.7c3.2,0.8,6.3-3.2,6.1-3.5c-0.2-0.3-3.2,2.3-6.3,1.5
		C593.3,501,592.4,499.6,592.2,499.8z"/>
</g>
</svg>
