<?xml version="1.0" encoding="UTF-8" standalone="no"?>
<!-- Created with Inkscape (http://www.inkscape.org/) -->

<svg
   xmlns:dc="http://purl.org/dc/elements/1.1/"
   xmlns:cc="http://creativecommons.org/ns#"
   xmlns:rdf="http://www.w3.org/1999/02/22-rdf-syntax-ns#"
   xmlns:svg="http://www.w3.org/2000/svg"
   xmlns="http://www.w3.org/2000/svg"
   xmlns:sodipodi="http://sodipodi.sourceforge.net/DTD/sodipodi-0.dtd"
   xmlns:inkscape="http://www.inkscape.org/namespaces/inkscape"
   version="1.1"
   id="svg2"
   width="3873.793"
   height="2296.7771"
   viewBox="0 0 3873.7931 2296.7771"
   sodipodi:docname="somehwere.svg"
   inkscape:version="0.92.3 (2405546, 2018-03-11)">
  <metadata
     id="metadata8">
    <rdf:RDF>
      <cc:Work
         rdf:about="">
        <dc:format>image/svg+xml</dc:format>
        <dc:type
           rdf:resource="http://purl.org/dc/dcmitype/StillImage" />
        <dc:title></dc:title>
      </cc:Work>
    </rdf:RDF>
  </metadata>
  <defs
     id="defs6" />
  <sodipodi:namedview
     pagecolor="#ffffff"
     bordercolor="#666666"
     borderopacity="1"
     objecttolerance="10"
     gridtolerance="10"
     guidetolerance="10"
     inkscape:pageopacity="0"
     inkscape:pageshadow="2"
     inkscape:window-width="1311"
     inkscape:window-height="705"
     id="namedview4"
     showgrid="false"
     inkscape:snap-global="true"
     inkscape:zoom="0.11313708"
     inkscape:cx="3106.9304"
     inkscape:cy="2019.1049"
     inkscape:window-x="55"
     inkscape:window-y="27"
     inkscape:window-maximized="1"
     inkscape:current-layer="svg2"
     fit-margin-top="0"
     fit-margin-left="0"
     fit-margin-right="0"
     fit-margin-bottom="0" />
  <rect
     style="opacity:1;fill:#98fb98;fill-opacity:1;fill-rule:nonzero;stroke:#ffffff;stroke-width:100;stroke-miterlimit:4;stroke-dasharray:none;stroke-opacity:1"
     id="rect4832"
     width="3773.793"
     height="2196.7771"
     x="50"
     y="50" />
  <path
     style="fill:#696969;fill-opacity:1;stroke:#000000;stroke-width:8;stroke-linecap:butt;stroke-linejoin:miter;stroke-miterlimit:4;stroke-dasharray:none;stroke-opacity:1"
     d="m 1286.5184,1586.4707 c 0,0 -191.819,86.4946 -275.5255,156.2034 -120.64847,116.0225 -120.10524,301.9822 -116.75621,452.6886 l 1177.55711,0.896 c 0,0 -32.9803,-206.0415 -69.3433,-303.8897 -40.0797,-107.8492 -147.5254,-262.5084 -147.5254,-262.5084 z"
     id="path4710"
     inkscape:connector-curvature="0"
     sodipodi:nodetypes="ccccscc" />
  <path
     style="fill:#000000;stroke:#000000;stroke-width:8;stroke-linecap:butt;stroke-linejoin:miter;stroke-miterlimit:4;stroke-dasharray:none;stroke-opacity:1"
     d="m 1685.6859,1685.8668 c -61.2813,-98.1481 -290.8948,-86.9395 -219.644,-92.656 237.2158,-155.0557 322.7552,31.4604 390.7994,192.9717 47.2398,112.1295 -124.5473,352.0348 -124.5473,352.0348 0,0 21.6587,-343.0149 -46.6081,-452.3505 z"
     id="path4758"
     inkscape:connector-curvature="0"
     sodipodi:nodetypes="scscs" />
  <path
     sodipodi:nodetypes="scscs"
     inkscape:connector-curvature="0"
     id="path4708"
     d="m 1693.9584,1674.6624 c -61.2813,-98.1481 -290.8948,-86.9394 -219.644,-92.656 237.2158,-155.0557 322.7552,31.4604 390.7994,192.9717 47.2398,112.1295 -124.5473,352.0349 -124.5473,352.0349 0,0 21.6587,-343.015 -46.6081,-452.3506 z"
     style="fill:#696969;stroke:#000000;stroke-width:8;stroke-linecap:butt;stroke-linejoin:miter;stroke-miterlimit:4;stroke-dasharray:none;stroke-opacity:1" />
  <path
     style="fill:#000000;stroke:#000000;stroke-width:8;stroke-linecap:butt;stroke-linejoin:miter;stroke-miterlimit:4;stroke-dasharray:none;stroke-opacity:1"
     d="m 1159.9287,1836.4189 c -43.3397,-107.2852 100.7643,-286.3999 54.2373,-232.1356 -264.91534,100.6648 -164.3719,279.5398 -73.7627,429.5594 62.9057,104.1514 357.9661,106.305 357.9661,106.305 0,0 -290.1608,-184.2144 -338.4407,-303.7288 z"
     id="path4762"
     inkscape:connector-curvature="0"
     sodipodi:nodetypes="scscs" />
  <path
     style="fill:#67974c;fill-opacity:1;stroke:#000000;stroke-width:8;stroke-linecap:butt;stroke-linejoin:miter;stroke-miterlimit:4;stroke-dasharray:none;stroke-opacity:1"
     d="m 1240.9591,1584.3012 -125.8306,97.6272 c 0,0 23.1902,180.845 80.2712,245.1525 68.299,76.9455 177.1521,124.21 279.8644,130.1695 98.8544,5.7356 210.2379,-25.0941 282.0339,-93.2881 20.2533,-19.2372 30.3728,-78.1017 30.3728,-78.1017 z"
     id="path4696"
     inkscape:connector-curvature="0"
     sodipodi:nodetypes="ccssscc" />
  <path
     style="fill:#696969;stroke:#000000;stroke-width:8;stroke-linecap:butt;stroke-linejoin:miter;stroke-miterlimit:4;stroke-dasharray:none;stroke-opacity:1"
     d="m 1154.1794,1831.6233 c -43.3397,-107.2853 100.7643,-286.3999 54.2373,-232.1356 -264.91541,100.6648 -164.372,279.5398 -73.7628,429.5594 62.9057,104.1514 357.9661,106.305 357.9661,106.305 0,0 -290.1608,-184.2144 -338.4406,-303.7288 z"
     id="path4706"
     inkscape:connector-curvature="0"
     sodipodi:nodetypes="scscs" />
  <path
     style="opacity:1;fill:#67974c;fill-opacity:1;fill-rule:nonzero;stroke:#000000;stroke-width:8;stroke-linecap:butt;stroke-linejoin:miter;stroke-miterlimit:4;stroke-dasharray:none;stroke-opacity:1"
     d="m 1809.7967,1460.1996 c 0,0 25.2036,22.6984 33.7494,39.8856 8.4513,16.997 13.8066,55.2262 13.8066,55.2262 l -12.2725,98.18 41.4197,107.3844 c 0,0 -11.1588,91.929 -41.4197,122.725 -15.984,16.2666 -42.02,18.7854 -64.4306,23.0109 -50.7749,9.5735 -103.4055,8.3308 -154.9403,4.6022 -55.9282,-4.0465 -112.7207,-10.7141 -165.6787,-29.1472 -53.8055,-18.7281 -108.3512,-42.7969 -150.338,-81.3053 -35.6422,-32.6894 -65.6856,-74.9247 -79.7713,-121.1909 -28.572,-112.9213 12.0402,-318.2486 110.4525,-349.7662 15.671,-89.3533 89.6103,-169.4426 179.4852,-167.2128 19.073,0.853 38.016,9.045 53.6922,19.9428 16.076,11.1758 38.3515,44.4878 38.3515,44.4878 0,0 18.838,-19.7625 30.6813,-26.079 37.1539,-16.4246 90.5319,-28.9655 127.3271,-10.7384 15.295,8.2349 27.7995,22.6754 35.2835,38.3515 6.0133,12.5955 6.1362,41.4197 6.1362,41.4197 v 6.1362 c 38.4441,13.0934 53.9862,55.9541 72.178,93.0833 l -6.7557,9.0183 -2.5417,9.3054 c 0,0 -8.1316,1.2654 -18.3928,15.9202 -13.971,19.9529 -46.0219,56.7603 -46.0219,56.7603 z"
     id="path836"
     inkscape:connector-curvature="0"
     sodipodi:nodetypes="cscccssssscccscccscccccsc" />
  <path
     style="fill:#eb9187;fill-opacity:1;stroke:#000000;stroke-width:1px;stroke-linecap:butt;stroke-linejoin:miter;stroke-opacity:1"
     d="m 1544.6878,1799.0809 -93.2882,-86.7797 119.3221,-128 151.8644,-36.8813 91.1186,10.8474 54.2373,132.339 21.6949,82.4407 -97.6271,60.7458 z"
     id="path4611"
     inkscape:connector-curvature="0" />
  <path
     style="fill:none;stroke:#a0522d;stroke-width:8;stroke-linecap:butt;stroke-linejoin:miter;stroke-miterlimit:4;stroke-dasharray:none;stroke-opacity:1"
     d="m 1658.6181,1633.737 c 18.6664,68.8829 46.0868,85.2415 72.646,106.7676"
     id="path4613"
     inkscape:connector-curvature="0"
     sodipodi:nodetypes="cc" />
  <path
     style="fill:#fffafa;stroke:#000000;stroke-width:8;stroke-linecap:butt;stroke-linejoin:miter;stroke-miterlimit:4;stroke-dasharray:none;stroke-opacity:1"
     d="m 1865.3915,1573.3028 c 0,0 34.3553,17.836 42.1978,28.2503 6.7184,8.9214 16.7195,29.0631 16.7195,29.0631 -19.2071,3.2389 -45.3315,6.4777 -72.6213,9.7165 l -15.6479,-66.8525 z"
     id="path822"
     inkscape:connector-curvature="0"
     sodipodi:nodetypes="cscccc" />
  <path
     sodipodi:nodetypes="cscccc"
     inkscape:connector-curvature="0"
     id="path834"
     d="m 1609.0123,1584.2611 c 0,0 17.1932,20.2519 21.8832,32.416 4.0177,10.4204 4.7485,33.1662 4.7485,33.1662 l -72.7285,7.2426 c -6.7882,-24.6815 15.1666,-51.5588 21.0534,-78.8182 z"
     style="fill:#fffafa;stroke:#000000;stroke-width:8;stroke-linecap:butt;stroke-linejoin:miter;stroke-miterlimit:4;stroke-dasharray:none;stroke-opacity:1" />
  <path
     style="fill:#fffafa;stroke:#000000;stroke-width:8;stroke-linecap:butt;stroke-linejoin:miter;stroke-miterlimit:4;stroke-dasharray:none;stroke-opacity:1"
     d="m 1670.3748,1582.7271 c 0,0 17.1932,20.2518 21.8832,32.4159 4.0177,10.4204 4.7485,33.1663 4.7485,33.1663 l -83.576,-1.4354 c -6.7882,-24.6816 7.6054,-47.483 13.4922,-74.7424 z"
     id="path830"
     inkscape:connector-curvature="0"
     sodipodi:nodetypes="cscccc" />
  <path
     sodipodi:nodetypes="cscccc"
     inkscape:connector-curvature="0"
     id="path828"
     d="m 1724.067,1581.193 c 0,0 17.1932,20.2518 21.8832,32.416 4.0177,10.4204 4.7485,33.1662 4.7485,33.1662 l -68.2354,1.6327 c -6.7882,-24.6815 -7.7352,-50.5511 -1.8484,-77.8105 z"
     style="fill:#fffafa;stroke:#000000;stroke-width:8;stroke-linecap:butt;stroke-linejoin:miter;stroke-miterlimit:4;stroke-dasharray:none;stroke-opacity:1" />
  <path
     style="fill:#fffafa;stroke:#000000;stroke-width:8;stroke-linecap:butt;stroke-linejoin:miter;stroke-miterlimit:4;stroke-dasharray:none;stroke-opacity:1"
     d="m 1775.3177,1581.7297 c 0,0 19.5139,18.0264 25.6391,29.5348 5.2472,9.8587 8.7205,32.3497 8.7205,32.3497 L 1737.8,1646.97 c -9.7203,-23.6807 -9.4466,-42.7379 -6.8962,-70.5089 z"
     id="path826"
     inkscape:connector-curvature="0"
     sodipodi:nodetypes="cscccc" />
  <path
     style="fill:#ae6543;fill-opacity:1;stroke:#000000;stroke-width:8;stroke-linecap:butt;stroke-linejoin:miter;stroke-miterlimit:4;stroke-dasharray:none;stroke-opacity:1"
     d="m 1819.0011,1624.3442 c -43.3945,-7.4179 54.6526,88.9121 50.6241,113.5206 -1.9286,11.7809 -15.1348,19.7774 -26.0791,24.545 -77.5242,33.7715 -253.1202,16.8747 -253.1202,16.8747 0,0 -49.3798,-8.7948 -69.0328,-23.0109 -24.2794,-17.5626 -55.8617,-50.406 -55.8617,-50.406 0,0 68.4128,-86.8476 117.2241,-107.6024 91.9367,-39.092 210.1561,-4.5701 299.1422,-18.4088 13.3398,-2.0745 -3.3757,-36.6407 -16.8747,-36.8175 -63.3648,-0.8295 -235.3963,-35.1148 -312.2681,40.6301 -46.276,45.5976 -116.1075,135.3246 -116.1075,135.3246 0,0 28.8941,41.5751 57.1326,80.2337 24.3737,33.3678 22.517,72.1987 53.6921,81.3053 100.2416,29.2818 238.0012,8.3571 309.8806,-12.2725 30.1269,-8.6465 33.2129,-38.9926 56.7603,-79.7712 34.3523,-59.4902 -46.6038,-155.8525 -95.1119,-164.1447 z"
     id="path12"
     inkscape:connector-curvature="0"
     sodipodi:nodetypes="ssscscassscsssss" />
  <path
     sodipodi:nodetypes="cscccc"
     inkscape:connector-curvature="0"
     id="path824"
     d="m 1825.9418,1581.7297 c 0,0 19.5139,18.0264 25.6391,29.5348 5.2472,9.8587 8.7205,32.3497 8.7205,32.3497 l -58.3339,2.1939 -17.3715,-63.2107 z"
     style="fill:#fffafa;stroke:#000000;stroke-width:8;stroke-linecap:butt;stroke-linejoin:miter;stroke-miterlimit:4;stroke-dasharray:none;stroke-opacity:1" />
  <path
     style="fill:none;stroke:#000000;stroke-width:8;stroke-linecap:butt;stroke-linejoin:miter;stroke-miterlimit:4;stroke-dasharray:none;stroke-opacity:1"
     d="m 1535.1996,1811.4998 c 0,0 23.0989,29.5134 39.8856,35.2835 93.5119,32.1427 296.074,-18.4088 296.074,-18.4088"
     id="path832"
     inkscape:connector-curvature="0"
     sodipodi:nodetypes="csc" />
  <path
     style="fill:none;stroke:#000000;stroke-width:8;stroke-linecap:butt;stroke-linejoin:miter;stroke-miterlimit:4;stroke-dasharray:none;stroke-opacity:1"
     d="m 1340.645,1327.0924 -10.0951,60.3788"
     id="path4541"
     inkscape:connector-curvature="0"
     sodipodi:nodetypes="cc" />
  <path
     style="fill:none;stroke:#000000;stroke-width:8;stroke-linecap:butt;stroke-linejoin:miter;stroke-miterlimit:4;stroke-dasharray:none;stroke-opacity:1"
     d="m 1608.8346,1222.42 26.0791,47.5559"
     id="path4543"
     inkscape:connector-curvature="0" />
  <path
     style="fill:none;stroke:#000000;stroke-width:8;stroke-linecap:butt;stroke-linejoin:miter;stroke-miterlimit:4;stroke-dasharray:none;stroke-opacity:1"
     d="m 1411.3581,1327.2813 c 63.3012,-16.9615 119.5481,-67.1309 169.8634,-68.0439 54.5457,-0.9897 98.8889,36.7231 111.9865,115.0547 0,0 -130.2879,14.9781 -193.2918,32.2153 -39.6612,10.8509 -115.0546,44.4878 -115.0546,44.4878"
     id="path4545"
     inkscape:connector-curvature="0"
     sodipodi:nodetypes="cscsc" />
  <path
     style="fill:none;stroke:#000000;stroke-width:8;stroke-linecap:butt;stroke-linejoin:miter;stroke-miterlimit:4;stroke-dasharray:none;stroke-opacity:1"
     d="m 1533.6656,1397.303 c -43.4586,27.1084 -85.811,55.3228 -121.1909,90.5097"
     id="path4547"
     inkscape:connector-curvature="0"
     sodipodi:nodetypes="cc" />
  <path
     style="fill:none;stroke:#000000;stroke-width:8;stroke-linecap:butt;stroke-linejoin:miter;stroke-miterlimit:4;stroke-dasharray:none;stroke-opacity:1"
     d="m 1455.4284,1501.6193 c 0,0 53.866,-42.8714 84.3734,-58.2944 29.4409,-14.8838 93.5778,-32.2153 93.5778,-32.2153"
     id="path4549"
     inkscape:connector-curvature="0"
     sodipodi:nodetypes="csc" />
  <path
     style="fill:none;stroke:#000000;stroke-width:8;stroke-linecap:butt;stroke-linejoin:miter;stroke-miterlimit:4;stroke-dasharray:none;stroke-opacity:1"
     d="m 1529.0634,1509.2896 c 48.4068,-9.3762 88.071,-27.495 124.259,-49.09"
     id="path4551"
     inkscape:connector-curvature="0"
     sodipodi:nodetypes="cc" />
  <path
     style="fill:none;stroke:#000000;stroke-width:8;stroke-linecap:butt;stroke-linejoin:miter;stroke-miterlimit:4;stroke-dasharray:none;stroke-opacity:1"
     d="m 1697.8102,1374.2921 c 61.9554,-6.1956 124.5223,-16.6723 182.5534,4.6022"
     id="path4553"
     inkscape:connector-curvature="0"
     sodipodi:nodetypes="cc" />
  <path
     style="fill:none;stroke:#000000;stroke-width:8;stroke-linecap:butt;stroke-linejoin:miter;stroke-miterlimit:4;stroke-dasharray:none;stroke-opacity:1"
     d="m 1774.5133,1498.5511 -67.4987,-33.7493 c 34.7721,10.0135 69.5441,13.8052 104.3162,-4.6022"
     id="path4555"
     inkscape:connector-curvature="0"
     sodipodi:nodetypes="ccc" />
  <path
     style="fill:none;stroke:#000000;stroke-width:8;stroke-linecap:butt;stroke-linejoin:miter;stroke-miterlimit:4;stroke-dasharray:none;stroke-opacity:1"
     d="m 1725.7504,1394.7162 c 49.4002,19.7249 65.9672,23.2568 119.3298,27.1318"
     id="path4557"
     inkscape:connector-curvature="0"
     sodipodi:nodetypes="cc" />
  <path
     style="fill:none;stroke:#000000;stroke-width:8;stroke-linecap:butt;stroke-linejoin:miter;stroke-miterlimit:4;stroke-dasharray:none;stroke-opacity:1"
     d="m 1631.8455,1269.9759 c 73.3875,-26.1688 122.5135,-21.7522 192.1301,14.442"
     id="path4559"
     inkscape:connector-curvature="0"
     sodipodi:nodetypes="cc" />
  <path
     style="fill:none;stroke:#a0522d;stroke-width:8;stroke-linecap:butt;stroke-linejoin:miter;stroke-miterlimit:4;stroke-dasharray:none;stroke-opacity:1"
     d="m 1588.0776,1705.7928 c 26.1176,-16.1667 65.7961,-14.8397 114.9831,-2.1695 0,0 59.3111,-16.5234 88.9491,-17.356 13.1913,-0.3705 39.0509,6.5085 39.0509,6.5085"
     id="path4615"
     inkscape:connector-curvature="0"
     sodipodi:nodetypes="ccsc" />
  <path
     style="fill:none;stroke:#000000;stroke-width:8;stroke-linecap:butt;stroke-linejoin:miter;stroke-miterlimit:4;stroke-dasharray:none;stroke-opacity:1"
     d="m 1245.2981,1927.0809 c 0,0 51.9149,-10.0622 73.7627,-23.8644 15.1371,-9.5627 36.8813,-39.0509 36.8813,-39.0509"
     id="path4698"
     inkscape:connector-curvature="0"
     sodipodi:nodetypes="csc" />
  <path
     style="fill:none;stroke:#000000;stroke-width:8;stroke-linecap:butt;stroke-linejoin:miter;stroke-miterlimit:4;stroke-dasharray:none;stroke-opacity:1"
     d="m 1230.1116,1901.047 c 0,0 51.9467,-11.7539 73.7627,-26.0339 12.4149,-8.1264 30.3729,-32.5424 30.3729,-32.5424"
     id="path4700"
     inkscape:connector-curvature="0"
     sodipodi:nodetypes="csc" />
  <path
     style="fill:none;stroke:#000000;stroke-width:8;stroke-linecap:butt;stroke-linejoin:miter;stroke-miterlimit:4;stroke-dasharray:none;stroke-opacity:1"
     d="m 1467.7009,1926.5545 -18.4088,92.0438"
     id="path4730"
     inkscape:connector-curvature="0" />
  <path
     style="fill:none;stroke:#000000;stroke-width:8;stroke-linecap:butt;stroke-linejoin:miter;stroke-miterlimit:4;stroke-dasharray:none;stroke-opacity:1"
     d="m 1513.7227,1926.5545 v 88.9756"
     id="path4732"
     inkscape:connector-curvature="0" />
  <path
     style="fill:#add8e6;stroke:#000000;stroke-width:8;stroke-linecap:butt;stroke-linejoin:miter;stroke-miterlimit:4;stroke-dasharray:none;stroke-opacity:1"
     d="m 1932.418,1427.9762 c 0,0 128.8967,-21.3307 167.7398,19.4044 64.6229,67.7707 -20.5194,137.1766 -41.8585,101.3349 -21.3392,-35.8418 -91.7728,-130.5455 -125.8813,-120.7393 z"
     id="path4752"
     inkscape:connector-curvature="0"
     sodipodi:nodetypes="cszc" />
  <path
     sodipodi:nodetypes="cszc"
     inkscape:connector-curvature="0"
     id="path4754"
     d="m 1970.7294,1376.1873 c 0,0 66.0682,-72.2735 106.1559,-69.1918 66.6937,5.1271 46.7187,82.0262 18.9358,73.2362 -27.783,-8.7899 -109.3893,-25.3631 -125.0917,-4.0444 z"
     style="fill:#add8e6;stroke:#000000;stroke-width:8;stroke-linecap:butt;stroke-linejoin:miter;stroke-miterlimit:4;stroke-dasharray:none;stroke-opacity:1" />
  <path
     style="fill:none;stroke:#000000;stroke-width:8;stroke-linecap:butt;stroke-linejoin:miter;stroke-miterlimit:4;stroke-dasharray:none;stroke-opacity:1"
     d="m 1473.8372,1552.2433 c -52.018,68.6686 -72.7322,117.2905 -76.7031,177.9512"
     id="path4756"
     inkscape:connector-curvature="0"
     sodipodi:nodetypes="cc" />
  <path
     style="fill:#ffffff;stroke:#000000;stroke-width:10;stroke-linecap:butt;stroke-linejoin:miter;stroke-miterlimit:4;stroke-dasharray:none;stroke-opacity:1"
     d="m 2004.6227,1656.5595 c 0,0 178.5359,-61.0243 279.816,-67.7167 725.536,-47.9423 561.2958,-547.6985 718.287,-771.18948 156.9912,-223.49093 419.5383,-340.94624 597.3216,-124.48481 177.7833,216.46143 -268.6684,296.08311 -322.153,481.69549 -127.7238,443.2512 -396.3368,568.2245 -705.6686,641.238 -191.2769,45.1483 -567.603,-159.5425 -567.603,-159.5425 z"
     id="path4773"
     inkscape:connector-curvature="0"
     sodipodi:nodetypes="cszzsac" />
  <g
     aria-label="NAAAAAAAAAAHHHHHHH!"
     style="font-style:normal;font-weight:normal;font-size:40px;line-height:1.25;font-family:sans-serif;letter-spacing:0px;word-spacing:0px;fill:#000000;fill-opacity:1;stroke:none"
     id="text4779"
     transform="translate(430.67493,1215.5032)">
    <path
       d="m 1846.7518,434.66426 17.4775,3.94271 12.6812,46.59959 9.3892,-41.62077 14.8355,3.34673 -13.6895,60.6834 -17.4775,-3.94271 -12.6812,-46.59959 -9.3891,41.62076 -14.8356,-3.34672 z"
       style="font-style:normal;font-variant:normal;font-weight:bold;font-stretch:normal;font-size:85.33333588px;font-family:sans-serif;-inkscape-font-specification:'sans-serif Bold'"
       id="path4784"
       inkscape:connector-curvature="0" />
    <path
       d="m 1942.0608,506.14111 -24.6985,-4.37684 -5.8752,10.46877 -15.8776,-2.81369 33.543,-57.23338 18.8316,3.33715 11.8333,65.27456 -15.8776,-2.81368 z m -18.7459,-15.04347 16.7802,2.97363 -4.0509,-25.85348 z"
       style="font-style:normal;font-variant:normal;font-weight:bold;font-stretch:normal;font-size:85.33333588px;font-family:sans-serif;-inkscape-font-specification:'sans-serif Bold'"
       id="path4786"
       inkscape:connector-curvature="0" />
    <path
       d="m 2006.7384,514.9711 -24.9255,-2.80939 -5.2028,10.81868 -16.0236,-1.80604 29.8642,-59.2362 19.0047,2.14205 15.9292,64.39763 -16.0236,-1.80603 z m -19.658,-13.83043 16.9344,1.9087 -5.6744,-25.54629 z"
       style="font-style:normal;font-variant:normal;font-weight:bold;font-stretch:normal;font-size:85.33333588px;font-family:sans-serif;-inkscape-font-specification:'sans-serif Bold'"
       id="path4788"
       inkscape:connector-curvature="0" />
    <path
       d="m 2071.1742,517.35839 -25.0792,0.45784 -3.7508,11.40369 -16.1223,0.29433 21.9024,-62.61855 19.1218,-0.34908 24.1733,61.77741 -16.1223,0.29432 z m -21.2905,-11.15492 17.0388,-0.31105 -8.9503,-24.59073 z"
       style="font-style:normal;font-variant:normal;font-weight:bold;font-stretch:normal;font-size:85.33333588px;font-family:sans-serif;-inkscape-font-specification:'sans-serif Bold'"
       id="path4790"
       inkscape:connector-curvature="0" />
    <path
       d="m 2134.6481,508.07105 -24.6836,4.4598 -1.8802,11.85655 -15.8681,2.86701 11.6139,-65.31395 18.8203,-3.40041 33.7351,57.12037 -15.868,2.86701 z m -22.7995,-7.60917 16.7702,-3.02999 -12.7651,-22.84436 z"
       style="font-style:normal;font-variant:normal;font-weight:bold;font-stretch:normal;font-size:85.33333588px;font-family:sans-serif;-inkscape-font-specification:'sans-serif Bold'"
       id="path4792"
       inkscape:connector-curvature="0" />
    <path
       d="m 2197.871,492.81439 -24.2225,6.51493 -0.8789,11.97249 -15.5716,4.18817 6.0934,-66.05804 18.4687,-4.96737 38.4084,54.08874 -15.5716,4.18818 z m -23.3575,-5.66956 16.4568,-4.42626 -14.6367,-21.69288 z"
       style="font-style:normal;font-variant:normal;font-weight:bold;font-stretch:normal;font-size:85.33333588px;font-family:sans-serif;-inkscape-font-specification:'sans-serif Bold'"
       id="path4794"
       inkscape:connector-curvature="0" />
    <path
       d="m 2259.5205,472.20981 -23.5644,8.59617 0.1654,12.00357 -15.1485,5.52611 0.3272,-66.33768 17.9669,-6.55423 42.9654,50.54471 -15.1485,5.52611 z m -23.762,-3.61738 16.0097,-5.84026 -16.4672,-20.33823 z"
       style="font-style:normal;font-variant:normal;font-weight:bold;font-stretch:normal;font-size:85.33333588px;font-family:sans-serif;-inkscape-font-specification:'sans-serif Bold'"
       id="path4796"
       inkscape:connector-curvature="0" />
    <path
       d="m 2318.9864,446.12934 -22.6655,10.74461 1.2779,11.93649 -14.5707,6.90726 -5.8267,-66.08211 17.2816,-8.19233 47.468,46.342 -14.5707,6.90726 z m -23.995,-1.39797 15.399,-7.29992 -18.2825,-18.72331 z"
       style="font-style:normal;font-variant:normal;font-weight:bold;font-stretch:normal;font-size:85.33333588px;font-family:sans-serif;-inkscape-font-specification:'sans-serif Bold'"
       id="path4798"
       inkscape:connector-curvature="0" />
    <path
       d="m 2387.2567,410.51504 -24.9725,16.20239 2.8846,14.6587 -16.0537,10.41583 -14.5251,-81.31032 19.0405,-12.35365 60.4049,51.54314 -16.0539,10.41582 z m -27.9411,1.29431 16.9663,-11.00795 -23.3681,-20.93779 z"
       style="font-style:normal;font-variant:normal;font-weight:bold;font-stretch:normal;font-size:85.33333588px;font-family:sans-serif;-inkscape-font-specification:'sans-serif Bold';stroke-width:1.20503628"
       id="path4800"
       inkscape:connector-curvature="0" />
    <path
       d="m 2448.4866,363.55951 -23.0969,19.1372 4.417,14.21292 -14.848,12.30249 -23.0342,-79.01719 17.6104,-14.59132 65.4682,43.85813 -14.8481,12.30249 z m -27.6236,4.68673 15.6921,-13.00184 -25.4326,-17.95835 z"
       style="font-style:normal;font-variant:normal;font-weight:bold;font-stretch:normal;font-size:85.33333588px;font-family:sans-serif;-inkscape-font-specification:'sans-serif Bold';stroke-width:1.20503628"
       id="path4802"
       inkscape:connector-curvature="0" />
    <path
       d="m 2501.535,307.80893 -19.4485,23.34096 6.7636,13.10821 -12.5025,15.0049 -36.1062,-73.17373 14.8286,-17.79651 71.837,30.2915 -12.5025,15.0049 z m -26.3606,10.02074 13.2133,-15.85789 -28.0634,-12.67261 z"
       style="font-style:normal;font-variant:normal;font-weight:bold;font-stretch:normal;font-size:85.33333588px;font-family:sans-serif;-inkscape-font-specification:'sans-serif Bold';stroke-width:1.20503628"
       id="path4804"
       inkscape:connector-curvature="0" />
    <path
       d="m 2470.171,248.42403 9.8497,-17.00547 23.4327,15.61317 14.5315,-25.08858 -23.4327,-15.61316 9.8497,-17.00547 61.4852,40.9674 -9.8497,17.00546 -26.0685,-17.3693 -14.5314,25.08858 26.0684,17.3693 -9.8497,17.00546 z"
       style="font-style:normal;font-variant:normal;font-weight:bold;font-stretch:normal;font-size:85.33333588px;font-family:sans-serif;-inkscape-font-specification:'sans-serif Bold';stroke-width:1.20503628"
       id="path4806"
       inkscape:connector-curvature="0" />
    <path
       d="m 2500.9014,167.08653 10.8429,-23.99989 31.2757,18.17375 15.9967,-35.40761 -31.2759,-18.17374 10.8429,-23.999865 82.0647,47.686115 -10.8427,23.99986 -34.7939,-20.21787 -15.9966,35.40759 34.7938,20.21791 -10.8428,23.99986 z"
       style="font-style:normal;font-variant:normal;font-weight:bold;font-stretch:normal;font-size:85.33333588px;font-family:sans-serif;-inkscape-font-specification:'sans-serif Bold';stroke-width:1.57853186"
       id="path4808"
       inkscape:connector-curvature="0" />
    <path
       d="m 2548.8476,58.505605 11.0918,-23.853139 31.0844,18.590889 16.364,-35.191132 -31.0847,-18.59088611 11.0918,-23.85314189 81.563,48.780655 -11.0918,23.853143 -34.5808,-20.681953 -16.3639,35.191125 34.581,20.68195 -11.0918,23.853145 z"
       style="font-style:normal;font-variant:normal;font-weight:bold;font-stretch:normal;font-size:85.33333588px;font-family:sans-serif;-inkscape-font-specification:'sans-serif Bold';stroke-width:1.57853186"
       id="path4810"
       inkscape:connector-curvature="0" />
    <path
       d="m 2602.4939,-55.630829 12.8762,-22.670749 29.5438,21.581847 18.9964,-33.446715 -29.5437,-21.581854 12.8762,-22.67075 77.5199,56.62865 -12.8763,22.670751 -32.8668,-24.009333 -18.9964,33.446719 32.8668,24.009329 -12.8762,22.67074489 z"
       style="font-style:normal;font-variant:normal;font-weight:bold;font-stretch:normal;font-size:85.33333588px;font-family:sans-serif;-inkscape-font-specification:'sans-serif Bold';stroke-width:1.57853186"
       id="path4812"
       inkscape:connector-curvature="0" />
    <path
       d="m 2637.7674,-184.75964 15.8764,-31.93697 41.9771,30.84087 23.4226,-47.11732 -41.9769,-30.84095 15.8762,-31.93692 110.1437,80.92346 -15.8767,31.93704 -46.6984,-34.30986 -23.4225,47.11731 46.6984,34.30985 -15.8764,31.93697 z"
       style="font-style:normal;font-variant:normal;font-weight:bold;font-stretch:normal;font-size:85.33333588px;font-family:sans-serif;-inkscape-font-specification:'sans-serif Bold';stroke-width:2.19371891"
       id="path4814"
       inkscape:connector-curvature="0" />
    <path
       d="m 2750.3955,-320.20654 20.1038,-28.392 37.7589,37.71456 29.6597,-41.88746 -37.759,-37.71452 20.1036,-28.39198 99.0762,98.95921 -20.1039,28.39201 -42.0061,-41.95658 -29.6596,41.88739 42.0062,41.9566 -20.1039,28.39202 z"
       style="font-style:normal;font-variant:normal;font-weight:bold;font-stretch:normal;font-size:85.33333588px;font-family:sans-serif;-inkscape-font-specification:'sans-serif Bold';stroke-width:2.19371891"
       id="path4816"
       inkscape:connector-curvature="0" />
    <path
       d="m 2867.1096,-433.3228 22.2212,-26.42403 34.8978,40.86806 32.7828,-38.98391 -34.8977,-40.86806 22.2209,-26.42397 91.5681,107.23375 -22.2211,26.42401 -38.8229,-45.46482 -32.7828,38.9839 38.8228,45.46484 -22.221,26.42399 z"
       style="font-style:normal;font-variant:normal;font-weight:bold;font-stretch:normal;font-size:85.33333588px;font-family:sans-serif;-inkscape-font-specification:'sans-serif Bold';stroke-width:2.19371891"
       id="path4818"
       inkscape:connector-curvature="0" />
    <path
       d="m 2994.846,-554.23227 24.7161,-20.58181 27.5393,46.79675 16.5883,37.05367 -17.7131,14.75026 -23.5913,-31.22217 z m 54.646,92.85842 24.7162,-20.58178 17.1098,29.07443 -24.7164,20.58176 z"
       style="font-style:normal;font-variant:normal;font-weight:bold;font-stretch:normal;font-size:85.33333588px;font-family:sans-serif;-inkscape-font-specification:'sans-serif Bold';stroke-width:2.19371891"
       id="path4820"
       inkscape:connector-curvature="0" />
  </g>
  <text
     xml:space="preserve"
     style="font-style:normal;font-variant:normal;font-weight:normal;font-stretch:normal;font-size:40px;line-height:1.25;font-family:'DejaVu Sans';-inkscape-font-specification:'DejaVu Sans';letter-spacing:0px;word-spacing:0px;fill:#000000;fill-opacity:1;stroke:none"
     x="1931.8293"
     y="334.31232"
     id="text4836"><tspan
       sodipodi:role="line"
       id="tspan4834"
       x="1931.8293"
       y="334.31232"
       style="font-style:normal;font-variant:normal;font-weight:normal;font-stretch:normal;font-size:192px;font-family:'Bitstream Charter';-inkscape-font-specification:'Bitstream Charter';text-align:center;text-anchor:middle">Somewhere deep down in my heart...</tspan><tspan
       sodipodi:role="line"
       x="1931.8293"
       y="574.31232"
       style="font-style:normal;font-variant:normal;font-weight:normal;font-stretch:normal;font-size:192px;font-family:'Bitstream Charter';-inkscape-font-specification:'Bitstream Charter';text-align:center;text-anchor:middle"
       id="tspan4838"> I still love you!</tspan></text>
</svg>
